# Blender v3.0.0 OBJ File: 'models.blend'
# www.blender.org
mtllib mushroom_red.mtl
o mushroom_red_Cube.034
v -0.057430 -0.500000 0.057430
v -0.057430 -0.427918 0.057430
v -0.057430 -0.500000 -0.057430
v -0.057430 -0.427918 -0.057430
v 0.057430 -0.500000 0.057430
v 0.057430 -0.427918 0.057430
v 0.057430 -0.500000 -0.057430
v 0.057430 -0.427918 -0.057430
v -0.184318 -0.253678 0.184318
v -0.184318 -0.253678 -0.184318
v 0.184318 -0.253678 -0.184318
v 0.184318 -0.253678 0.184318
v -0.247593 -0.370477 0.247593
v -0.247593 -0.370477 -0.247593
v 0.247593 -0.370477 -0.247593
v 0.247593 -0.370477 0.247593
v -0.247593 -0.253678 0.247593
v -0.247593 -0.253678 -0.247593
v 0.247593 -0.253678 -0.247593
v 0.247593 -0.253678 0.247593
v -0.128311 -0.192150 0.128311
v -0.128311 -0.192150 -0.128311
v 0.128311 -0.192150 -0.128311
v 0.128311 -0.192150 0.128311
v 0.152511 -0.427918 -0.152511
v 0.152511 -0.427918 0.152511
v -0.152511 -0.427918 0.152511
v -0.152511 -0.427918 -0.152511
v 0.152511 -0.370477 -0.152511
v -0.152511 -0.370477 0.152511
v 0.152511 -0.370477 0.152511
v -0.152511 -0.370477 -0.152511
v -0.184318 -0.192150 0.184318
v -0.184318 -0.192150 -0.184318
v 0.184318 -0.192150 -0.184318
v 0.184318 -0.192150 0.184318
v -0.128311 -0.128876 0.128311
v -0.128311 -0.128876 -0.128311
v 0.128311 -0.128876 -0.128311
v 0.128311 -0.128876 0.128311
vt 0.555386 0.000149
vt 0.555386 0.066626
vt 0.445529 0.066626
vt 0.445529 0.000149
vt 0.555386 0.066626
vt 0.555386 0.000149
vt 0.445529 0.066626
vt 0.445529 0.000149
vt 0.687166 0.193505
vt 0.738897 0.193505
vt 0.738897 0.245235
vt 0.687166 0.245235
vt 0.417390 0.311725
vt 0.557788 0.311725
vt 0.581886 0.335823
vt 0.393292 0.335823
vt 0.324167 0.249500
vt 0.676748 0.249500
vt 0.676748 0.311336
vt 0.324167 0.311336
vt 0.700591 0.236872
vt 0.725950 0.236872
vt 0.733855 0.244777
vt 0.692686 0.244777
vt 0.557788 0.171327
vt 0.581886 0.147229
vt 0.417390 0.171327
vt 0.393292 0.147229
vt 0.263648 0.128245
vt 0.737267 0.128245
vt 0.737267 0.246963
vt 0.263648 0.246963
vt 0.263648 0.128245
vt 0.737267 0.128245
vt 0.737267 0.246963
vt 0.263648 0.246963
vt 0.725950 0.211512
vt 0.700591 0.211512
vt 0.692686 0.203607
vt 0.733855 0.203607
vt 0.623180 0.313873
vt 0.377735 0.313873
vt 0.377735 0.370389
vt 0.623180 0.370389
vt 0.324166 0.249500
vt 0.676748 0.249500
vt 0.676748 0.311336
vt 0.324166 0.311336
vt 0.555948 0.117220
vt 0.443306 0.117220
vt 0.350061 0.075305
vt 0.649194 0.075305
vt 0.443306 0.117220
vt 0.555949 0.117220
vt 0.649194 0.075305
vt 0.350061 0.075305
vt 0.555948 0.117220
vt 0.649194 0.075305
vt 0.443306 0.117220
vt 0.350061 0.075305
vt 0.646327 0.066626
vt 0.354588 0.066626
vt 0.354588 0.128245
vt 0.646327 0.128245
vt 0.646327 0.066626
vt 0.354588 0.066626
vt 0.354588 0.128245
vt 0.646327 0.128245
vt 0.564937 0.311614
vt 0.564937 0.179432
vt 0.593786 0.150583
vt 0.593786 0.340463
vt 0.432755 0.179432
vt 0.403906 0.150583
vt 0.432755 0.311614
vt 0.403906 0.340463
vt 0.472045 0.230844
vt 0.578175 0.230844
vt 0.578175 0.336974
vt 0.472045 0.336974
vt 0.623180 0.313873
vt 0.377735 0.313873
vt 0.377735 0.370389
vt 0.623180 0.370389
vn -1.0000 0.0000 0.0000
vn 0.0000 0.0000 -1.0000
vn 1.0000 0.0000 0.0000
vn 0.0000 0.0000 1.0000
vn 0.0000 -1.0000 0.0000
vn 0.0000 1.0000 0.0000
g mushroom_red_Cube.034_farming_mushroom_brown
usemtl farming_mushroom_brown
s off
f 1/1/1 2/2/1 4/3/1 3/4/1
f 3/4/2 4/3/2 8/5/2 7/6/2
f 7/6/3 8/5/3 6/7/3 5/8/3
f 5/8/4 6/7/4 2/2/4 1/1/4
f 3/9/5 7/10/5 5/11/5 1/12/5
f 12/13/6 9/14/6 17/15/6 20/16/6
f 12/17/3 11/18/3 35/19/3 36/20/3
f 31/21/5 29/22/5 15/23/5 16/24/5
f 9/14/6 10/25/6 18/26/6 17/15/6
f 11/27/6 12/13/6 20/16/6 19/28/6
f 16/29/3 15/30/3 19/31/3 20/32/3
f 14/33/1 13/34/1 17/35/1 18/36/1
f 13/34/4 16/29/4 20/32/4 17/35/4
f 15/30/2 14/33/2 18/36/2 19/31/2
f 10/25/6 11/27/6 19/28/6 18/26/6
f 32/37/5 30/38/5 13/39/5 14/40/5
f 30/38/5 31/21/5 16/24/5 13/39/5
f 29/22/5 32/37/5 14/40/5 15/23/5
f 21/41/4 24/42/4 40/43/4 37/44/4
f 10/45/1 9/46/1 33/47/1 34/48/1
f 9/46/4 12/17/4 36/20/4 33/47/4
f 11/18/2 10/45/2 34/48/2 35/19/2
f 8/49/5 4/50/5 28/51/5 25/52/5
f 2/53/5 6/54/5 26/55/5 27/56/5
f 4/57/5 2/53/5 27/56/5 28/58/5
f 6/59/5 8/49/5 25/52/5 26/60/5
f 25/61/2 28/62/2 32/63/2 29/64/2
f 27/65/4 26/66/4 31/67/4 30/68/4
f 28/62/1 27/65/1 30/68/1 32/63/1
f 26/66/3 25/61/3 29/64/3 31/67/3
f 21/69/6 22/70/6 34/71/6 33/72/6
f 22/70/6 23/73/6 35/74/6 34/71/6
f 23/73/6 24/75/6 36/76/6 35/74/6
f 24/75/6 21/69/6 33/72/6 36/76/6
f 39/77/6 38/78/6 37/79/6 40/80/6
f 23/81/2 22/82/2 38/83/2 39/84/2
f 24/42/3 23/81/3 39/84/3 40/43/3
f 22/82/1 21/41/1 37/44/1 38/83/1
