# Blender v3.0.0 OBJ File: 'models.blend'
# www.blender.org
mtllib brown_mushroom.mtl
o Cube.020_Cube.033
v -0.057430 -0.500000 0.057430
v -0.057430 -0.310724 0.057430
v -0.057430 -0.500000 -0.057430
v -0.057430 -0.310724 -0.057430
v 0.057430 -0.500000 0.057430
v 0.057430 -0.310724 0.057430
v 0.057430 -0.500000 -0.057430
v 0.057430 -0.310724 -0.057430
v -0.184318 -0.189799 0.184318
v -0.184318 -0.189799 -0.184318
v 0.184318 -0.189799 -0.184318
v 0.184318 -0.189799 0.184318
v -0.247593 -0.310724 0.247593
v -0.247593 -0.310724 -0.247593
v 0.247593 -0.310724 -0.247593
v 0.247593 -0.310724 0.247593
v -0.247593 -0.189799 0.247593
v -0.247593 -0.189799 -0.247593
v 0.247593 -0.189799 -0.247593
v 0.247593 -0.189799 0.247593
v -0.184318 -0.128271 0.184318
v -0.184318 -0.128271 -0.184318
v 0.184318 -0.128271 -0.184318
v 0.184318 -0.128271 0.184318
vt 0.555966 0.004538
vt 0.555966 0.186436
vt 0.445583 0.186436
vt 0.445583 0.004538
vt 0.555966 0.186436
vt 0.555966 0.004538
vt 0.445583 0.004538
vt 0.445583 0.186436
vt 0.555966 0.186436
vt 0.555966 0.004538
vt 0.445583 0.186436
vt 0.445583 0.004538
vt 0.687166 0.193505
vt 0.738897 0.193505
vt 0.738897 0.245235
vt 0.687166 0.245235
vt 0.467675 0.330589
vt 0.566671 0.330589
vt 0.583663 0.347581
vt 0.450683 0.347581
vt 0.674701 0.314674
vt 0.320434 0.314674
vt 0.320434 0.373804
vt 0.674701 0.373804
vt 0.708496 0.228967
vt 0.718045 0.228967
vt 0.733855 0.244777
vt 0.692686 0.244777
vt 0.566671 0.231593
vt 0.583663 0.214601
vt 0.467675 0.231593
vt 0.450683 0.214601
vt 0.735509 0.192850
vt 0.259625 0.192850
vt 0.259625 0.309062
vt 0.735509 0.309062
vt 0.259625 0.192850
vt 0.735509 0.192850
vt 0.735509 0.309062
vt 0.259625 0.309062
vt 0.259626 0.192850
vt 0.259626 0.309062
vt 0.735509 0.192850
vt 0.735509 0.309062
vt 0.718045 0.219417
vt 0.708496 0.219417
vt 0.692686 0.203607
vt 0.733855 0.203607
vt 0.448882 0.207681
vt 0.601339 0.207681
vt 0.601339 0.360138
vt 0.448882 0.360138
vt 0.320434 0.314674
vt 0.674701 0.314674
vt 0.674701 0.373804
vt 0.320434 0.373804
vt 0.320434 0.314674
vt 0.320434 0.373804
vt 0.674701 0.314674
vt 0.674701 0.373804
vn -1.0000 0.0000 0.0000
vn 0.0000 0.0000 -1.0000
vn 1.0000 0.0000 0.0000
vn 0.0000 0.0000 1.0000
vn 0.0000 -1.0000 0.0000
vn 0.0000 1.0000 0.0000
g Cube.020_Cube.033_farming_mushroom_brown
usemtl farming_mushroom_brown
s off
f 1/1/1 2/2/1 4/3/1 3/4/1
f 3/4/2 4/3/2 8/5/2 7/6/2
f 7/7/3 8/8/3 6/9/3 5/10/3
f 5/10/4 6/9/4 2/11/4 1/12/4
f 3/13/5 7/14/5 5/15/5 1/16/5
f 12/17/6 9/18/6 17/19/6 20/20/6
f 12/21/3 11/22/3 23/23/3 24/24/3
f 6/25/5 8/26/5 15/27/5 16/28/5
f 9/18/6 10/29/6 18/30/6 17/19/6
f 11/31/6 12/17/6 20/20/6 19/32/6
f 16/33/3 15/34/3 19/35/3 20/36/3
f 14/37/1 13/38/1 17/39/1 18/40/1
f 13/41/4 16/33/4 20/36/4 17/42/4
f 15/43/2 14/37/2 18/40/2 19/44/2
f 10/29/6 11/31/6 19/32/6 18/30/6
f 4/45/5 2/46/5 13/47/5 14/48/5
f 2/46/5 6/25/5 16/28/5 13/47/5
f 8/26/5 4/45/5 14/48/5 15/27/5
f 23/49/6 22/50/6 21/51/6 24/52/6
f 10/53/1 9/54/1 21/55/1 22/56/1
f 9/57/4 12/21/4 24/24/4 21/58/4
f 11/59/2 10/53/2 22/56/2 23/60/2
