# Made in Blockbench 4.8.3
mtllib leads_lead_slack7.mtl

o cube
v 0.3125 0.3125 5
v 0.3125 0.3125 -5
v 0.3125 -0.3125 5
v 0.3125 -0.3125 -5
v -0.3125 0.3125 5
v -0.3125 0.3125 -5
v -0.3125 -0.3125 5
v -0.3125 -0.3125 -5
v -0.3125 0.07246376811594207 4.375
v -0.3125 -0.5525362318840576 4.375
v -0.3125 -0.11956521739130428 3.75
v -0.3125 -0.7445652173913053 3.75
v -0.3125 -0.26358695652173914 3.125
v -0.3125 -0.8885869565217397 3.125
v -0.3125 -0.3596014492753623 2.5
v -0.3125 -0.984601449275363 2.5
v -0.3125 -0.4316123188405796 1.875
v -0.3125 -1.0566123188405796 1.875
v -0.3125 -0.47961956521739124 1.25
v -0.3125 -1.1046195652173918 1.25
v -0.3125 -0.5036231884057969 0.625
v -0.3125 -1.1286231884057984 0.625
v -0.3125 -0.5156249999999998 0
v -0.3125 -1.1406250000000018 0
v -0.3125 -0.5036231884057969 -0.625
v -0.3125 -1.1286231884057984 -0.625
v -0.3125 -0.47961956521739124 -1.25
v -0.3125 -1.1046195652173918 -1.25
v -0.3125 -0.4316123188405796 -1.875
v -0.3125 -1.0566123188405796 -1.875
v -0.3125 -0.3596014492753623 -2.5
v -0.3125 -0.984601449275363 -2.5
v -0.3125 -0.26358695652173914 -3.125
v -0.3125 -0.8885869565217397 -3.125
v -0.3125 -0.11956521739130428 -3.75
v -0.3125 -0.7445652173913053 -3.75
v -0.3125 0.07246376811594207 -4.375
v -0.3125 -0.5525362318840576 -4.375
v 0.3125 -0.5525362318840576 4.375
v 0.3125 -0.7445652173913053 3.75
v 0.3125 -0.8885869565217397 3.125
v 0.3125 -0.984601449275363 2.5
v 0.3125 -1.0566123188405796 1.875
v 0.3125 -1.1046195652173918 1.25
v 0.3125 -1.1286231884057984 0.625
v 0.3125 -1.1406250000000018 0
v 0.3125 -1.1286231884057984 -0.625
v 0.3125 -1.1046195652173918 -1.25
v 0.3125 -1.0566123188405796 -1.875
v 0.3125 -0.984601449275363 -2.5
v 0.3125 -0.8885869565217397 -3.125
v 0.3125 -0.7445652173913053 -3.75
v 0.3125 -0.5525362318840576 -4.375
v 0.3125 0.07246376811594207 4.375
v 0.3125 -0.11956521739130428 3.75
v 0.3125 -0.26358695652173914 3.125
v 0.3125 -0.3596014492753623 2.5
v 0.3125 -0.4316123188405796 1.875
v 0.3125 -0.47961956521739124 1.25
v 0.3125 -0.5036231884057969 0.625
v 0.3125 -0.5156249999999998 0
v 0.3125 -0.5036231884057969 -0.625
v 0.3125 -0.47961956521739124 -1.25
v 0.3125 -0.4316123188405796 -1.875
v 0.3125 -0.3596014492753623 -2.5
v 0.3125 -0.26358695652173914 -3.125
v 0.3125 -0.11956521739130428 -3.75
v 0.3125 0.07246376811594207 -4.375
vt 1 1
vt 0.9375 1
vt 0.9375 0
vt 1 0
vt 0 0
vt 0.0625 0
vt 0.0625 1
vt 0 1
vt 0 0
vt 0.0625 0
vt 0.06250000000000006 1
vt 5.551115123125783e-17 1
vt 1 1
vt 0.9375 1
vt 0.9375 0
vt 1 0
vt 0 0
vt 0 1
vt 0 1
vt 0 0
vt 0 0
vt 0 1
vt 0 1
vt 0 0
vt 1 1
vt 0.9375 1
vt 0.9375 0
vt 1 0
vt 0.9375 1
vt 0.875 1
vt 0.875 0
vt 0.9375 0
vt 0.875 1
vt 0.8125 1
vt 0.8125 0
vt 0.875 0
vt 0.8125 1
vt 0.75 1
vt 0.75 0
vt 0.8125 0
vt 0.75 1
vt 0.6875 1
vt 0.6875 0
vt 0.75 0
vt 0.6875 1
vt 0.625 1
vt 0.625 0
vt 0.6875 0
vt 0.625 1
vt 0.5625 1
vt 0.5625 0
vt 0.625 0
vt 0.5625 1
vt 0.5 1
vt 0.5 0
vt 0.5625 0
vt 0.5 1
vt 0.4375 1
vt 0.4375 0
vt 0.5 0
vt 0.4375 1
vt 0.375 1
vt 0.375 0
vt 0.4375 0
vt 0.375 1
vt 0.3125 1
vt 0.3125 0
vt 0.375 0
vt 0.3125 1
vt 0.25 1
vt 0.25 0
vt 0.3125 0
vt 0.25 1
vt 0.1875 1
vt 0.1875 0
vt 0.25 0
vt 0.1875 1
vt 0.125 1
vt 0.125 0
vt 0.1875 0
vt 0.125 1
vt 0.0625 1
vt 0.0625 0
vt 0.125 0
vt 0 0
vt 0.0625 0
vt 0.0625 1
vt 5.551115123125783e-17 1
vt 0.0625 0
vt 0.125 0
vt 0.125 1
vt 0.0625 1
vt 0.125 0
vt 0.1875 0
vt 0.1875 1
vt 0.125 1
vt 0.1875 0
vt 0.25 0
vt 0.25 1
vt 0.1875 1
vt 0.25 0
vt 0.3125 0
vt 0.3125 1
vt 0.25 1
vt 0.3125 0
vt 0.375 0
vt 0.375 1
vt 0.3125 1
vt 0.375 0
vt 0.4375 0
vt 0.4375 1
vt 0.375 1
vt 0.4375 0
vt 0.5 0
vt 0.5 1
vt 0.4375 1
vt 0.5 0
vt 0.5625 0
vt 0.5625 1
vt 0.5 1
vt 0.5625 0
vt 0.625 0
vt 0.625 1
vt 0.5625 1
vt 0.625 0
vt 0.6875 0
vt 0.6875 1
vt 0.625 1
vt 0.6875 0
vt 0.75 0
vt 0.75 1
vt 0.6875 1
vt 0.75 0
vt 0.8125 0
vt 0.8125 1
vt 0.75 1
vt 0.8125 0
vt 0.875 0
vt 0.875 1
vt 0.8125 1
vt 0.875 0
vt 0.9375 0
vt 0.9375 1
vt 0.875 1
vt 0 0
vt 0.0625 0
vt 0.0625 1
vt 0 1
vt 0.0625 0
vt 0.125 0
vt 0.125 1
vt 0.0625 1
vt 0.125 0
vt 0.1875 0
vt 0.1875 1
vt 0.125 1
vt 0.1875 0
vt 0.25 0
vt 0.25 1
vt 0.1875 1
vt 0.25 0
vt 0.3125 0
vt 0.3125 1
vt 0.25 1
vt 0.3125 0
vt 0.375 0
vt 0.375 1
vt 0.3125 1
vt 0.375 0
vt 0.4375 0
vt 0.4375 1
vt 0.375 1
vt 0.4375 0
vt 0.5 0
vt 0.5 1
vt 0.4375 1
vt 0.5 0
vt 0.5625 0
vt 0.5625 1
vt 0.5 1
vt 0.5625 0
vt 0.625 0
vt 0.625 1
vt 0.5625 1
vt 0.625 0
vt 0.6875 0
vt 0.6875 1
vt 0.625 1
vt 0.6875 0
vt 0.75 0
vt 0.75 1
vt 0.6875 1
vt 0.75 0
vt 0.8125 0
vt 0.8125 1
vt 0.75 1
vt 0.8125 0
vt 0.875 0
vt 0.875 1
vt 0.8125 1
vt 0.875 0
vt 0.9375 0
vt 0.9375 1
vt 0.875 1
vt 1 1
vt 0.9375 1
vt 0.9375 0
vt 1 0
vt 0.9375 1
vt 0.875 1
vt 0.875 0
vt 0.9375 0
vt 0.875 1
vt 0.8125 1
vt 0.8125 0
vt 0.875 0
vt 0.8125 1
vt 0.75 1
vt 0.75 0
vt 0.8125 0
vt 0.75 1
vt 0.6875 1
vt 0.6875 0
vt 0.75 0
vt 0.6875 1
vt 0.625 1
vt 0.625 0
vt 0.6875 0
vt 0.625 1
vt 0.5625 1
vt 0.5625 0
vt 0.625 0
vt 0.5625 1
vt 0.5 1
vt 0.5 0
vt 0.5625 0
vt 0.5 1
vt 0.4375 1
vt 0.4375 0
vt 0.5 0
vt 0.4375 1
vt 0.37500000000000006 1
vt 0.375 0
vt 0.4375 0
vt 0.37500000000000006 1
vt 0.31250000000000006 1
vt 0.3125 0
vt 0.375 0
vt 0.31250000000000006 1
vt 0.25000000000000006 1
vt 0.25 0
vt 0.3125 0
vt 0.25000000000000006 1
vt 0.18750000000000006 1
vt 0.1875 0
vt 0.25 0
vt 0.18750000000000006 1
vt 0.12500000000000006 1
vt 0.125 0
vt 0.1875 0
vt 0.12500000000000006 1
vt 0.06250000000000006 1
vt 0.0625 0
vt 0.125 0
vn 1 0 0
vn -1 0 0
vn 0 0.9335198424278247 0.35852573658459924
vn 0 -0.9335198424278248 -0.3585257365845989
vn 0 0 1
vn 0 0 -1
vn -1 0 0
vn -1 0 0
vn -1 0 0
vn -1 0 0
vn -1 0 0
vn -1 0 0
vn -1 0 0
vn -1 0 0
vn -1 0 0
vn -1 0 0
vn -1 0 0
vn -1 0 0
vn -1 0 0
vn -1 0 0
vn -1 0 0
vn 0 -0.9335198424278248 0.3585257365845989
vn 0 -0.9558987443606234 0.29369642580355587
vn 0 -0.9744625531989032 0.22455006660670312
vn 0 -0.9884047949144682 0.15184189603033874
vn 0 -0.9934278387732237 0.11446016403256586
vn 0 -0.9970629794889134 0.07658599697523634
vn 0 -0.9992633122381398 0.03837750402074152
vn 0 -0.9998156753195351 0.01919935898258596
vn 0 -0.9998156753195351 -0.01919935898258596
vn 0 -0.9992633122381398 -0.03837750402074152
vn 0 -0.9970629794889134 -0.07658599697523634
vn 0 -0.9934278387732237 -0.11446016403256586
vn 0 -0.9884047949144682 -0.15184189603033874
vn 0 -0.9744625531989032 -0.22455006660670312
vn 0 -0.9558987443606234 -0.29369642580355587
vn 1 0 0
vn 1 0 0
vn 1 0 0
vn 1 0 0
vn 1 0 0
vn 1 0 0
vn 1 0 0
vn 1 0 0
vn 1 0 0
vn 1 0 0
vn 1 0 0
vn 1 0 0
vn 1 0 0
vn 1 0 0
vn 1 0 0
vn 0 0.9335198424278247 -0.35852573658459924
vn 0 0.955898744360624 -0.29369642580355404
vn 0 0.9744625531989032 -0.2245500666067039
vn 0 0.9884047949144682 -0.1518418960303385
vn 0 0.9934278387732237 -0.11446016403256697
vn 0 0.9970629794889134 -0.07658599697523545
vn 0 0.9992633122381398 -0.038377504020739965
vn 0 0.9998156753195351 -0.019199358982585294
vn 0 0.9998156753195351 0.019199358982585294
vn 0 0.9992633122381398 0.038377504020739965
vn 0 0.9970629794889134 0.07658599697523545
vn 0 0.9934278387732237 0.11446016403256697
vn 0 0.9884047949144682 0.1518418960303385
vn 0 0.9744625531989032 0.2245500666067039
vn 0 0.955898744360624 0.29369642580355404
usemtl m_23be694f-bb73-ca4f-4e50-c3ef0f3838f0
f 2/1/1 68/2/1 53/3/1 4/4/1
f 8/5/2 38/6/2 37/7/2 6/8/2
f 6/9/3 37/10/3 68/11/3 2/12/3
f 4/13/4 53/14/4 38/15/4 8/16/4
f 3/17/5 1/18/5 5/19/5 7/20/5
f 8/21/6 6/22/6 2/23/6 4/24/6
f 5/25/7 9/26/7 10/27/7 7/28/7
f 9/29/8 11/30/8 12/31/8 10/32/8
f 11/33/9 13/34/9 14/35/9 12/36/9
f 13/37/10 15/38/10 16/39/10 14/40/10
f 15/41/11 17/42/11 18/43/11 16/44/11
f 17/45/12 19/46/12 20/47/12 18/48/12
f 19/49/13 21/50/13 22/51/13 20/52/13
f 21/53/14 23/54/14 24/55/14 22/56/14
f 23/57/15 25/58/15 26/59/15 24/60/15
f 25/61/16 27/62/16 28/63/16 26/64/16
f 27/65/17 29/66/17 30/67/17 28/68/17
f 29/69/18 31/70/18 32/71/18 30/72/18
f 31/73/19 33/74/19 34/75/19 32/76/19
f 33/77/20 35/78/20 36/79/20 34/80/20
f 35/81/21 37/82/21 38/83/21 36/84/21
f 7/85/22 10/86/22 39/87/22 3/88/22
f 10/89/23 12/90/23 40/91/23 39/92/23
f 12/93/24 14/94/24 41/95/24 40/96/24
f 14/97/25 16/98/25 42/99/25 41/100/25
f 16/101/26 18/102/26 43/103/26 42/104/26
f 18/105/27 20/106/27 44/107/27 43/108/27
f 20/109/28 22/110/28 45/111/28 44/112/28
f 22/113/29 24/114/29 46/115/29 45/116/29
f 24/117/30 26/118/30 47/119/30 46/120/30
f 26/121/31 28/122/31 48/123/31 47/124/31
f 28/125/32 30/126/32 49/127/32 48/128/32
f 30/129/33 32/130/33 50/131/33 49/132/33
f 32/133/34 34/134/34 51/135/34 50/136/34
f 34/137/35 36/138/35 52/139/35 51/140/35
f 36/141/36 38/142/36 53/143/36 52/144/36
f 3/145/37 39/146/37 54/147/37 1/148/37
f 39/149/38 40/150/38 55/151/38 54/152/38
f 40/153/39 41/154/39 56/155/39 55/156/39
f 41/157/40 42/158/40 57/159/40 56/160/40
f 42/161/41 43/162/41 58/163/41 57/164/41
f 43/165/42 44/166/42 59/167/42 58/168/42
f 44/169/43 45/170/43 60/171/43 59/172/43
f 45/173/44 46/174/44 61/175/44 60/176/44
f 46/177/45 47/178/45 62/179/45 61/180/45
f 47/181/46 48/182/46 63/183/46 62/184/46
f 48/185/47 49/186/47 64/187/47 63/188/47
f 49/189/48 50/190/48 65/191/48 64/192/48
f 50/193/49 51/194/49 66/195/49 65/196/49
f 51/197/50 52/198/50 67/199/50 66/200/50
f 52/201/51 53/202/51 68/203/51 67/204/51
f 1/205/52 54/206/52 9/207/52 5/208/52
f 54/209/53 55/210/53 11/211/53 9/212/53
f 55/213/54 56/214/54 13/215/54 11/216/54
f 56/217/55 57/218/55 15/219/55 13/220/55
f 57/221/56 58/222/56 17/223/56 15/224/56
f 58/225/57 59/226/57 19/227/57 17/228/57
f 59/229/58 60/230/58 21/231/58 19/232/58
f 60/233/59 61/234/59 23/235/59 21/236/59
f 61/237/60 62/238/60 25/239/60 23/240/60
f 62/241/61 63/242/61 27/243/61 25/244/61
f 63/245/62 64/246/62 29/247/62 27/248/62
f 64/249/63 65/250/63 31/251/63 29/252/63
f 65/253/64 66/254/64 33/255/64 31/256/64
f 66/257/65 67/258/65 35/259/65 33/260/65
f 67/261/66 68/262/66 37/263/66 35/264/66