# Blender v3.0.0 OBJ File: 'models.blend'
# www.blender.org
mtllib mts_mushroom_red.mtl
o flowers_mushroom_red
v 0.044638 -0.500000 0.076289
v -0.015826 -0.500000 0.060463
v -0.076289 -0.500000 0.044638
v 0.286490 -0.312500 0.139591
v 0.286490 -0.250000 0.139591
v 0.286490 -0.187500 0.139591
v 0.226027 -0.375000 0.123766
v 0.226027 -0.312500 0.123766
v 0.226027 -0.187500 0.123766
v 0.226027 -0.125000 0.123766
v 0.165564 -0.375000 0.107940
v -0.063303 -0.312500 0.241853
v -0.063303 -0.375000 0.241853
v -0.002839 -0.125000 0.257678
v 0.165564 -0.125000 0.107940
v 0.105101 -0.375000 0.092115
v -0.002839 -0.187500 0.257678
v -0.002839 -0.312500 0.257678
v 0.105101 -0.125000 0.092114
v 0.105101 -0.062500 0.092114
v 0.044638 -0.437500 0.076289
v 0.044638 -0.375000 0.076289
v -0.002839 -0.375000 0.257678
v 0.057624 -0.125000 0.273504
v 0.057624 -0.187500 0.273504
v 0.044638 -0.062500 0.076289
v -0.015826 -0.437500 0.060463
v -0.015826 -0.375000 0.060463
v 0.057624 -0.312500 0.273504
v 0.057624 -0.375000 0.273504
v 0.118087 -0.125000 0.289330
v 0.118087 -0.187500 0.289330
v -0.015826 -0.062500 0.060463
v -0.076289 -0.437500 0.044638
v -0.076289 -0.375000 0.044638
v 0.118087 -0.312500 0.289330
v 0.118087 -0.375000 0.289330
v 0.178550 -0.125000 0.305155
v -0.076289 -0.062500 0.044638
v -0.136752 -0.375000 0.028812
v 0.178550 -0.187500 0.305155
v 0.239013 -0.312500 0.320981
v 0.239013 -0.187500 0.320981
v -0.136752 -0.125000 0.028812
v -0.136752 -0.062500 0.028812
v -0.197215 -0.375000 0.012986
v 0.239013 -0.250000 0.320981
v 0.178550 -0.375000 0.305155
v -0.197215 -0.125000 0.012986
v -0.257678 -0.375000 -0.002839
v -0.257678 -0.312500 -0.002839
v 0.178550 -0.312500 0.305155
v -0.257678 -0.187500 -0.002839
v -0.257678 -0.125000 -0.002839
v -0.318142 -0.312500 -0.018665
v -0.318142 -0.250000 -0.018665
v -0.318142 -0.187500 -0.018665
v 0.076289 -0.500000 -0.044638
v 0.015826 -0.500000 -0.060463
v -0.044638 -0.500000 -0.076289
v 0.318142 -0.312500 0.018665
v 0.318142 -0.250000 0.018665
v 0.318142 -0.187500 0.018665
v 0.257678 -0.375000 0.002839
v 0.257678 -0.312500 0.002839
v 0.149738 -0.375000 0.168403
v 0.257678 -0.187500 0.002839
v 0.257678 -0.125000 0.002839
v 0.197215 -0.375000 -0.012986
v 0.063303 -0.312500 -0.241853
v 0.063303 -0.375000 -0.241853
v 0.123766 -0.125000 -0.226027
v 0.197215 -0.125000 -0.012986
v 0.136752 -0.375000 -0.028812
v 0.123766 -0.187500 -0.226027
v 0.210202 -0.125000 0.184229
v 0.123766 -0.312500 -0.226027
v 0.136752 -0.125000 -0.028812
v 0.136752 -0.062500 -0.028812
v 0.076289 -0.437500 -0.044638
v 0.076289 -0.375000 -0.044638
v 0.123766 -0.375000 -0.226027
v 0.184229 -0.125000 -0.210201
v 0.184229 -0.187500 -0.210201
v 0.210202 -0.187500 0.184229
v 0.076289 -0.062500 -0.044638
v 0.015826 -0.437500 -0.060463
v 0.015826 -0.375000 -0.060463
v 0.184229 -0.312500 -0.210201
v 0.184229 -0.375000 -0.210201
v 0.244692 -0.125000 -0.194376
v 0.244692 -0.187500 -0.194376
v 0.015826 -0.062500 -0.060463
v -0.044638 -0.437500 -0.076289
v -0.044638 -0.375000 -0.076289
v 0.162725 -0.187500 0.365619
v 0.244692 -0.312500 -0.194376
v 0.244692 -0.375000 -0.194376
v 0.305155 -0.125000 -0.178550
v -0.044638 -0.062500 -0.076289
v -0.105101 -0.375000 -0.092115
v 0.305155 -0.187500 -0.178550
v 0.210202 -0.312500 0.184229
v 0.305155 -0.312500 -0.178550
v -0.105101 -0.125000 -0.092115
v -0.105101 -0.062500 -0.092115
v -0.165564 -0.375000 -0.107940
v 0.305155 -0.375000 -0.178550
v 0.365619 -0.187500 -0.162724
v 0.365619 -0.250000 -0.162724
v -0.165564 -0.125000 -0.107940
v -0.226027 -0.375000 -0.123766
v -0.226027 -0.312500 -0.123766
v 0.365619 -0.312500 -0.162724
v -0.226027 -0.187500 -0.123766
v -0.226027 -0.125000 -0.123766
v -0.286490 -0.312500 -0.139591
v -0.286490 -0.250000 -0.139591
v -0.286490 -0.187500 -0.139591
v 0.333967 -0.312500 -0.041798
v 0.333967 -0.250000 -0.041798
v 0.333967 -0.187500 -0.041798
v 0.273504 -0.375000 -0.057624
v 0.273504 -0.312500 -0.057624
v 0.320981 -0.187500 -0.239013
v 0.273504 -0.187500 -0.057624
v 0.273504 -0.125000 -0.057624
v 0.213041 -0.375000 -0.073449
v 0.320981 -0.250000 -0.239013
v 0.260518 -0.312500 -0.254839
v 0.260518 -0.187500 -0.254839
v 0.213041 -0.125000 -0.073450
v 0.152578 -0.375000 -0.089275
v 0.260518 -0.250000 -0.254839
v 0.200055 -0.312500 -0.270665
v 0.200055 -0.187500 -0.270665
v 0.152578 -0.125000 -0.089275
v 0.152578 -0.062500 -0.089275
v 0.092115 -0.375000 -0.105101
v 0.200055 -0.250000 -0.270665
v 0.139591 -0.312500 -0.286490
v 0.139591 -0.187500 -0.286490
v 0.092115 -0.125000 -0.105101
v 0.092115 -0.062500 -0.105101
v 0.031651 -0.375000 -0.120926
v 0.139591 -0.250000 -0.286490
v 0.079128 -0.312500 -0.302316
v 0.079128 -0.187500 -0.302316
v 0.031651 -0.125000 -0.120926
v 0.031651 -0.062500 -0.120926
v -0.028812 -0.375000 -0.136752
v 0.079128 -0.250000 -0.302316
v 0.018665 -0.312500 -0.318142
v 0.018665 -0.187500 -0.318142
v -0.028812 -0.125000 -0.136752
v -0.028812 -0.062500 -0.136752
v -0.089275 -0.375000 -0.152578
v 0.018665 -0.250000 -0.318142
v -0.041798 -0.312500 -0.333967
v -0.041798 -0.187500 -0.333967
v -0.089275 -0.125000 -0.152578
v -0.089275 -0.062500 -0.152578
v -0.149738 -0.375000 -0.168403
v -0.041798 -0.250000 -0.333967
v -0.102261 -0.312500 -0.349793
v -0.102261 -0.187500 -0.349793
v -0.149738 -0.125000 -0.168403
v -0.210202 -0.375000 -0.184229
v -0.210202 -0.312500 -0.184229
v -0.102261 -0.250000 -0.349793
v -0.210202 -0.187500 -0.184229
v -0.210202 -0.125000 -0.184229
v -0.270665 -0.312500 -0.200055
v -0.270665 -0.250000 -0.200055
v -0.270665 -0.187500 -0.200055
v 0.063303 -0.187500 -0.241853
v 0.063303 -0.125000 -0.241853
v 0.002839 -0.375000 -0.257678
v 0.002839 -0.312500 -0.257678
v 0.210202 -0.375000 0.184229
v 0.002839 -0.187500 -0.257678
v 0.002839 -0.125000 -0.257678
v -0.057624 -0.375000 -0.273504
v -0.057624 -0.312500 -0.273504
v 0.270665 -0.187500 0.200055
v -0.057624 -0.187500 -0.273504
v -0.057624 -0.125000 -0.273504
v -0.118087 -0.375000 -0.289330
v -0.118087 -0.312500 -0.289330
v 0.270665 -0.250000 0.200055
v -0.118087 -0.187500 -0.289330
v -0.118087 -0.125000 -0.289330
v -0.178550 -0.375000 -0.305155
v -0.178550 -0.312500 -0.305155
v 0.270665 -0.312500 0.200055
v -0.178550 -0.187500 -0.305155
v -0.178550 -0.125000 -0.305155
v -0.239013 -0.312500 -0.320981
v -0.239013 -0.250000 -0.320981
v -0.239013 -0.187500 -0.320981
v 0.320981 -0.312500 -0.239013
v 0.381444 -0.250000 -0.223188
v 0.381444 -0.187500 -0.223188
v 0.381444 -0.312500 -0.223188
v -0.162725 -0.312500 -0.365619
v -0.162725 -0.250000 -0.365619
v -0.162725 -0.187500 -0.365619
v -0.223188 -0.312500 -0.381444
v -0.223188 -0.250000 -0.381444
v -0.223188 -0.187500 -0.381444
v 0.162725 -0.250000 0.365619
v 0.102261 -0.312500 0.349793
v 0.102261 -0.187500 0.349793
v 0.149738 -0.125000 0.168403
v 0.089275 -0.375000 0.152578
v 0.102261 -0.250000 0.349793
v 0.041798 -0.312500 0.333967
v 0.041798 -0.187500 0.333967
v 0.089275 -0.125000 0.152578
v 0.089275 -0.062500 0.152578
v 0.028812 -0.375000 0.136752
v 0.041798 -0.250000 0.333967
v -0.018665 -0.312500 0.318142
v -0.018665 -0.187500 0.318142
v 0.028812 -0.125000 0.136752
v 0.028812 -0.062500 0.136752
v -0.031651 -0.375000 0.120926
v -0.018665 -0.250000 0.318142
v -0.079128 -0.312500 0.302316
v -0.079128 -0.187500 0.302316
v -0.031651 -0.125000 0.120926
v -0.031651 -0.062500 0.120926
v -0.092115 -0.375000 0.105101
v -0.079128 -0.250000 0.302316
v -0.139591 -0.312500 0.286490
v -0.139591 -0.187500 0.286490
v -0.092115 -0.125000 0.105101
v -0.092115 -0.062500 0.105101
v -0.152578 -0.375000 0.089275
v -0.139591 -0.250000 0.286490
v -0.200055 -0.312500 0.270665
v -0.200055 -0.187500 0.270665
v -0.152578 -0.125000 0.089275
v -0.152578 -0.062500 0.089275
v -0.213041 -0.375000 0.073449
v -0.200055 -0.250000 0.270665
v -0.260518 -0.312500 0.254839
v -0.260518 -0.187500 0.254839
v -0.213041 -0.125000 0.073449
v -0.273504 -0.375000 0.057624
v -0.273504 -0.312500 0.057624
v -0.260518 -0.250000 0.254839
v -0.273504 -0.187500 0.057624
v -0.273504 -0.125000 0.057624
v -0.333967 -0.312500 0.041798
v -0.333967 -0.250000 0.041798
v -0.333967 -0.187500 0.041798
v -0.063303 -0.187500 0.241853
v -0.063303 -0.125000 0.241853
v -0.123766 -0.375000 0.226027
v -0.123766 -0.312500 0.226027
v -0.123766 -0.187500 0.226027
v -0.123766 -0.125000 0.226027
v -0.184229 -0.375000 0.210201
v -0.184229 -0.312500 0.210201
v -0.184229 -0.187500 0.210201
v -0.184229 -0.125000 0.210201
v -0.244692 -0.375000 0.194376
v -0.244692 -0.312500 0.194376
v -0.244692 -0.187500 0.194376
v -0.244692 -0.125000 0.194376
v -0.305155 -0.375000 0.178550
v -0.305155 -0.312500 0.178550
v -0.305155 -0.187500 0.178550
v -0.305155 -0.125000 0.178550
v -0.365619 -0.312500 0.162725
v -0.365619 -0.250000 0.162725
v -0.365619 -0.187500 0.162725
v 0.223188 -0.312500 0.381444
v 0.223188 -0.250000 0.381444
v 0.223188 -0.187500 0.381444
v 0.162725 -0.312500 0.365619
v -0.320981 -0.312500 0.239013
v -0.320981 -0.250000 0.239013
v -0.320981 -0.187500 0.239013
v -0.381444 -0.312500 0.223188
v -0.381444 -0.250000 0.223188
v -0.381444 -0.187500 0.223188
vt 0.625000 0.312500
vt 0.625000 0.375000
vt 0.687500 0.375000
vt 0.687500 0.312500
vt 0.406524 0.171964
vt 0.410538 0.171964
vt 0.410538 0.175977
vt 0.406524 0.175977
vt 0.394483 0.171964
vt 0.398497 0.171964
vt 0.398497 0.175977
vt 0.394483 0.175977
vt 0.625000 0.125000
vt 0.625000 0.187500
vt 0.687500 0.187500
vt 0.687500 0.125000
vt 0.750000 0.375000
vt 0.750000 0.312500
vt 0.745126 0.311405
vt 0.745126 0.250080
vt 0.806451 0.250080
vt 0.806451 0.311405
vt 0.307689 0.192466
vt 0.361697 0.192466
vt 0.361697 0.246473
vt 0.307689 0.246473
vt 0.750000 0.187500
vt 0.750000 0.125000
vt 0.469712 0.192466
vt 0.523719 0.192466
vt 0.523719 0.246473
vt 0.469712 0.246473
vt 0.631735 0.192466
vt 0.685743 0.192466
vt 0.685743 0.246473
vt 0.631735 0.246473
vt 0.528731 0.305526
vt 0.528731 0.255387
vt 0.582839 0.255387
vt 0.582839 0.305526
vt 0.561153 0.372729
vt 0.561153 0.311405
vt 0.622477 0.311405
vt 0.622477 0.372729
vt 0.418565 0.159923
vt 0.422579 0.159923
vt 0.422579 0.163936
vt 0.418565 0.163936
vt 0.507874 0.168008
vt 0.507874 0.163334
vt 0.512548 0.163334
vt 0.512548 0.168008
vt 0.485021 0.298442
vt 0.476387 0.298442
vt 0.476387 0.289808
vt 0.485021 0.289808
vt 0.500000 0.000000
vt 0.500000 0.062500
vt 0.562500 0.062500
vt 0.562500 0.000000
vt 0.500000 0.125000
vt 0.562500 0.125000
vt 0.438503 0.311405
vt 0.438503 0.372729
vt 0.377179 0.372729
vt 0.377179 0.311405
vt 0.561153 0.187240
vt 0.561153 0.127431
vt 0.622477 0.127431
vt 0.622477 0.187240
vt 0.424583 0.298442
vt 0.415949 0.298442
vt 0.415949 0.289808
vt 0.424583 0.289808
vt 0.507874 0.158660
vt 0.507874 0.153986
vt 0.512548 0.153986
vt 0.512548 0.158660
vt 0.507874 0.149313
vt 0.507874 0.144639
vt 0.512548 0.144639
vt 0.512548 0.149313
vt 0.437500 0.000000
vt 0.437500 0.062500
vt 0.437500 0.125000
vt 0.589698 0.398166
vt 0.581813 0.398166
vt 0.581813 0.390280
vt 0.589698 0.390280
vt 0.438503 0.127431
vt 0.438503 0.187240
vt 0.377179 0.187240
vt 0.377179 0.127431
vt 0.573927 0.398166
vt 0.566042 0.398166
vt 0.566042 0.390280
vt 0.573927 0.390280
vt 0.507874 0.139965
vt 0.507874 0.135291
vt 0.512548 0.135291
vt 0.512548 0.139965
vt 0.438503 0.250080
vt 0.438503 0.311405
vt 0.377179 0.311405
vt 0.377179 0.250080
vt 0.438503 0.372729
vt 0.438503 0.434054
vt 0.377179 0.434054
vt 0.377179 0.372729
vt 0.507874 0.172681
vt 0.512548 0.172681
vt 0.467753 0.298442
vt 0.467753 0.289808
vt 0.438503 0.187240
vt 0.377179 0.187240
vt 0.561153 0.434054
vt 0.561153 0.372729
vt 0.622477 0.372729
vt 0.622477 0.434054
vt 0.579260 0.308937
vt 0.579260 0.257042
vt 0.631155 0.257042
vt 0.631155 0.308937
vt 0.382442 0.159923
vt 0.386456 0.159923
vt 0.386456 0.163936
vt 0.382442 0.163936
vt 0.561153 0.311405
vt 0.561153 0.250080
vt 0.622477 0.250080
vt 0.622477 0.311405
vt 0.433217 0.298442
vt 0.433217 0.289808
vt 0.561153 0.187240
vt 0.622477 0.187240
vt 0.597584 0.398166
vt 0.597584 0.390280
vt 0.625000 0.312500
vt 0.687500 0.312500
vt 0.687500 0.375000
vt 0.625000 0.375000
vt 0.394483 0.139855
vt 0.390469 0.139855
vt 0.390469 0.135841
vt 0.394483 0.135841
vt 0.745126 0.311405
vt 0.745126 0.250080
vt 0.806451 0.250080
vt 0.806451 0.311405
vt 0.625000 0.125000
vt 0.687500 0.125000
vt 0.687500 0.187500
vt 0.625000 0.187500
vt 0.750000 0.312500
vt 0.750000 0.375000
vt 0.456610 0.242871
vt 0.409745 0.242871
vt 0.409745 0.196006
vt 0.456610 0.196006
vt 0.597207 0.242871
vt 0.550341 0.242871
vt 0.550341 0.196006
vt 0.597207 0.196006
vt 0.750000 0.125000
vt 0.750000 0.187500
vt 0.316014 0.242871
vt 0.269149 0.242871
vt 0.269149 0.196006
vt 0.316014 0.196006
vt 0.386456 0.139855
vt 0.382442 0.139855
vt 0.382442 0.135841
vt 0.386456 0.135841
vt 0.498526 0.158660
vt 0.498526 0.163334
vt 0.493853 0.163334
vt 0.493853 0.158660
vt 0.438503 0.250080
vt 0.438503 0.311405
vt 0.377179 0.311405
vt 0.377179 0.250080
vt 0.498526 0.139965
vt 0.498526 0.144639
vt 0.493853 0.144639
vt 0.493853 0.139965
vt 0.424583 0.315710
vt 0.433217 0.315710
vt 0.433217 0.324344
vt 0.424583 0.324344
vt 0.573927 0.413937
vt 0.581813 0.413937
vt 0.581813 0.421822
vt 0.573927 0.421822
vt 0.500000 0.000000
vt 0.562500 0.000000
vt 0.562500 0.062500
vt 0.500000 0.062500
vt 0.562500 0.125000
vt 0.500000 0.125000
vt 0.438503 0.187240
vt 0.377179 0.187240
vt 0.589698 0.413937
vt 0.597584 0.413937
vt 0.597584 0.421822
vt 0.589698 0.421822
vt 0.420516 0.255387
vt 0.420516 0.305526
vt 0.366409 0.305526
vt 0.366409 0.255387
vt 0.438503 0.311405
vt 0.438503 0.372729
vt 0.377179 0.372729
vt 0.377179 0.311405
vt 0.422579 0.151896
vt 0.418565 0.151896
vt 0.418565 0.147882
vt 0.422579 0.147882
vt 0.437500 0.000000
vt 0.437500 0.062500
vt 0.437500 0.125000
vt 0.498526 0.168008
vt 0.493853 0.168008
vt 0.476387 0.315710
vt 0.485021 0.315710
vt 0.485021 0.324344
vt 0.476387 0.324344
vt 0.561153 0.372729
vt 0.561153 0.311405
vt 0.622477 0.311405
vt 0.622477 0.372729
vt 0.438503 0.127431
vt 0.438503 0.187240
vt 0.377179 0.187240
vt 0.377179 0.127431
vt 0.415949 0.315710
vt 0.415949 0.324344
vt 0.498526 0.153986
vt 0.493853 0.153986
vt 0.498526 0.149313
vt 0.493853 0.149313
vt 0.561153 0.187240
vt 0.561153 0.127431
vt 0.622477 0.127431
vt 0.622477 0.187240
vt 0.566042 0.413937
vt 0.566042 0.421822
vt 0.498526 0.135291
vt 0.493853 0.135291
vt 0.561153 0.311405
vt 0.561153 0.250080
vt 0.622477 0.250080
vt 0.622477 0.311405
vt 0.561153 0.434054
vt 0.561153 0.372729
vt 0.622477 0.372729
vt 0.622477 0.434054
vt 0.498526 0.172681
vt 0.493853 0.172681
vt 0.467753 0.315710
vt 0.467753 0.324344
vt 0.561153 0.187240
vt 0.622477 0.187240
vt 0.438503 0.372729
vt 0.438503 0.434054
vt 0.377179 0.434054
vt 0.377179 0.372729
vt 0.475469 0.257042
vt 0.475469 0.308937
vt 0.423573 0.308937
vt 0.423573 0.257042
vt 0.386456 0.151896
vt 0.382442 0.151896
vt 0.382442 0.147882
vt 0.386456 0.147882
vt 0.439593 0.066107
vt 0.439593 0.004782
vt 0.560063 0.004782
vt 0.560063 0.066107
vt 0.560063 0.004782
vt 0.560063 0.066107
vt 0.439593 0.066107
vt 0.439593 0.004782
vt 0.439593 0.127431
vt 0.560063 0.127431
vt 0.560063 0.127431
vt 0.439593 0.127431
vt 0.562500 0.250000
vt 0.625000 0.250000
vt 0.625000 0.312500
vt 0.562500 0.312500
vt 0.562500 0.187500
vt 0.625000 0.187500
vt 0.750000 0.187500
vt 0.812500 0.187500
vt 0.812500 0.250000
vt 0.750000 0.250000
vt 0.812500 0.312500
vt 0.750000 0.312500
vt 0.687500 0.187500
vt 0.687500 0.250000
vt 0.687500 0.312500
vt 0.498885 0.255716
vt 0.561488 0.255716
vt 0.561488 0.369123
vt 0.498885 0.369123
vt 0.319783 0.308937
vt 0.319783 0.257042
vt 0.484505 0.139965
vt 0.484505 0.135291
vt 0.624090 0.255716
vt 0.686692 0.255716
vt 0.686692 0.369123
vt 0.624090 0.369123
vt 0.745126 0.311405
vt 0.745126 0.372729
vt 0.562500 0.375000
vt 0.625000 0.375000
vt 0.625000 0.437500
vt 0.562500 0.437500
vt 0.484505 0.163334
vt 0.484505 0.158660
vt 0.254530 0.311405
vt 0.254530 0.250080
vt 0.311079 0.255716
vt 0.373681 0.255716
vt 0.373681 0.369123
vt 0.311079 0.369123
vt 0.484505 0.153986
vt 0.484505 0.149313
vt 0.500000 0.375000
vt 0.500000 0.437500
vt 0.254530 0.187240
vt 0.745126 0.127431
vt 0.745126 0.187240
vt 0.254530 0.372729
vt 0.254530 0.311405
vt 0.484505 0.144639
vt 0.437500 0.375000
vt 0.437500 0.437500
vt 0.436283 0.255716
vt 0.436283 0.369123
vt 0.258193 0.305526
vt 0.258193 0.255387
vt 0.745126 0.187240
vt 0.375000 0.375000
vt 0.375000 0.437500
vt 0.484505 0.168008
vt 0.254530 0.187240
vt 0.254530 0.127431
vt 0.248476 0.255716
vt 0.248476 0.369123
vt 0.418565 0.139855
vt 0.422579 0.139855
vt 0.749295 0.255716
vt 0.749295 0.369123
vt 0.484505 0.172681
vt 0.562500 0.125000
vt 0.562500 0.187500
vt 0.410538 0.139855
vt 0.406524 0.139855
vt 0.406524 0.135841
vt 0.410538 0.135841
vt 0.398497 0.139855
vt 0.398497 0.135841
vt 0.562500 0.312500
vt 0.562500 0.375000
vt 0.500000 0.125000
vt 0.500000 0.187500
vt 0.193205 0.311405
vt 0.193205 0.250080
vt 0.362879 0.242871
vt 0.362879 0.196006
vt 0.500000 0.312500
vt 0.500000 0.375000
vt 0.437500 0.125000
vt 0.437500 0.187500
vt 0.503475 0.242871
vt 0.503475 0.196006
vt 0.690937 0.242871
vt 0.644072 0.242871
vt 0.644072 0.196006
vt 0.690937 0.196006
vt 0.437500 0.312500
vt 0.437500 0.375000
vt 0.375000 0.125000
vt 0.375000 0.187500
vt 0.418565 0.135841
vt 0.422579 0.135841
vt 0.193205 0.187240
vt 0.375000 0.312500
vt 0.375000 0.375000
vt 0.312500 0.125000
vt 0.312500 0.187500
vt 0.414551 0.139855
vt 0.414551 0.135841
vt 0.402510 0.139855
vt 0.402510 0.135841
vt 0.312500 0.312500
vt 0.312500 0.375000
vt 0.250000 0.125000
vt 0.250000 0.187500
vt 0.250000 0.312500
vt 0.250000 0.375000
vt 0.500000 0.187500
vt 0.500000 0.250000
vt 0.500000 0.312500
vt 0.437500 0.187500
vt 0.437500 0.250000
vt 0.437500 0.312500
vt 0.375000 0.187500
vt 0.375000 0.250000
vt 0.375000 0.312500
vt 0.312500 0.187500
vt 0.312500 0.250000
vt 0.312500 0.312500
vt 0.250000 0.187500
vt 0.250000 0.250000
vt 0.250000 0.312500
vt 0.187500 0.187500
vt 0.187500 0.250000
vt 0.187500 0.312500
vt 0.737802 0.242871
vt 0.737802 0.196006
vt 0.806451 0.187240
vt 0.562500 0.250000
vt 0.562500 0.312500
vt 0.625000 0.312500
vt 0.625000 0.250000
vt 0.562500 0.187500
vt 0.625000 0.187500
vt 0.750000 0.187500
vt 0.750000 0.250000
vt 0.812500 0.250000
vt 0.812500 0.187500
vt 0.750000 0.312500
vt 0.812500 0.312500
vt 0.687500 0.187500
vt 0.687500 0.250000
vt 0.687500 0.312500
vt 0.254530 0.311405
vt 0.254530 0.250080
vt 0.373681 0.369123
vt 0.311079 0.369123
vt 0.311079 0.255715
vt 0.373681 0.255715
vt 0.521895 0.149313
vt 0.521895 0.153986
vt 0.745126 0.187240
vt 0.745126 0.311405
vt 0.745126 0.372729
vt 0.562500 0.375000
vt 0.562500 0.437500
vt 0.625000 0.437500
vt 0.625000 0.375000
vt 0.521895 0.139965
vt 0.521895 0.144639
vt 0.498885 0.369123
vt 0.436283 0.369123
vt 0.436283 0.255715
vt 0.498885 0.255715
vt 0.254530 0.187240
vt 0.254530 0.127431
vt 0.691054 0.255387
vt 0.691054 0.305526
vt 0.500000 0.375000
vt 0.500000 0.437500
vt 0.624090 0.369123
vt 0.561488 0.369123
vt 0.561488 0.255716
vt 0.624090 0.255716
vt 0.521895 0.163334
vt 0.521895 0.168008
vt 0.745126 0.127431
vt 0.745126 0.187240
vt 0.248476 0.369123
vt 0.248476 0.255716
vt 0.437500 0.375000
vt 0.437500 0.437500
vt 0.422579 0.171964
vt 0.418565 0.171964
vt 0.749295 0.369123
vt 0.686692 0.369123
vt 0.686693 0.255716
vt 0.749295 0.255716
vt 0.521895 0.158660
vt 0.375000 0.375000
vt 0.375000 0.437500
vt 0.521895 0.172681
vt 0.734947 0.257042
vt 0.734947 0.308937
vt 0.521895 0.135291
vt 0.254530 0.372729
vt 0.254530 0.311405
vt 0.254530 0.187240
vt 0.386456 0.171964
vt 0.382442 0.171964
vt 0.562500 0.125000
vt 0.562500 0.187500
vt 0.422579 0.175977
vt 0.418565 0.175977
vt 0.806451 0.187240
vt 0.562500 0.312500
vt 0.562500 0.375000
vt 0.500000 0.125000
vt 0.500000 0.187500
vt 0.414551 0.171964
vt 0.414551 0.175977
vt 0.402510 0.171964
vt 0.402510 0.175977
vt 0.500000 0.312500
vt 0.500000 0.375000
vt 0.437500 0.125000
vt 0.437500 0.187500
vt 0.193205 0.311405
vt 0.193205 0.250080
vt 0.390469 0.171964
vt 0.390469 0.175977
vt 0.386456 0.175977
vt 0.437500 0.312500
vt 0.437500 0.375000
vt 0.375000 0.125000
vt 0.375000 0.187500
vt 0.253681 0.192466
vt 0.253681 0.246473
vt 0.415704 0.192466
vt 0.415704 0.246473
vt 0.375000 0.312500
vt 0.375000 0.375000
vt 0.312500 0.125000
vt 0.312500 0.187500
vt 0.577727 0.192466
vt 0.577727 0.246473
vt 0.193205 0.187240
vt 0.312500 0.312500
vt 0.312500 0.375000
vt 0.250000 0.125000
vt 0.250000 0.187500
vt 0.739751 0.192466
vt 0.739751 0.246473
vt 0.250000 0.312500
vt 0.250000 0.375000
vt 0.500000 0.187500
vt 0.500000 0.250000
vt 0.500000 0.312500
vt 0.437500 0.187500
vt 0.437500 0.250000
vt 0.437500 0.312500
vt 0.375000 0.187500
vt 0.375000 0.250000
vt 0.375000 0.312500
vt 0.312500 0.187500
vt 0.312500 0.250000
vt 0.312500 0.312500
vt 0.250000 0.187500
vt 0.250000 0.250000
vt 0.250000 0.312500
vt 0.187500 0.187500
vt 0.187500 0.250000
vt 0.187500 0.312500
vt 0.382442 0.175977
vt 0.680872 0.305526
vt 0.680872 0.255387
vt 0.734980 0.255387
vt 0.734980 0.305526
vn -0.2532 0.0000 0.9674
vn 0.0000 -1.0000 0.0000
vn -0.9674 0.0000 -0.2532
vn 0.0000 1.0000 0.0000
vn 0.9674 0.0000 0.2532
vn 0.2532 0.0000 -0.9674
g flowers_mushroom_red_flowers_mushroom_red_flowers_mushroom_red
usemtl flowers_mushroom_red
s off
f 266/1/1 267/2/1 271/3/1 270/4/1
f 18/5/2 29/6/2 217/7/2 223/8/2
f 265/9/2 261/10/2 235/11/2 241/12/2
f 264/13/1 265/14/1 269/15/1 268/16/1
f 270/4/1 271/3/1 275/17/1 274/18/1
f 278/19/3 277/20/3 287/21/3 288/22/3
f 32/23/4 25/24/4 218/25/4 213/26/4
f 268/16/1 269/15/1 273/27/1 272/28/1
f 258/29/4 262/30/4 236/31/4 230/32/4
f 270/33/4 274/34/4 285/35/4 248/36/4
f 6/37/4 9/38/4 85/39/4 185/40/4
f 54/41/3 53/42/3 253/43/3 254/44/3
f 8/45/2 4/46/2 195/47/2 103/48/2
f 46/49/2 40/50/2 239/51/2 245/52/2
f 10/53/4 15/54/4 214/55/4 76/56/4
f 2/57/1 27/58/1 34/59/1 3/60/1
f 27/58/1 28/61/1 35/62/1 34/59/1
f 9/63/5 10/64/5 76/65/5 85/66/5
f 51/67/3 50/68/3 250/69/3 251/70/3
f 49/71/4 54/72/4 254/73/4 249/74/4
f 35/75/2 28/76/2 227/77/2 233/78/2
f 22/79/2 16/80/2 215/81/2 221/82/2
f 1/83/1 21/84/1 27/58/1 2/57/1
f 21/84/1 22/85/1 28/61/1 27/58/1
f 26/86/4 33/87/4 232/88/4 226/89/4
f 7/90/5 8/91/5 103/92/5 180/93/5
f 39/94/4 45/95/4 244/96/4 238/97/4
f 11/98/2 7/99/2 180/100/2 66/101/2
f 5/102/5 6/103/5 185/104/5 190/105/5
f 19/106/5 20/107/5 220/108/5 219/109/5
f 50/110/2 46/49/2 245/52/2 250/111/2
f 15/54/4 19/112/4 219/113/4 214/55/4
f 4/114/5 5/102/5 190/105/5 195/115/5
f 45/116/3 44/117/3 243/118/3 244/119/3
f 53/120/4 57/121/4 257/122/4 253/123/4
f 28/76/2 22/79/2 221/82/2 227/77/2
f 55/124/2 51/125/2 251/126/2 255/127/2
f 40/50/2 35/75/2 233/78/2 239/51/2
f 57/128/3 56/129/3 256/130/3 257/131/3
f 16/80/2 11/98/2 66/101/2 215/81/2
f 44/132/4 49/71/4 249/74/4 243/133/4
f 33/87/4 39/94/4 238/97/4 232/88/4
f 56/129/3 55/134/3 255/135/3 256/130/3
f 20/136/4 26/86/4 226/89/4 220/137/4
f 186/138/6 191/139/6 192/140/6 187/141/6
f 184/142/2 189/143/2 165/144/2 159/145/2
f 109/146/5 110/147/5 202/148/5 203/149/5
f 183/150/6 188/151/6 189/152/6 184/153/6
f 191/139/6 196/154/6 197/155/6 192/140/6
f 75/156/4 84/157/4 136/158/4 142/159/4
f 186/160/4 181/161/4 154/162/4 160/163/4
f 188/151/6 193/164/6 194/165/6 189/152/6
f 102/166/4 109/167/4 203/168/4 125/169/4
f 194/170/2 198/171/2 208/172/2 205/173/2
f 95/174/2 101/175/2 157/176/2 151/177/2
f 118/178/3 119/179/3 175/180/3 174/181/3
f 69/182/2 74/183/2 133/184/2 128/185/2
f 111/186/4 105/187/4 161/188/4 167/189/4
f 100/190/4 93/191/4 150/192/4 156/193/4
f 59/194/6 60/195/6 94/196/6 87/197/6
f 87/197/6 94/196/6 95/198/6 88/199/6
f 117/200/3 118/178/3 174/181/3 173/201/3
f 86/202/4 79/203/4 138/204/4 144/205/4
f 67/206/4 63/207/4 122/208/4 126/209/4
f 115/210/3 116/211/3 172/212/3 171/213/3
f 61/214/2 65/215/2 124/216/2 120/217/2
f 58/218/6 59/194/6 87/197/6 80/219/6
f 80/219/6 87/197/6 88/199/6 81/220/6
f 101/175/2 107/221/2 163/222/2 157/176/2
f 73/223/4 68/224/4 127/225/4 132/226/4
f 68/227/5 67/228/5 126/229/5 127/230/5
f 112/231/3 113/232/3 169/233/3 168/234/3
f 116/235/4 111/186/4 167/189/4 172/236/4
f 88/237/2 95/174/2 151/177/2 145/238/2
f 74/183/2 81/239/2 139/240/2 133/184/2
f 93/191/4 86/202/4 144/205/4 150/192/4
f 65/241/5 64/242/5 123/243/5 124/244/5
f 106/245/4 100/190/4 156/193/4 162/246/4
f 64/247/2 69/182/2 128/185/2 123/248/2
f 63/249/5 62/250/5 121/251/5 122/252/5
f 79/253/5 78/254/5 137/255/5 138/256/5
f 107/221/2 112/257/2 168/258/2 163/222/2
f 78/259/4 73/223/4 132/226/4 137/260/4
f 62/250/5 61/261/5 120/262/5 121/251/5
f 105/263/3 106/264/3 162/265/3 161/266/3
f 119/267/4 115/268/4 171/269/4 175/270/4
f 81/239/2 88/237/2 145/238/2 139/240/2
f 113/271/2 117/272/2 173/273/2 169/274/2
f 26/86/4 20/136/4 79/203/4 86/202/4
f 55/134/3 56/129/3 118/178/3 117/200/3
f 39/94/4 33/87/4 93/191/4 100/190/4
f 49/71/4 44/132/4 105/187/4 111/186/4
f 11/98/2 16/80/2 74/183/2 69/182/2
f 56/129/3 57/128/3 119/179/3 118/178/3
f 35/75/2 40/50/2 101/175/2 95/174/2
f 51/125/2 55/124/2 117/272/2 113/271/2
f 1/83/2 2/57/2 59/194/2 58/218/2
f 2/57/2 3/60/2 60/195/2 59/194/2
f 57/121/4 53/120/4 115/268/4 119/267/4
f 44/117/3 45/116/3 106/264/3 105/263/3
f 5/102/5 4/114/5 61/261/5 62/250/5
f 19/112/4 15/54/4 73/223/4 78/259/4
f 46/49/2 50/110/2 112/257/2 107/221/2
f 20/107/5 19/106/5 78/254/5 79/253/5
f 6/103/5 5/102/5 62/250/5 63/249/5
f 7/99/2 11/98/2 69/182/2 64/247/2
f 21/275/5 1/276/5 58/277/5 80/278/5
f 45/95/4 39/94/4 100/190/4 106/245/4
f 8/91/5 7/90/5 64/242/5 65/241/5
f 3/279/3 34/280/3 94/281/3 60/282/3
f 33/87/4 26/86/4 86/202/4 93/191/4
f 22/283/5 21/275/5 80/278/5 81/284/5
f 34/280/3 35/285/3 95/286/3 94/281/3
f 16/80/2 22/79/2 81/239/2 74/183/2
f 54/72/4 49/71/4 111/186/4 116/235/4
f 50/68/3 51/67/3 113/232/3 112/231/3
f 10/64/5 9/63/5 67/228/5 68/227/5
f 15/54/4 10/53/4 68/224/4 73/223/4
f 40/50/2 46/49/2 107/221/2 101/175/2
f 4/46/2 8/45/2 65/215/2 61/214/2
f 53/42/3 54/41/3 116/211/3 115/210/3
f 9/38/4 6/37/4 63/207/4 67/206/4
f 158/287/6 164/288/6 160/289/6 154/290/6
f 153/291/6 159/292/6 164/288/6 158/287/6
f 205/293/6 208/294/6 209/295/6 206/296/6
f 206/296/6 209/295/6 210/297/6 207/298/6
f 165/299/6 205/293/6 206/296/6 170/300/6
f 170/300/6 206/296/6 207/298/6 166/301/6
f 159/292/6 165/299/6 170/300/6 164/288/6
f 164/288/6 170/300/6 166/301/6 160/289/6
f 149/302/4 143/303/4 72/304/4 177/305/4
f 175/270/4 171/269/4 196/306/4 200/307/4
f 123/248/2 128/185/2 98/308/2 108/309/2
f 137/310/4 132/311/4 91/312/4 83/313/4
f 127/230/5 126/229/5 102/314/5 99/315/5
f 169/274/2 173/273/2 198/171/2 194/170/2
f 155/316/6 161/317/6 162/318/6 156/319/6
f 151/177/2 157/176/2 183/320/2 178/321/2
f 174/181/3 175/180/3 200/322/3 199/323/3
f 167/324/4 161/325/4 187/326/4 192/327/4
f 139/240/2 145/238/2 71/328/2 82/329/2
f 149/330/6 155/316/6 156/319/6 150/331/6
f 173/201/3 174/181/3 199/323/3 198/332/3
f 124/244/5 123/243/5 108/333/5 104/334/5
f 171/213/3 172/212/3 197/335/3 196/336/3
f 128/185/2 133/184/2 90/337/2 98/308/2
f 143/338/6 149/330/6 150/331/6 144/339/6
f 122/252/5 121/251/5 110/147/5 109/146/5
f 155/340/4 149/302/4 177/305/4 182/341/4
f 126/209/4 122/208/4 109/342/4 102/343/4
f 121/251/5 120/262/5 114/344/5 110/147/5
f 137/345/6 143/338/6 144/339/6 138/346/6
f 143/303/4 137/310/4 83/313/4 72/304/4
f 157/176/2 163/222/2 188/347/2 183/320/2
f 168/234/3 169/233/3 194/348/3 193/349/3
f 172/350/4 167/324/4 192/327/4 197/351/4
f 120/217/2 124/216/2 104/352/2 114/353/2
f 132/311/4 127/354/4 99/355/4 91/312/4
f 145/238/2 151/177/2 178/321/2 71/328/2
f 133/184/2 139/240/2 82/329/2 90/337/2
f 161/325/4 155/340/4 182/341/4 187/326/4
f 163/222/2 168/258/2 193/356/2 188/347/2
f 178/357/6 183/150/6 184/153/6 179/358/6
f 89/359/2 77/360/2 141/361/2 135/362/2
f 179/363/2 184/142/2 159/145/2 153/364/2
f 181/365/6 186/138/6 187/141/6 182/366/6
f 71/367/6 178/357/6 179/358/6 70/368/6
f 199/323/3 200/322/3 210/369/3 209/370/3
f 84/157/4 92/371/4 131/372/4 136/158/4
f 176/373/6 181/365/6 182/366/6 177/374/6
f 82/375/6 71/367/6 70/368/6 77/376/6
f 181/161/4 176/377/4 148/378/4 154/162/4
f 196/379/4 191/380/4 166/381/4 207/382/4
f 75/383/6 176/373/6 177/374/6 72/384/6
f 90/385/6 82/375/6 77/376/6 89/386/6
f 114/353/2 104/352/2 201/387/2 204/388/2
f 198/332/3 199/323/3 209/370/3 208/389/3
f 84/390/6 75/383/6 72/384/6 83/391/6
f 98/392/6 90/385/6 89/386/6 97/393/6
f 97/394/2 89/359/2 135/362/2 130/395/2
f 70/396/2 179/363/2 153/364/2 147/397/2
f 92/398/6 84/390/6 83/391/6 91/399/6
f 108/400/6 98/392/6 97/393/6 104/401/6
f 189/143/2 194/170/2 205/173/2 165/144/2
f 92/371/4 102/166/4 125/169/4 131/372/4
f 102/402/6 92/398/6 91/399/6 99/403/6
f 176/377/4 75/156/4 142/159/4 148/378/4
f 191/380/4 186/160/4 160/163/4 166/381/4
f 147/404/6 153/291/6 158/287/6 152/405/6
f 152/405/6 158/287/6 154/290/6 148/406/6
f 141/407/6 147/404/6 152/405/6 146/408/6
f 146/408/6 152/405/6 148/406/6 142/409/6
f 135/410/6 141/407/6 146/408/6 140/411/6
f 140/411/6 146/408/6 142/409/6 136/412/6
f 130/413/6 135/410/6 140/411/6 134/414/6
f 134/414/6 140/411/6 136/412/6 131/415/6
f 201/416/6 130/413/6 134/414/6 129/417/6
f 129/417/6 134/414/6 131/415/6 125/418/6
f 204/419/6 201/416/6 129/417/6 202/420/6
f 202/420/6 129/417/6 125/418/6 203/421/6
f 77/360/2 70/396/2 147/397/2 141/361/2
f 104/352/2 97/394/2 130/395/2 201/387/2
f 200/422/4 196/379/4 207/382/4 210/423/4
f 110/147/5 114/344/5 204/424/5 202/148/5
f 240/425/1 236/426/1 242/427/1 246/428/1
f 235/429/1 240/425/1 246/428/1 241/430/1
f 283/431/1 284/432/1 287/433/1 286/434/1
f 284/432/1 285/435/1 288/436/1 287/433/1
f 247/437/1 252/438/1 284/432/1 283/431/1
f 252/438/1 248/439/1 285/435/1 284/432/1
f 241/430/1 246/428/1 252/438/1 247/437/1
f 246/428/1 242/427/1 248/439/1 252/438/1
f 257/131/3 256/130/3 277/20/3 278/19/3
f 190/105/5 185/104/5 43/440/5 47/441/5
f 243/442/4 249/443/4 271/444/4 267/445/4
f 227/77/2 221/82/2 23/446/2 13/447/2
f 256/130/3 255/135/3 276/448/3 277/20/3
f 254/44/3 253/43/3 274/449/3 275/450/3
f 237/451/1 238/452/1 244/453/1 243/454/1
f 215/81/2 66/101/2 37/455/2 30/456/2
f 231/457/4 237/458/4 263/459/4 259/460/4
f 180/93/5 103/92/5 52/461/5 48/462/5
f 185/40/4 85/39/4 41/463/4 43/464/4
f 231/465/1 232/466/1 238/452/1 237/451/1
f 219/467/4 225/468/4 14/469/4 24/470/4
f 245/52/2 239/51/2 264/471/2 268/472/2
f 251/70/3 250/69/3 272/473/3 273/474/3
f 249/443/4 254/475/4 275/476/4 271/444/4
f 225/477/1 226/478/1 232/466/1 231/465/1
f 103/48/2 195/47/2 42/479/2 52/480/2
f 76/481/4 214/482/4 31/483/4 38/484/4
f 233/78/2 227/77/2 13/447/2 260/485/2
f 221/82/2 215/81/2 30/456/2 23/446/2
f 219/486/1 220/487/1 226/478/1 225/477/1
f 237/458/4 243/442/4 267/445/4 263/459/4
f 250/111/2 245/52/2 268/472/2 272/488/2
f 225/468/4 231/457/4 259/460/4 14/469/4
f 253/123/4 257/122/4 278/489/4 274/490/4
f 66/101/2 180/100/2 48/491/2 37/455/2
f 214/482/4 219/467/4 24/470/4 31/483/4
f 85/66/5 76/65/5 38/492/5 41/493/5
f 195/115/5 190/105/5 47/441/5 42/494/5
f 255/127/2 251/126/2 273/495/2 276/496/2
f 239/51/2 233/78/2 260/485/2 264/471/2
f 260/497/1 261/498/1 265/14/1 264/13/1
f 52/480/2 42/479/2 279/499/2 282/500/2
f 277/20/3 276/448/3 286/501/3 287/21/3
f 262/502/1 263/503/1 267/2/1 266/1/1
f 13/504/1 12/505/1 261/498/1 260/497/1
f 29/6/2 36/506/2 212/507/2 217/7/2
f 261/10/2 12/508/2 229/509/2 235/11/2
f 258/510/1 259/511/1 263/503/1 262/502/1
f 23/512/1 18/513/1 12/505/1 13/504/1
f 47/441/5 43/440/5 281/514/5 280/515/5
f 273/495/2 269/516/2 247/517/2 283/518/2
f 17/519/1 14/520/1 259/511/1 258/510/1
f 30/521/1 29/522/1 18/513/1 23/512/1
f 41/523/4 32/23/4 213/26/4 96/524/4
f 17/525/4 258/29/4 230/32/4 224/526/4
f 25/527/1 24/528/1 14/520/1 17/519/1
f 37/529/1 36/530/1 29/522/1 30/521/1
f 266/531/4 270/33/4 248/36/4 242/532/4
f 42/494/5 47/441/5 280/515/5 279/533/5
f 32/534/1 31/535/1 24/528/1 25/527/1
f 48/536/1 52/537/1 36/530/1 37/529/1
f 274/34/4 278/538/4 288/539/4 285/35/4
f 36/506/2 52/480/2 282/500/2 212/507/2
f 41/540/1 38/541/1 31/535/1 32/534/1
f 12/508/2 18/5/2 223/8/2 229/509/2
f 269/516/2 265/9/2 241/12/2 247/517/2
f 229/542/1 234/543/1 240/425/1 235/429/1
f 234/543/1 230/544/1 236/426/1 240/425/1
f 223/545/1 228/546/1 234/543/1 229/542/1
f 228/546/1 224/547/1 230/544/1 234/543/1
f 217/548/1 222/549/1 228/546/1 223/545/1
f 222/549/1 218/550/1 224/547/1 228/546/1
f 212/551/1 216/552/1 222/549/1 217/548/1
f 216/552/1 213/553/1 218/550/1 222/549/1
f 282/554/1 211/555/1 216/552/1 212/551/1
f 211/555/1 96/556/1 213/553/1 216/552/1
f 279/557/1 280/558/1 211/555/1 282/554/1
f 280/558/1 281/559/1 96/556/1 211/555/1
f 276/496/2 273/495/2 283/518/2 286/560/2
f 43/561/4 41/562/4 96/563/4 281/564/4
f 262/30/4 266/531/4 242/532/4 236/31/4
f 25/24/4 17/525/4 224/526/4 218/25/4
