# Blender v3.0.0 OBJ File: 'models.blend'
# www.blender.org
mtllib mts_mushroom_brown.mtl
o flowers_mushroom_brown
v 0.079413 -0.500000 0.038809
v 0.038809 -0.500000 -0.079413
v 0.038809 -0.375000 -0.079413
v -0.079413 -0.375000 -0.038809
v -0.079413 -0.500000 -0.038809
v -0.038809 -0.375000 0.079413
v 0.079413 -0.375000 0.038809
v -0.155236 -0.187500 0.317650
v -0.038809 -0.500000 0.079413
v 0.238238 -0.187500 0.116427
v -0.116427 -0.125000 0.238238
v -0.116427 -0.187500 0.238238
v 0.238238 -0.125000 0.116427
v 0.116427 -0.187500 -0.238238
v 0.317650 -0.187500 0.155236
v -0.238238 -0.125000 -0.116427
v -0.238238 -0.187500 -0.116427
v 0.116427 -0.125000 -0.238238
v -0.317650 -0.375000 -0.155236
v 0.155236 -0.375000 -0.317650
v 0.155236 -0.187500 -0.317650
v -0.317650 -0.187500 -0.155236
v 0.317650 -0.375000 0.155236
v -0.155236 -0.375000 0.317650
vt 0.257480 0.311218
vt 0.742520 0.311218
vt 0.742520 0.129328
vt 0.257480 0.129328
vt 0.437500 0.000000
vt 0.562500 0.000000
vt 0.562500 0.125000
vt 0.437500 0.125000
vt 0.750000 0.125000
vt 0.562500 0.125000
vt 0.437500 0.125000
vt 0.250000 0.125000
vt 0.750000 0.125000
vt 0.681890 0.309308
vt 0.318110 0.309308
vt 0.318110 0.369938
vt 0.681890 0.369938
vt 0.687500 0.360568
vt 0.312500 0.360568
vt 0.312500 0.360568
vt 0.687500 0.360568
vt 0.250000 0.125000
vt 0.318110 0.371848
vt 0.681890 0.371848
vt 0.681890 0.311218
vt 0.318110 0.311218
vt 0.437500 0.000000
vt 0.562500 0.000000
vt 0.742520 0.127418
vt 0.257480 0.127418
vt 0.257480 0.309308
vt 0.742520 0.309308
vt 0.439370 0.005663
vt 0.439370 0.129328
vt 0.560630 0.129328
vt 0.560630 0.005663
vt 0.560630 0.127418
vt 0.560630 0.003753
vt 0.439370 0.003753
vt 0.439370 0.127418
vt 0.339725 0.354150
vt 0.364535 0.329340
vt 0.513392 0.329340
vt 0.538201 0.354150
vt 0.410523 0.355996
vt 0.435333 0.331186
vt 0.584190 0.331186
vt 0.608999 0.355996
vt 0.666969 0.370185
vt 0.468493 0.370185
vt 0.493302 0.345376
vt 0.642159 0.345376
vt 0.750000 0.312500
vt 0.250000 0.312500
vt 0.576974 0.333107
vt 0.601783 0.357916
vt 0.403307 0.357916
vt 0.428117 0.333107
vt 0.312500 0.375000
vt 0.687500 0.375000
vt 0.687500 0.312500
vt 0.312500 0.312500
vt 0.750000 0.312500
vt 0.250000 0.312500
vt 0.312500 0.312500
vt 0.687500 0.312500
vt 0.687500 0.375000
vt 0.312500 0.375000
vn 0.9458 0.0000 -0.3248
vn -0.3248 -0.0000 -0.9458
vn 0.0000 1.0000 -0.0000
vn -0.9458 0.0000 0.3248
vn -0.0000 -1.0000 0.0000
vn 0.3248 0.0000 0.9458
g flowers_mushroom_brown_flowers_mushroom_brown_flowers_mushroom_brown
usemtl flowers_mushroom_brown
s off
f 22/1/1 8/2/1 24/3/1 19/4/1
f 1/5/2 9/6/2 6/7/2 7/8/2
f 19/9/3 4/10/3 3/11/3 20/12/3
f 24/13/3 6/7/3 4/10/3 19/9/3
f 14/14/4 10/15/4 13/16/4 18/17/4
f 16/18/5 18/19/5 13/20/5 11/21/5
f 6/7/3 24/13/3 23/22/3 7/8/3
f 16/23/1 11/24/1 12/25/1 17/26/1
f 2/27/3 5/28/3 9/6/3 1/5/3
f 20/29/4 23/30/4 15/31/4 21/32/4
f 5/33/1 4/34/1 6/35/1 9/36/1
f 3/37/4 2/38/4 1/39/4 7/40/4
f 8/41/5 12/42/5 10/43/5 15/44/5
f 15/45/5 10/46/5 14/47/5 21/48/5
f 22/49/5 21/50/5 14/51/5 17/52/5
f 22/53/6 19/9/6 20/12/6 21/54/6
f 12/55/5 8/56/5 22/57/5 17/58/5
f 18/59/6 16/60/6 17/61/6 14/62/6
f 24/13/2 8/63/2 15/64/2 23/22/2
f 4/10/6 5/28/6 2/27/6 3/11/6
f 10/65/2 12/66/2 11/67/2 13/68/2
f 20/12/3 3/11/3 7/8/3 23/22/3
