# Blender v3.0.0 OBJ File: 'models.blend'
# www.blender.org
mtllib small_log_with_branches.mtl
o Cube.029_Cube.045
v -0.300000 -0.500000 0.300000
v -0.300000 0.500000 0.300000
v -0.300000 -0.500000 -0.300000
v -0.300000 0.500000 -0.300000
v 0.300000 -0.500000 0.300000
v 0.300000 0.500000 0.300000
v 0.300000 -0.500000 -0.300000
v 0.300000 0.500000 -0.300000
v 0.500000 -0.134820 0.134820
v -0.500000 -0.134820 0.134820
v 0.500000 -0.134820 -0.134820
v -0.500000 -0.134820 -0.134820
v 0.500000 0.134820 0.134820
v -0.500000 0.134820 0.134820
v 0.500000 0.134820 -0.134820
v -0.500000 0.134820 -0.134820
vt 0.000000 1.000000
vt 0.000000 0.000000
vt 1.000000 0.000000
vt 1.000000 1.000000
vt 0.000000 1.000000
vt 0.000000 0.000000
vt 1.000000 0.000000
vt 1.000000 1.000000
vt 0.000000 1.000000
vt 0.000000 0.000000
vt 1.000000 0.000000
vt 1.000000 1.000000
vt 0.000000 1.000000
vt 0.000000 0.000000
vt 1.000000 0.000000
vt 1.000000 1.000000
vt 0.250000 1.000000
vt 0.250000 0.000000
vt 0.750000 0.000000
vt 0.750000 1.000000
vt 0.250000 1.000000
vt 0.250000 0.000000
vt 0.750000 0.000000
vt 0.750000 1.000000
vt 0.250000 1.000000
vt 0.250000 0.000000
vt 0.750000 0.000000
vt 0.750000 1.000000
vt 0.250000 1.000000
vt 0.250000 0.000000
vt 0.750000 0.000000
vt 0.750000 1.000000
vt 0.000000 0.000000
vt 1.000000 0.000000
vt 0.000000 1.000000
vt 1.000000 1.000000
vt 0.000000 1.000000
vt 0.000000 0.000000
vt 1.000000 0.000000
vt 1.000000 1.000000
vt 0.000000 1.000000
vt 0.000000 0.000000
vt 1.000000 0.000000
vt 1.000000 1.000000
vn -1.0000 0.0000 0.0000
vn 0.0000 0.0000 -1.0000
vn 1.0000 0.0000 0.0000
vn 0.0000 0.0000 1.0000
vn 0.0000 -1.0000 0.0000
vn -0.0000 1.0000 0.0000
g Cube.029_Cube.045_Material.045
usemtl Material.045
s off
f 1/1/1 2/2/1 4/3/1 3/4/1
f 3/5/2 4/6/2 8/7/2 7/8/2
f 7/9/3 8/10/3 6/11/3 5/12/3
f 5/13/4 6/14/4 2/15/4 1/16/4
f 9/17/5 10/18/5 12/19/5 11/20/5
f 11/21/2 12/22/2 16/23/2 15/24/2
f 15/25/6 16/26/6 14/27/6 13/28/6
f 13/29/4 14/30/4 10/31/4 9/32/4
g Cube.029_Cube.045_Material.046
usemtl Material.046
f 3/5/5 7/33/5 5/34/5 1/16/5
f 8/35/6 4/6/6 2/15/6 6/36/6
f 11/37/3 15/38/3 13/39/3 9/40/3
f 16/41/1 12/42/1 10/43/1 14/44/1
