# Blender v3.0.0 OBJ File: 'models.blend'
# www.blender.org
mtllib apple_leaf.mtl
o Block.001_Cube.011
v -0.497214 -0.497214 0.497214
v -0.497214 0.497214 0.497214
v -0.497214 -0.497214 -0.497214
v -0.497214 0.497214 -0.497214
v 0.497214 -0.497214 0.497214
v 0.497214 0.497214 0.497214
v 0.497214 -0.497214 -0.497214
v 0.497214 0.497214 -0.497214
vt 1.000000 0.000000
vt 1.000000 1.000000
vt 0.000000 1.000000
vt 0.000000 0.000000
vt 1.000000 0.000000
vt 1.000000 1.000000
vt 0.000000 1.000000
vt 0.000000 0.000000
vt 0.000000 0.000000
vt 1.000000 0.000000
vt 1.000000 1.000000
vt 0.000000 1.000000
vt 0.000000 0.000000
vt 1.000000 0.000000
vt 1.000000 1.000000
vt 0.000000 1.000000
vt 0.000000 0.000000
vt 1.000000 0.000000
vt 1.000000 1.000000
vt 0.000000 1.000000
vn 0.0000 0.0000 -1.0000
vn 0.0000 0.0000 1.0000
vn -1.0000 0.0000 0.0000
vn 1.0000 0.0000 0.0000
vn 0.0000 1.0000 0.0000
vn 0.0000 -1.0000 0.0000
g Block.001_Cube.011_Material.014
usemtl Material.014
s off
f 3/1/1 4/2/1 8/3/1 7/4/1
f 5/5/2 6/6/2 2/7/2 1/8/2
f 3/9/3 1/10/3 2/11/3 4/12/3
f 5/13/4 7/14/4 8/15/4 6/16/4
f 4/17/5 2/18/5 6/6/5 8/3/5
f 7/4/6 5/5/6 1/19/6 3/20/6
o Plane.002
v -0.077155 0.293000 0.464745
v -0.077155 -0.293000 0.464745
v -0.077155 0.293000 -0.121255
v -0.077155 -0.293000 -0.121255
v 0.215845 0.293000 0.171745
v 0.215845 -0.293000 0.171745
v -0.370155 0.293000 0.171745
v -0.370155 -0.293000 0.171745
vt 0.000000 1.000000
vt 0.000000 0.000000
vt 1.000000 0.000000
vt 1.000000 1.000000
vt 0.000000 1.000000
vt 0.000000 0.000000
vt 1.000000 0.000000
vt 1.000000 1.000000
vn 1.0000 0.0000 0.0000
vn -0.0000 0.0000 -1.0000
g Plane.002_Plane.002_Material.020
usemtl Material.020
s off
f 9/21/7 10/22/7 12/23/7 11/24/7
f 13/25/8 14/26/8 16/27/8 15/28/8
