# Blender v3.0.0 OBJ File: 'models.blend'
# www.blender.org
mtllib nbt_broken_log.mtl
o Cube.061_Cube.083
v -0.500000 -0.500000 0.500000
v -0.500000 0.247147 0.500000
v -0.500000 -0.500000 -0.500000
v -0.500000 0.247147 -0.500000
v 0.500000 -0.500000 0.500000
v 0.500000 0.247147 0.500000
v 0.500000 -0.500000 -0.500000
v 0.500000 0.247147 -0.500000
v -0.500000 0.247147 0.500000
v -0.500000 0.247147 -0.500000
v 0.500000 0.247147 -0.500000
v 0.500000 0.247147 0.500000
v -0.489903 0.500000 0.489903
v -0.489903 0.500000 -0.489903
v 0.489903 0.500000 -0.489903
v 0.489903 0.500000 0.489903
vt 0.000000 1.000000
vt 0.000000 0.252853
vt 1.000000 0.252853
vt 1.000000 1.000000
vt 0.000000 1.000000
vt 0.000000 0.252853
vt 1.000000 0.252853
vt 1.000000 1.000000
vt 0.000000 1.000000
vt 0.000000 0.252853
vt 1.000000 0.252853
vt 1.000000 1.000000
vt 0.000000 1.000000
vt 0.000000 0.252853
vt 1.000000 0.252853
vt 1.000000 1.000000
vt 0.000000 0.000000
vt 1.000000 0.000000
vt 0.000000 1.000000
vt 0.000000 0.000000
vt 1.000000 0.000000
vt 1.000000 1.000000
vt 0.000000 0.000000
vt 1.000000 0.000000
vt 1.000000 0.252853
vt 0.000000 0.252853
vt 0.000000 0.000000
vt 1.000000 0.000000
vt 1.000000 0.252853
vt 0.000000 0.252853
vt 0.998474 0.003077
vt -0.001526 0.003077
vt -0.001526 0.255929
vt 0.998474 0.255930
vn 0.0000 0.0000 1.0000
vn 1.0000 0.0000 0.0000
vn 0.0000 0.0000 -1.0000
vn -1.0000 0.0000 0.0000
vn 0.0000 -1.0000 0.0000
vn 0.0000 1.0000 0.0000
vn -0.9992 0.0399 0.0000
vn 0.0000 0.0399 -0.9992
vn 0.0000 0.0399 0.9992
g Cube.061_Cube.083_Material.050
usemtl Material.050
s off
f 5/1/1 12/2/1 9/3/1 1/4/1
f 7/5/2 11/6/2 12/7/2 5/8/2
f 3/9/3 10/10/3 11/11/3 7/12/3
f 1/13/4 9/14/4 10/15/4 3/16/4
g Cube.061_Cube.083_Material.049
usemtl Material.049
f 3/9/5 7/17/5 5/18/5 1/4/5
f 8/19/6 4/20/6 2/21/6 6/22/6
g Cube.061_Cube.083_Material.048
usemtl Material.048
f 10/23/7 9/24/7 13/25/7 14/26/7
f 11/27/8 10/28/8 14/29/8 15/30/8
f 9/31/9 12/32/9 16/33/9 13/34/9
