# Blender v3.0.0 OBJ File: 'models.blend'
# www.blender.org
mtllib bush_blossom.mtl
o Cube.023_Cube.037
v 0.438752 0.438631 -0.438404
v 0.431676 -0.431483 -0.431329
v 0.379822 0.379692 0.379803
v 0.461938 -0.461749 0.461909
v -0.452684 0.452910 -0.452680
v -0.446240 -0.446395 -0.446237
v -0.439524 0.439748 0.439843
v -0.412795 -0.412945 0.413118
v 0.000173 0.466472 0.467417
v 0.000173 -0.486904 0.487966
v 0.507621 0.000035 0.507609
v 0.541981 0.541844 0.000161
v 0.495461 -0.495253 0.000161
v 0.556015 0.000035 -0.555681
v 0.000173 0.408277 -0.408770
v 0.000173 -0.455369 -0.456039
v -0.446938 0.000035 -0.446949
v -0.443241 0.443449 0.000161
v -0.461186 0.000035 0.461520
v -0.518992 -0.519129 0.000161
v -0.501681 0.000035 0.000161
v 0.000173 0.000035 -0.502199
v 0.517729 0.000035 0.000161
v 0.000173 0.000035 0.522579
v 0.000173 -0.535583 0.000161
v 0.000173 0.503482 0.000161
v -0.213308 0.515760 0.516346
v 0.212909 -0.456974 0.457558
v 0.465787 -0.212690 0.465753
v 0.467989 0.467876 0.213150
v 0.469689 -0.469506 -0.212850
v 0.502657 -0.213129 -0.502295
v 0.212817 0.449780 -0.449964
v -0.212572 -0.457586 -0.457849
v -0.497324 -0.213070 -0.497308
v -0.488199 0.488434 -0.213103
v -0.454548 0.212631 0.454862
v -0.536085 -0.536259 0.214067
v 0.213103 0.472293 0.472826
v -0.212754 -0.472010 0.472613
v 0.440778 0.212463 0.440749
v 0.502243 0.502135 -0.213287
v 0.452437 -0.452250 0.212941
v 0.491113 0.213062 -0.490752
v -0.212661 0.464750 -0.464951
v 0.213629 -0.513742 -0.514075
v -0.463102 0.212733 -0.463092
v -0.448253 0.448482 0.212890
v -0.482684 -0.212896 0.482992
v -0.485999 -0.486164 -0.213074
v -0.535066 0.000035 -0.224565
v -0.606681 0.000035 0.224691
v -0.481256 -0.225031 0.000161
v -0.529179 0.224989 0.000161
v 0.224678 0.000035 -0.615564
v -0.224799 0.000035 -0.445808
v 0.000173 -0.224780 -0.519519
v 0.000173 0.225036 -0.461230
v 0.663193 0.000035 0.224536
v 0.462009 0.000035 -0.224767
v 0.543021 -0.224887 0.000161
v 0.629990 0.224753 0.000161
v -0.224518 0.000035 0.548269
v 0.224738 0.000035 0.593991
v 0.000173 -0.224675 0.552741
v 0.000173 0.224687 0.571039
v 0.000173 -0.614883 0.224906
v 0.000173 -0.520641 -0.224765
v -0.224667 -0.577615 0.000161
v 0.225287 -0.461152 0.000161
v 0.000173 0.569408 0.224994
v 0.000173 0.595869 -0.224621
v 0.225126 0.529402 0.000161
v -0.224834 0.506887 0.000161
v -0.239754 0.664588 -0.236288
v 0.239426 0.621995 -0.235646
v 0.237635 0.508755 0.234262
v 0.239087 -0.600501 -0.235323
v -0.238859 -0.607916 -0.235435
v -0.236566 -0.462975 0.233573
v 0.233566 0.236753 0.464174
v 0.235587 -0.238803 0.600865
v -0.235107 -0.238661 0.591737
v 0.509123 0.237539 -0.233859
v 0.497545 -0.237282 -0.233690
v 0.525894 -0.237737 0.234425
v -0.234481 0.238075 -0.549076
v -0.233774 -0.237263 -0.501314
v 0.234609 -0.237777 -0.534424
v -0.449945 0.236595 0.233324
v -0.553939 -0.238192 0.234839
v -0.548800 -0.238110 -0.234442
v -0.582463 0.238720 -0.234932
v 0.234132 0.237347 -0.502127
v 0.594070 0.238901 0.235418
v -0.234312 0.237898 0.537996
v 0.237063 -0.472513 0.233717
v -0.238398 0.578839 0.235318
v -0.413719 -0.500000 0.293388
v 0.288432 -0.500000 -0.418675
v -0.368866 0.500000 0.338240
v 0.319594 0.500000 -0.387512
v 0.272202 -0.500000 0.434904
v -0.480334 -0.500000 -0.226773
v 0.354873 0.500000 0.352234
v -0.320070 0.500000 -0.387037
v 0.282478 -0.510773 0.425738
v 0.506703 -0.567067 0.312108
v 0.409285 -0.409564 0.625825
v 0.633510 -0.465858 0.512195
v -0.409189 0.358407 0.377974
v -0.176509 0.457880 0.426171
v -0.453836 0.340237 0.631024
v -0.221156 0.439710 0.679220
v 0.637424 0.257755 0.511298
v 0.539300 0.417668 0.334784
v 0.424832 0.112871 0.498220
v 0.326708 0.272784 0.321706
v -0.701361 -0.078363 0.078609
v -0.611561 0.029609 -0.137344
v -0.462235 -0.086311 0.174072
v -0.372435 0.021662 -0.041880
v -0.513022 0.464277 -0.000265
v -0.307041 0.392497 0.136765
v -0.667481 0.356348 0.175381
v -0.461500 0.284568 0.312410
v 0.304881 -0.185945 -0.562207
v 0.474312 -0.243713 -0.376968
v 0.498912 -0.133572 -0.723348
v 0.668344 -0.191340 -0.538109
v 0.497366 -0.160687 -0.695139
v 0.522136 0.094757 -0.717336
v 0.591149 -0.148957 -0.455504
v 0.615919 0.106487 -0.477701
v -0.285405 0.407190 -0.382082
v -0.084808 0.538965 -0.475644
v -0.228330 0.209904 -0.537575
v -0.027732 0.341678 -0.631136
v 0.408242 -0.131169 0.319254
v 0.417144 -0.339111 0.471040
v 0.618343 -0.037530 0.435214
v 0.627245 -0.245471 0.587000
v 0.499578 0.124555 0.601652
v 0.480011 -0.128008 0.648413
v 0.605898 0.073901 0.372550
v 0.586331 -0.178662 0.419311
v 0.685574 -0.000739 0.455408
v 0.749651 -0.205511 0.312858
v 0.447874 -0.006109 0.356275
v 0.511950 -0.210881 0.213725
v 0.559821 0.301374 0.122784
v 0.756668 0.179414 0.009936
v 0.504298 0.417989 -0.100097
v 0.701145 0.296028 -0.212946
v -0.490576 0.108133 0.378242
v -0.339065 0.065426 0.582150
v -0.605013 -0.119613 0.415573
v -0.453502 -0.162321 0.619480
v 0.050296 -0.191402 0.728269
v 0.219921 0.001864 0.743543
v 0.103065 -0.217899 0.477528
v 0.272691 -0.024634 0.492802
v -0.358389 -0.496699 0.390896
v -0.227033 -0.669452 0.529675
v -0.149593 -0.346177 0.380639
v -0.018237 -0.518930 0.519418
v 0.008166 -0.698783 0.471375
v -0.069571 -0.552254 0.668464
v 0.015465 -0.490770 0.319603
v -0.062273 -0.344241 0.516691
v -0.058614 -0.633902 0.008028
v -0.282266 -0.622339 -0.119265
v 0.066072 -0.557717 -0.204120
v -0.157581 -0.546154 -0.331414
v 0.247289 -0.622929 0.094361
v 0.405785 -0.641225 -0.107881
v 0.176156 -0.387634 0.017329
v 0.334652 -0.405930 -0.184913
v 0.028002 0.667934 0.401450
v 0.009446 0.427559 0.310712
v 0.044691 0.576025 0.641516
v 0.026134 0.335650 0.550779
v 0.218167 0.745744 -0.214299
v 0.253368 0.508738 -0.119713
v -0.037004 0.712080 -0.203686
v -0.001802 0.475074 -0.109100
v -0.413093 0.679381 -0.046418
v -0.180190 0.655053 0.060923
v -0.388955 0.445559 -0.151785
v -0.156052 0.421230 -0.044445
v -0.572709 0.610450 -0.047566
v -0.561424 0.392462 0.089224
v -0.329536 0.574660 -0.124663
v -0.318252 0.356671 0.012128
v -0.472979 0.677522 -0.039540
v -0.397490 0.431300 -0.033718
v -0.385364 0.698677 -0.280857
v -0.309874 0.452455 -0.275034
v -0.403385 0.532627 0.091499
v -0.296082 0.731596 -0.032012
v -0.273063 0.369015 -0.058850
v -0.165760 0.567984 -0.182361
v -0.654394 0.595284 -0.260396
v -0.500018 0.455316 -0.411838
v -0.467248 0.610918 -0.084073
v -0.312872 0.470950 -0.235515
v 0.445275 0.511561 -0.009998
v 0.418494 0.754977 -0.089929
v 0.337836 0.427932 -0.228678
v 0.311056 0.671349 -0.308609
v 0.547537 0.424642 -0.145273
v 0.637853 0.665311 -0.128554
v 0.378334 0.475109 0.042294
v 0.468650 0.715778 0.059013
v 0.284947 0.742722 0.029203
v 0.254248 0.615434 -0.192637
v 0.301518 0.518769 0.155410
v 0.270819 0.391481 -0.066430
v 0.408714 0.590444 -0.546844
v 0.353043 0.350606 -0.471107
v 0.336510 0.679990 -0.316353
v 0.280839 0.440151 -0.240616
v 0.154209 0.638367 -0.114166
v 0.353763 0.530227 -0.235992
v 0.053631 0.708119 -0.340829
v 0.253185 0.599979 -0.462656
v 0.221006 0.658097 0.348504
v 0.441477 0.622527 0.220108
v 0.120600 0.450562 0.233588
v 0.341071 0.414991 0.105193
v 0.241916 0.644124 -0.000712
v 0.220544 0.420851 0.125977
v -0.008952 0.689259 0.036509
v -0.030325 0.465985 0.163198
v -0.055493 -0.409577 -0.236879
v 0.053880 -0.485904 -0.457263
v 0.035110 -0.619968 -0.119047
v 0.144483 -0.696296 -0.339432
v 0.350262 -0.665334 -0.149007
v 0.164547 -0.487076 -0.158600
v 0.278917 -0.752137 -0.380811
v 0.093203 -0.573879 -0.390403
v 0.210999 -0.536542 -0.262260
v 0.289159 -0.492735 -0.503776
v -0.023910 -0.596692 -0.349194
v 0.054250 -0.552885 -0.590709
v 0.371594 -0.605416 -0.460490
v 0.418488 -0.707796 -0.228807
v 0.164719 -0.484940 -0.365380
v 0.211613 -0.587320 -0.133697
v -0.097618 -0.624764 -0.054988
v -0.265263 -0.742913 0.100877
v -0.284902 -0.468624 -0.138069
v -0.452547 -0.586772 0.017796
v -0.453279 -0.435203 -0.103079
v -0.523180 -0.681369 -0.132636
v -0.216132 -0.492626 -0.185673
v -0.286034 -0.738793 -0.215230
v -0.602402 -0.429460 -0.338006
v -0.570584 -0.612957 -0.160034
v -0.350448 -0.437241 -0.391073
v -0.318630 -0.620739 -0.213101
v -0.371660 -0.513569 -0.383216
v -0.312721 -0.764019 -0.370607
v -0.250563 -0.473801 -0.159359
v -0.191625 -0.724251 -0.146750
v -0.415448 -0.671870 -0.460320
v -0.349714 -0.447268 -0.567980
v -0.339603 -0.583862 -0.230407
v -0.273869 -0.359260 -0.338067
v -0.419638 -0.698874 -0.311752
v -0.283672 -0.482028 -0.282617
v -0.637360 -0.568171 -0.268490
v -0.501394 -0.351325 -0.239355
v -0.005939 -0.726896 -0.201260
v -0.106602 -0.513100 -0.098713
v 0.048024 -0.597759 -0.417522
v -0.052638 -0.383962 -0.314975
v -0.051926 -0.738182 0.162708
v -0.183751 -0.529428 0.236205
v -0.027544 -0.639457 -0.073970
v -0.159369 -0.430703 -0.000473
v 0.363256 0.211411 0.597942
v 0.445921 -0.025103 0.657819
v 0.137239 0.113367 0.522699
v 0.219904 -0.123148 0.582577
v 0.249015 0.628492 0.413929
v 0.387336 0.508247 0.594943
v 0.097500 0.421311 0.392081
v 0.235822 0.301066 0.573095
v 0.325148 -0.503108 0.555160
v 0.503787 -0.425902 0.386385
v 0.309811 -0.263514 0.648528
v 0.488450 -0.186309 0.479753
v 0.116888 -0.402051 0.581512
v 0.357680 -0.314894 0.609446
v 0.197951 -0.568646 0.402536
v 0.438744 -0.481488 0.430469
v 0.401187 -0.367901 0.693012
v 0.193558 -0.437432 0.557317
v 0.337533 -0.120051 0.663410
v 0.129904 -0.189582 0.527714
v 0.512892 -0.212173 0.451445
v 0.554777 -0.436846 0.570297
v 0.258821 -0.252571 0.464617
v 0.300706 -0.477243 0.583468
v 0.317671 -0.032615 0.551596
v 0.451804 -0.251589 0.531186
v 0.138617 -0.155232 0.690385
v 0.272750 -0.374205 0.669976
v -0.095595 -0.199646 0.704584
v -0.221196 -0.148281 0.485623
v -0.234548 -0.414569 0.733874
v -0.360149 -0.363204 0.514913
v 0.078536 -0.409618 0.635173
v -0.048547 -0.186967 0.609992
v -0.111414 -0.532023 0.511504
v -0.238497 -0.309372 0.486323
v -0.022123 -0.203316 0.579055
v -0.228482 -0.097856 0.466574
v -0.174293 -0.312308 0.756038
v -0.380652 -0.206848 0.643557
v 0.706448 0.484574 -0.209939
v 0.506941 0.322728 -0.190944
v 0.550048 0.666314 -0.304106
v 0.350542 0.504468 -0.285112
v 0.652253 -0.245178 -0.422131
v 0.410192 -0.180638 -0.362142
v 0.679383 -0.023731 -0.550907
v 0.437321 0.040809 -0.490918
v 0.604271 -0.339022 -0.393011
v 0.436277 -0.322831 -0.198400
v 0.614563 -0.081931 -0.405516
v 0.446568 -0.065740 -0.210904
v 0.396147 0.117974 -0.294398
v 0.541613 0.033752 -0.099195
v 0.457280 -0.091989 -0.430544
v 0.602745 -0.176211 -0.235342
v 0.437912 -0.216128 0.221312
v 0.411308 -0.294953 0.465108
v 0.613896 -0.399895 0.181100
v 0.587291 -0.478721 0.424895
v 0.359945 -0.338121 0.138577
v 0.385214 -0.579973 0.223589
v 0.615493 -0.307574 0.149523
v 0.640762 -0.549425 0.234535
v 0.498703 -0.057635 0.194534
v 0.656937 -0.067604 0.397562
v 0.696583 0.008793 0.043574
v 0.854816 -0.001177 0.246603
v 0.692088 0.040591 0.103117
v 0.681350 -0.152768 -0.066749
v 0.490628 -0.058901 0.229105
v 0.479891 -0.252261 0.059239
v 0.036378 0.165571 -0.411891
v 0.028082 0.124912 -0.666126
v -0.117640 -0.037481 -0.374392
v -0.125936 -0.078140 -0.628627
v -0.324244 0.382514 -0.624091
v -0.196008 0.184792 -0.728106
v -0.335425 0.257052 -0.399386
v -0.207189 0.059330 -0.503402
v -0.483348 0.447276 -0.354753
v -0.557567 0.384459 -0.593297
v -0.244704 0.365938 -0.407584
v -0.318924 0.303120 -0.646128
v -0.212830 -0.549741 -0.621858
v -0.394900 -0.568806 -0.440626
v -0.158900 -0.310668 -0.542529
v -0.340969 -0.329733 -0.361297
v 0.652656 -0.160982 -0.567557
v 0.495217 -0.175020 -0.364152
v 0.510320 -0.337417 -0.689904
v 0.352881 -0.351455 -0.486499
v 0.055208 -0.436861 -0.694768
v 0.058346 -0.193166 -0.611335
v 0.101448 -0.519477 -0.455197
v 0.104586 -0.275783 -0.371764
v 0.098317 -0.423237 -0.687068
v 0.346013 -0.455905 -0.624319
v 0.028121 -0.508366 -0.454295
v 0.275817 -0.541034 -0.391546
v 0.229781 -0.164623 -0.698894
v 0.084693 -0.197564 -0.488603
v 0.369689 -0.371179 -0.634722
v 0.224601 -0.404120 -0.424431
v 0.156291 -0.215312 -0.440185
v 0.159953 -0.202817 -0.697456
v 0.002509 -0.008800 -0.432345
v 0.006171 0.003695 -0.689616
v -0.526566 -0.103983 -0.059785
v -0.370664 0.042389 0.083839
v -0.726421 0.044883 0.005442
v -0.570520 0.191255 0.149066
v -0.602758 0.333977 0.173567
v -0.596600 0.079146 0.210733
v -0.390756 0.360099 0.317547
v -0.384598 0.105269 0.354713
v -0.563037 0.475699 0.508172
v -0.462321 0.502677 0.272617
v -0.485095 0.230228 0.513383
v -0.384380 0.257207 0.277828
v -0.647489 0.317980 0.342426
v -0.414944 0.403884 0.412432
v -0.538538 0.170477 0.161511
v -0.305992 0.256380 0.231517
v -0.358590 -0.191982 0.032954
v -0.563597 -0.220618 0.186283
v -0.475264 -0.331889 -0.149174
v -0.680271 -0.360526 0.004155
v -0.509312 -0.236675 0.066555
v -0.401305 -0.387457 0.245321
v -0.722043 -0.381816 0.072662
v -0.614037 -0.532598 0.251428
v -0.494312 -0.582519 -0.327429
v -0.692691 -0.434264 -0.256551
v -0.364517 -0.509296 -0.117311
v -0.562896 -0.361040 -0.046434
v -0.569819 0.183019 -0.303991
v -0.544743 0.376315 -0.472412
v -0.450751 0.024371 -0.468342
v -0.425674 0.217667 -0.636763
v -0.564337 0.260154 -0.189768
v -0.388997 0.191858 -0.365692
v -0.726726 0.083210 -0.282926
v -0.551386 0.014914 -0.458850
v -0.739071 0.062216 -0.256839
v -0.510746 0.161629 -0.322734
v -0.626264 -0.071579 -0.067813
v -0.397938 0.027834 -0.133708
v -0.783054 0.174187 -0.226467
v -0.560220 0.048402 -0.256153
v -0.654520 0.396053 -0.201729
v -0.431686 0.270268 -0.231414
v -0.562249 0.247298 -0.198778
v -0.455122 0.481159 -0.212592
v -0.598152 0.278698 0.054368
v -0.491025 0.512558 0.040554
v 0.335889 0.062539 -0.558232
v 0.545358 0.070474 -0.408506
v 0.484171 0.013472 -0.763080
v 0.693639 0.021407 -0.613355
v 0.358660 0.094441 -0.533514
v 0.336362 0.326671 -0.642737
v 0.119491 0.115388 -0.440148
v 0.097193 0.347618 -0.549371
v 0.135154 0.149435 -0.359933
v -0.036654 0.272928 -0.506866
v 0.199733 0.000925 -0.560263
v 0.027924 0.124417 -0.707196
v 0.397896 0.133391 0.465493
v 0.615000 0.155131 0.602428
v 0.495540 -0.071204 0.343164
v 0.712644 -0.049464 0.480099
v 0.316459 0.223734 0.398900
v 0.445621 0.282248 0.613960
v 0.529414 0.117988 0.299774
v 0.658576 0.176503 0.514835
v 0.559218 0.026656 0.207505
v 0.724250 -0.002978 0.011944
v 0.537972 0.277218 0.151606
v 0.703004 0.247584 -0.043954
v 0.636768 0.401102 0.348390
v 0.654919 0.149485 0.296263
v 0.572910 0.447303 0.103144
v 0.591061 0.195686 0.051017
v -0.206084 0.642626 0.424191
v -0.047625 0.559329 0.609420
v -0.374512 0.457446 0.485002
v -0.216053 0.374149 0.670232
v 0.044642 -0.672447 0.000962
v 0.159918 -0.456824 -0.080131
v 0.113858 -0.618376 0.243126
v 0.229134 -0.402753 0.162033
v -0.000623 -0.703492 0.044348
v 0.220654 -0.647357 0.163694
v -0.131100 -0.576311 0.226442
v 0.090177 -0.520176 0.345788
v -0.187642 0.665445 0.381821
v -0.221152 0.410590 0.398674
v -0.180889 0.681553 0.638828
v -0.214399 0.426698 0.655681
v 0.007736 0.507614 0.420374
v -0.109914 0.736686 0.426873
v -0.165372 0.423565 0.249122
v -0.283022 0.652637 0.255621
v 0.047050 0.680229 0.442502
v -0.054219 0.542586 0.635262
v -0.029979 0.501124 0.274141
v -0.131249 0.363481 0.466901
v -0.284660 0.487670 0.105693
v -0.360083 0.563553 0.340024
v -0.084178 0.648957 0.117992
v -0.159601 0.724840 0.352322
v -0.030144 0.627039 -0.049392
v -0.082748 0.692631 0.194100
v -0.191606 0.427217 -0.030445
v -0.244210 0.492809 0.213047
v 0.030439 0.756548 0.178042
v 0.120491 0.517877 0.213886
v -0.210514 0.665453 0.176832
v -0.120461 0.426782 0.212676
v -0.545011 0.522616 0.059742
v -0.510011 0.644283 0.284085
v -0.386497 0.334783 0.136879
v -0.351497 0.456451 0.361222
v 0.291879 -0.267279 0.665391
v 0.221033 -0.249721 0.672153
v -0.636799 0.343648 -0.274160
v 0.282041 0.685590 -0.556590
v -0.678924 0.170780 -0.025914
v 0.237550 -0.179066 0.661754
v 0.308396 -0.196624 0.654992
v -0.564398 0.581244 -0.096424
v -0.606523 0.408376 0.151823
v 0.386533 -0.398776 0.740390
v 0.455356 -0.104379 0.697058
v 0.463146 0.367193 -0.567323
v 0.500526 0.800739 -0.285859
v 0.681631 0.482343 -0.296592
v 0.091341 -0.325620 0.768565
v 0.160164 -0.031223 0.725233
v 0.144898 0.620942 0.178112
v 0.124837 0.637464 0.094090
v 0.207335 0.618065 0.070578
v 0.227396 0.601543 0.154600
v 0.424021 0.499694 -0.403613
v 0.380556 0.576109 -0.401037
v -0.540359 0.406093 -0.071518
v -0.557736 0.349070 -0.114175
v -0.567846 0.307582 -0.054596
v 0.068033 0.706173 0.358986
v -0.015554 0.775015 0.008894
v 0.411777 0.625343 0.261020
v 0.432992 0.603745 -0.336062
v 0.328190 0.694185 -0.089072
v 0.476457 0.527330 -0.338637
v -0.550469 0.364605 -0.011939
v -0.504182 0.010724 -0.460104
v -0.257114 -0.246922 -0.542964
v -0.275917 0.269377 -0.583735
v -0.028849 0.011730 -0.666595
v -0.230813 -0.043428 -0.481431
v -0.290110 0.018407 -0.461545
v -0.235326 0.080484 -0.491216
v -0.176030 0.018648 -0.511102
v 0.573892 -0.141023 -0.315389
v 0.572650 -0.503934 -0.264552
v 0.640237 -0.091248 0.041558
v 0.638995 -0.454159 0.092395
v 0.515436 -0.344718 -0.133156
v 0.515734 -0.257620 -0.145357
v 0.531656 -0.245674 -0.059690
v 0.531358 -0.332772 -0.047489
v 0.149628 0.515204 0.645997
v 0.217011 0.155079 0.653717
v -0.208827 0.448939 0.683529
v -0.141445 0.088814 0.691249
v 0.047030 0.263422 0.581217
v 0.030858 0.349852 0.579364
v -0.055172 0.333948 0.588372
v -0.039000 0.247518 0.590225
v -0.623055 0.029756 0.261214
v -0.635988 -0.333984 0.303829
v -0.686419 -0.010020 -0.097524
v -0.699352 -0.373760 -0.054909
v -0.572185 -0.215485 0.137171
v -0.569081 -0.128187 0.126944
v -0.584288 -0.137733 0.040846
v -0.587392 -0.225031 0.051074
v 0.658875 0.238074 0.215354
v 0.656641 0.271185 0.280713
v 0.629322 0.331483 0.249232
v 0.631556 0.298371 0.183873
v 0.770823 0.114441 0.151648
v 0.656993 0.365680 0.020477
v 0.761516 0.252407 0.423977
v 0.647686 0.503645 0.292805
v 0.227864 -0.101065 -0.608279
v 0.261315 -0.036327 -0.600336
v 0.198066 -0.001950 -0.614157
v 0.164615 -0.066689 -0.622100
v 0.290311 -0.257475 -0.667543
v 0.026776 -0.114238 -0.725129
v 0.429691 0.012270 -0.634449
v 0.166155 0.155506 -0.692035
v -0.487682 0.572118 0.036822
v -0.520428 0.514114 0.334894
v -0.213410 0.695142 0.090893
v -0.246156 0.637138 0.388966
v -0.300099 0.563450 0.174666
v -0.365924 0.533924 0.161689
v -0.373783 0.520003 0.233227
v -0.307958 0.549529 0.246204
vt 0.750000 0.750000
vt 1.000000 0.750000
vt 1.000000 1.000000
vt 0.750000 1.000000
vt 0.750000 0.750000
vt 1.000000 0.750000
vt 1.000000 1.000000
vt 0.750000 1.000000
vt 0.750000 0.750000
vt 1.000000 0.750000
vt 0.750000 1.000000
vt 0.750000 0.750000
vt 1.000000 0.750000
vt 1.000000 1.000000
vt 0.750000 1.000000
vt 0.750000 0.750000
vt 1.000000 0.750000
vt 1.000000 1.000000
vt 0.750000 1.000000
vt 0.750000 0.750000
vt 1.000000 0.750000
vt 1.000000 1.000000
vt 0.750000 1.000000
vt 0.250000 0.750000
vt 0.500000 0.750000
vt 0.500000 1.000000
vt 0.250000 1.000000
vt 0.250000 0.250000
vt 0.500000 0.250000
vt 0.500000 0.500000
vt 0.250000 0.500000
vt 0.750000 0.250000
vt 1.000000 0.250000
vt 1.000000 0.500000
vt 0.750000 0.500000
vt 0.250000 0.750000
vt 0.500000 0.750000
vt 0.500000 1.000000
vt 0.250000 1.000000
vt 0.250000 0.250000
vt 0.500000 0.250000
vt 0.500000 0.500000
vt 0.250000 0.500000
vt 0.750000 0.250000
vt 1.000000 0.250000
vt 1.000000 0.500000
vt 0.750000 0.500000
vt 0.250000 0.750000
vt 0.500000 0.750000
vt 0.500000 1.000000
vt 0.250000 1.000000
vt 0.250000 0.250000
vt 0.500000 0.250000
vt 0.500000 0.500000
vt 0.250000 0.500000
vt 0.750000 0.250000
vt 1.000000 0.250000
vt 1.000000 0.500000
vt 0.750000 0.500000
vt 0.250000 0.750000
vt 0.500000 0.750000
vt 0.500000 1.000000
vt 0.250000 1.000000
vt 0.250000 0.250000
vt 0.500000 0.250000
vt 0.500000 0.500000
vt 0.250000 0.500000
vt 0.750000 0.250000
vt 1.000000 0.250000
vt 1.000000 0.500000
vt 0.750000 0.500000
vt 0.250000 0.750000
vt 0.500000 0.750000
vt 0.500000 1.000000
vt 0.250000 1.000000
vt 0.250000 0.250000
vt 0.500000 0.250000
vt 0.500000 0.500000
vt 0.250000 0.500000
vt 0.750000 0.250000
vt 1.000000 0.250000
vt 1.000000 0.500000
vt 0.750000 0.500000
vt 0.250000 0.750000
vt 0.500000 0.750000
vt 0.500000 1.000000
vt 0.250000 1.000000
vt 0.250000 0.250000
vt 0.500000 0.250000
vt 0.500000 0.500000
vt 0.250000 0.500000
vt 0.750000 0.250000
vt 1.000000 0.250000
vt 0.750000 0.500000
vt 0.500000 0.000000
vt 0.750000 0.000000
vt 1.000000 0.000000
vt 0.000000 0.250000
vt 0.000000 0.500000
vt 0.000000 0.000000
vt 0.250000 0.000000
vt 0.000000 0.750000
vt 0.000000 1.000000
vt 0.500000 0.000000
vt 0.750000 0.000000
vt 1.000000 0.000000
vt 0.000000 0.250000
vt 0.000000 0.500000
vt 0.000000 0.000000
vt 0.250000 0.000000
vt 0.000000 0.750000
vt 0.000000 1.000000
vt 0.500000 0.000000
vt 0.750000 0.000000
vt 1.000000 0.000000
vt 0.000000 0.250000
vt 0.000000 0.500000
vt 0.000000 0.000000
vt 0.250000 0.000000
vt 0.000000 0.750000
vt 0.500000 0.000000
vt 0.750000 0.000000
vt 1.000000 0.000000
vt 0.000000 0.250000
vt 0.000000 0.500000
vt 0.000000 0.000000
vt 0.250000 0.000000
vt 0.000000 0.750000
vt 0.000000 1.000000
vt 0.500000 0.000000
vt 0.750000 0.000000
vt 0.000000 0.250000
vt 0.000000 0.500000
vt 0.250000 0.000000
vt 0.000000 0.750000
vt 0.000000 1.000000
vt 0.500000 0.000000
vt 0.750000 0.000000
vt 1.000000 0.000000
vt 0.000000 0.250000
vt 0.000000 0.000000
vt 0.250000 0.000000
vt 0.000000 0.750000
vt 0.000000 1.000000
vt 0.000000 0.000000
vt 1.000000 0.000000
vt 1.000000 1.000000
vt 0.000000 1.000000
vt 0.000000 0.000000
vt 1.000000 0.000000
vt 1.000000 1.000000
vt 0.000000 1.000000
vt 0.000000 0.000000
vt 0.200000 0.000000
vt 0.200000 0.200000
vt 0.000000 0.200000
vt 0.800000 0.000000
vt 1.000000 0.000000
vt 1.000000 0.200000
vt 0.800000 0.200000
vt 0.000000 0.800000
vt 0.200000 0.800000
vt 0.200000 1.000000
vt 0.000000 1.000000
vt 0.800000 0.800000
vt 1.000000 0.800000
vt 1.000000 1.000000
vt 0.800000 1.000000
vt 0.000000 0.600000
vt 0.200000 0.600000
vt 0.200000 0.800000
vt 0.000000 0.800000
vt 0.000000 0.400000
vt 0.200000 0.400000
vt 0.200000 0.600000
vt 0.000000 0.600000
vt 0.000000 0.200000
vt 0.200000 0.200000
vt 0.200000 0.400000
vt 0.000000 0.400000
vt 0.200000 0.000000
vt 0.400000 0.000000
vt 0.400000 0.200000
vt 0.200000 0.200000
vt 0.400000 0.000000
vt 0.600000 0.000000
vt 0.600000 0.200000
vt 0.400000 0.200000
vt 0.600000 0.000000
vt 0.800000 0.000000
vt 0.800000 0.200000
vt 0.600000 0.200000
vt 0.800000 0.200000
vt 1.000000 0.200000
vt 1.000000 0.400000
vt 0.800000 0.400000
vt 0.800000 0.400000
vt 1.000000 0.400000
vt 1.000000 0.600000
vt 0.800000 0.600000
vt 0.800000 0.600000
vt 1.000000 0.600000
vt 1.000000 0.800000
vt 0.800000 0.800000
vt 0.600000 0.800000
vt 0.800000 0.800000
vt 0.800000 1.000000
vt 0.600000 1.000000
vt 0.400000 0.800000
vt 0.600000 0.800000
vt 0.600000 1.000000
vt 0.400000 1.000000
vt 0.200000 0.800000
vt 0.400000 0.800000
vt 0.400000 1.000000
vt 0.200000 1.000000
vt 0.200000 0.400000
vt 0.400000 0.400000
vt 0.400000 0.600000
vt 0.200000 0.600000
vt 0.200000 0.200000
vt 0.400000 0.200000
vt 0.400000 0.400000
vt 0.200000 0.400000
vt 0.400000 0.400000
vt 0.600000 0.400000
vt 0.600000 0.600000
vt 0.400000 0.600000
vt 0.200000 0.600000
vt 0.400000 0.600000
vt 0.400000 0.800000
vt 0.200000 0.800000
vt 0.400000 0.200000
vt 0.600000 0.200000
vt 0.600000 0.400000
vt 0.400000 0.400000
vt 0.600000 0.400000
vt 0.800000 0.400000
vt 0.800000 0.600000
vt 0.600000 0.600000
vt 0.400000 0.600000
vt 0.600000 0.600000
vt 0.600000 0.800000
vt 0.400000 0.800000
vt 0.600000 0.200000
vt 0.800000 0.200000
vt 0.800000 0.400000
vt 0.600000 0.400000
vt 0.600000 0.600000
vt 0.800000 0.600000
vt 0.800000 0.800000
vt 0.600000 0.800000
vt 0.000000 0.000000
vt 0.200000 0.000000
vt 0.200000 0.200000
vt 0.000000 0.200000
vt 0.800000 0.000000
vt 1.000000 0.000000
vt 1.000000 0.200000
vt 0.800000 0.200000
vt 0.000000 0.800000
vt 0.200000 0.800000
vt 0.200000 1.000000
vt 0.000000 1.000000
vt 0.800000 0.800000
vt 1.000000 0.800000
vt 1.000000 1.000000
vt 0.800000 1.000000
vt 0.000000 0.600000
vt 0.200000 0.600000
vt 0.200000 0.800000
vt 0.000000 0.800000
vt 0.000000 0.400000
vt 0.200000 0.400000
vt 0.200000 0.600000
vt 0.000000 0.600000
vt 0.000000 0.200000
vt 0.200000 0.200000
vt 0.200000 0.400000
vt 0.000000 0.400000
vt 0.200000 0.000000
vt 0.400000 0.000000
vt 0.400000 0.200000
vt 0.200000 0.200000
vt 0.400000 0.000000
vt 0.600000 0.000000
vt 0.600000 0.200000
vt 0.400000 0.200000
vt 0.600000 0.000000
vt 0.800000 0.000000
vt 0.800000 0.200000
vt 0.600000 0.200000
vt 0.800000 0.200000
vt 1.000000 0.200000
vt 1.000000 0.400000
vt 0.800000 0.400000
vt 0.800000 0.400000
vt 1.000000 0.400000
vt 1.000000 0.600000
vt 0.800000 0.600000
vt 0.800000 0.600000
vt 1.000000 0.600000
vt 1.000000 0.800000
vt 0.800000 0.800000
vt 0.600000 0.800000
vt 0.800000 0.800000
vt 0.800000 1.000000
vt 0.600000 1.000000
vt 0.400000 0.800000
vt 0.600000 0.800000
vt 0.600000 1.000000
vt 0.400000 1.000000
vt 0.200000 0.800000
vt 0.400000 0.800000
vt 0.400000 1.000000
vt 0.200000 1.000000
vt 0.200000 0.400000
vt 0.400000 0.400000
vt 0.400000 0.600000
vt 0.200000 0.600000
vt 0.200000 0.200000
vt 0.400000 0.200000
vt 0.400000 0.400000
vt 0.200000 0.400000
vt 0.400000 0.400000
vt 0.600000 0.400000
vt 0.600000 0.600000
vt 0.400000 0.600000
vt 0.200000 0.600000
vt 0.400000 0.600000
vt 0.400000 0.800000
vt 0.200000 0.800000
vt 0.400000 0.200000
vt 0.600000 0.200000
vt 0.600000 0.400000
vt 0.400000 0.400000
vt 0.600000 0.400000
vt 0.800000 0.400000
vt 0.800000 0.600000
vt 0.600000 0.600000
vt 0.400000 0.600000
vt 0.600000 0.600000
vt 0.600000 0.800000
vt 0.400000 0.800000
vt 0.600000 0.200000
vt 0.800000 0.200000
vt 0.800000 0.400000
vt 0.600000 0.400000
vt 0.600000 0.600000
vt 0.800000 0.600000
vt 0.800000 0.800000
vt 0.600000 0.800000
vt 0.000000 0.000000
vt 0.200000 0.000000
vt 0.200000 0.200000
vt 0.000000 0.200000
vt 0.800000 0.000000
vt 1.000000 0.000000
vt 1.000000 0.200000
vt 0.800000 0.200000
vt 0.000000 0.800000
vt 0.200000 0.800000
vt 0.200000 1.000000
vt 0.000000 1.000000
vt 0.800000 0.800000
vt 1.000000 0.800000
vt 1.000000 1.000000
vt 0.800000 1.000000
vt 0.000000 0.600000
vt 0.200000 0.600000
vt 0.200000 0.800000
vt 0.000000 0.800000
vt 0.000000 0.400000
vt 0.200000 0.400000
vt 0.200000 0.600000
vt 0.000000 0.600000
vt 0.000000 0.200000
vt 0.200000 0.200000
vt 0.200000 0.400000
vt 0.000000 0.400000
vt 0.200000 0.000000
vt 0.400000 0.000000
vt 0.400000 0.200000
vt 0.200000 0.200000
vt 0.400000 0.000000
vt 0.600000 0.000000
vt 0.600000 0.200000
vt 0.400000 0.200000
vt 0.600000 0.000000
vt 0.800000 0.000000
vt 0.800000 0.200000
vt 0.600000 0.200000
vt 0.800000 0.200000
vt 1.000000 0.200000
vt 1.000000 0.400000
vt 0.800000 0.400000
vt 0.800000 0.400000
vt 1.000000 0.400000
vt 1.000000 0.600000
vt 0.800000 0.600000
vt 0.800000 0.600000
vt 1.000000 0.600000
vt 1.000000 0.800000
vt 0.800000 0.800000
vt 0.600000 0.800000
vt 0.800000 0.800000
vt 0.800000 1.000000
vt 0.600000 1.000000
vt 0.400000 0.800000
vt 0.600000 0.800000
vt 0.600000 1.000000
vt 0.400000 1.000000
vt 0.200000 0.800000
vt 0.400000 0.800000
vt 0.400000 1.000000
vt 0.200000 1.000000
vt 0.200000 0.400000
vt 0.400000 0.400000
vt 0.400000 0.600000
vt 0.200000 0.600000
vt 0.200000 0.200000
vt 0.400000 0.200000
vt 0.400000 0.400000
vt 0.200000 0.400000
vt 0.400000 0.400000
vt 0.600000 0.400000
vt 0.600000 0.600000
vt 0.400000 0.600000
vt 0.200000 0.600000
vt 0.400000 0.600000
vt 0.400000 0.800000
vt 0.200000 0.800000
vt 0.400000 0.200000
vt 0.600000 0.200000
vt 0.600000 0.400000
vt 0.400000 0.400000
vt 0.600000 0.400000
vt 0.800000 0.400000
vt 0.800000 0.600000
vt 0.600000 0.600000
vt 0.400000 0.600000
vt 0.600000 0.600000
vt 0.600000 0.800000
vt 0.400000 0.800000
vt 0.600000 0.200000
vt 0.800000 0.200000
vt 0.800000 0.400000
vt 0.600000 0.400000
vt 0.600000 0.600000
vt 0.800000 0.600000
vt 0.800000 0.800000
vt 0.600000 0.800000
vt 0.000000 0.000000
vt 0.200000 0.000000
vt 0.200000 0.200000
vt 0.000000 0.200000
vt 0.800000 0.000000
vt 1.000000 0.000000
vt 1.000000 0.200000
vt 0.800000 0.200000
vt 0.000000 0.800000
vt 0.200000 0.800000
vt 0.200000 1.000000
vt 0.000000 1.000000
vt 0.800000 0.800000
vt 1.000000 0.800000
vt 1.000000 1.000000
vt 0.800000 1.000000
vt 0.000000 0.600000
vt 0.200000 0.600000
vt 0.200000 0.800000
vt 0.000000 0.800000
vt 0.000000 0.400000
vt 0.200000 0.400000
vt 0.200000 0.600000
vt 0.000000 0.600000
vt 0.000000 0.200000
vt 0.200000 0.200000
vt 0.200000 0.400000
vt 0.000000 0.400000
vt 0.200000 0.000000
vt 0.400000 0.000000
vt 0.400000 0.200000
vt 0.200000 0.200000
vt 0.400000 0.000000
vt 0.600000 0.000000
vt 0.600000 0.200000
vt 0.400000 0.200000
vt 0.600000 0.000000
vt 0.800000 0.000000
vt 0.800000 0.200000
vt 0.600000 0.200000
vt 0.800000 0.200000
vt 1.000000 0.200000
vt 1.000000 0.400000
vt 0.800000 0.400000
vt 0.800000 0.400000
vt 1.000000 0.400000
vt 1.000000 0.600000
vt 0.800000 0.600000
vt 0.800000 0.600000
vt 1.000000 0.600000
vt 1.000000 0.800000
vt 0.800000 0.800000
vt 0.600000 0.800000
vt 0.800000 0.800000
vt 0.800000 1.000000
vt 0.600000 1.000000
vt 0.400000 0.800000
vt 0.600000 0.800000
vt 0.600000 1.000000
vt 0.400000 1.000000
vt 0.200000 0.800000
vt 0.400000 0.800000
vt 0.400000 1.000000
vt 0.200000 1.000000
vt 0.200000 0.400000
vt 0.400000 0.400000
vt 0.400000 0.600000
vt 0.200000 0.600000
vt 0.200000 0.200000
vt 0.400000 0.200000
vt 0.400000 0.400000
vt 0.200000 0.400000
vt 0.400000 0.400000
vt 0.600000 0.400000
vt 0.600000 0.600000
vt 0.400000 0.600000
vt 0.200000 0.600000
vt 0.400000 0.600000
vt 0.400000 0.800000
vt 0.200000 0.800000
vt 0.400000 0.200000
vt 0.600000 0.200000
vt 0.600000 0.400000
vt 0.400000 0.400000
vt 0.600000 0.400000
vt 0.800000 0.400000
vt 0.800000 0.600000
vt 0.600000 0.600000
vt 0.400000 0.600000
vt 0.600000 0.600000
vt 0.600000 0.800000
vt 0.400000 0.800000
vt 0.600000 0.200000
vt 0.800000 0.200000
vt 0.800000 0.400000
vt 0.600000 0.400000
vt 0.600000 0.600000
vt 0.800000 0.600000
vt 0.800000 0.800000
vt 0.600000 0.800000
vt 0.690000 0.690000
vt 0.810000 0.690000
vt 0.810000 0.810000
vt 0.690000 0.810000
vt 0.340467 0.779533
vt 0.340467 0.659533
vt 0.540427 0.469755
vt 0.540427 0.989518
vt 0.220467 0.659533
vt 0.020664 0.469755
vt 0.220467 0.659533
vt 0.340467 0.659533
vt 0.340467 0.779533
vt 0.220467 0.779533
vt 0.220467 0.779533
vt 0.020664 0.989518
vt 1.000000 0.500000
vt 1.000000 1.000000
vt 0.525455 0.979636
vt 0.025455 0.979636
vt 0.025455 0.479636
vt 0.810000 0.690000
vt 0.690000 0.690000
vt 0.500000 0.500000
vt 1.000000 0.500000
vt 0.690000 0.810000
vt 0.500000 1.000000
vt 0.500000 1.000000
vt 0.810000 0.810000
vt 1.000000 1.000000
vt 0.500000 0.500000
vt 0.525455 0.479636
vt 0.690000 0.690000
vt 0.810000 0.690000
vt 0.810000 0.810000
vt 0.690000 0.810000
vt 1.000000 0.500000
vt 1.000000 1.000000
vt 0.500000 1.000000
vt 0.500000 0.500000
vt 0.690000 0.690000
vt 0.810000 0.690000
vt 0.810000 0.810000
vt 0.690000 0.810000
vt 1.000000 0.500000
vt 1.000000 1.000000
vt 0.500000 1.000000
vt 0.500000 0.500000
vt 0.690000 0.690000
vt 0.810000 0.690000
vt 0.810000 0.810000
vt 0.690000 0.810000
vt 1.000000 0.500000
vt 1.000000 1.000000
vt 0.500000 1.000000
vt 0.500000 0.500000
vt 0.690000 0.690000
vt 0.810000 0.690000
vt 0.810000 0.810000
vt 0.690000 0.810000
vt 1.000000 0.500000
vt 1.000000 1.000000
vt 0.500000 1.000000
vt 0.500000 0.500000
vt 0.340467 0.779533
vt 0.340467 0.659533
vt 0.540427 0.469755
vt 0.540427 0.989518
vt 0.220467 0.659533
vt 0.020664 0.469755
vt 0.220467 0.779533
vt 0.020664 0.989518
vt 0.340467 0.779533
vt 0.340467 0.659533
vt 0.540427 0.469755
vt 0.540427 0.989518
vt 0.220467 0.659533
vt 0.020664 0.469755
vt 0.220467 0.779533
vt 0.020664 0.989518
vt 0.220467 0.659533
vt 0.340467 0.659533
vt 0.340467 0.779533
vt 0.220467 0.779533
vt 0.525455 0.979636
vt 0.025455 0.979636
vt 0.025455 0.479636
vt 0.525455 0.479636
vn -0.4510 0.8791 0.1543
vn 0.0338 -0.9993 0.0138
vn -0.3538 0.0928 0.9307
vn 0.6828 0.4442 0.5801
vn 0.0637 0.2417 -0.9682
vn -0.9176 0.2180 -0.3325
vn -0.9493 0.1702 -0.2643
vn -0.9201 -0.1532 -0.3604
vn -0.9669 0.2042 0.1533
vn 0.1568 -0.2962 -0.9422
vn -0.1626 0.1567 -0.9742
vn 0.3334 0.2820 -0.8996
vn 0.8520 -0.3654 0.3750
vn 0.9673 0.1315 -0.2169
vn 0.9255 0.1631 -0.3420
vn -0.3624 0.1578 0.9186
vn -0.2488 0.0714 0.9659
vn 0.2096 0.1994 0.9572
vn -0.3413 -0.9109 0.2320
vn 0.2679 -0.9631 0.0239
vn 0.1743 -0.9557 0.2374
vn 0.1069 0.9535 0.2818
vn -0.0949 0.9248 0.3685
vn -0.3976 0.8155 0.4205
vn 0.1238 0.8740 0.4699
vn 0.2920 0.7069 -0.6443
vn -0.3481 0.8181 -0.4578
vn 0.1773 0.9785 0.1051
vn 0.2567 0.8288 -0.4972
vn -0.1854 0.7355 -0.6517
vn 0.3896 0.8442 0.3680
vn 0.0589 0.9750 0.2144
vn 0.0765 0.9920 -0.1000
vn -0.0054 -0.9654 0.2607
vn -0.3178 -0.9129 -0.2562
vn 0.4643 -0.8432 -0.2709
vn -0.3165 -0.9484 -0.0189
vn -0.2702 -0.8740 -0.4039
vn 0.1880 -0.8913 -0.4127
vn -0.0131 -0.9665 0.2565
vn 0.0173 -0.9767 0.2140
vn -0.2298 -0.9708 0.0689
vn 0.0715 0.1719 0.9825
vn 0.2185 0.4150 0.8832
vn 0.3454 0.1892 0.9192
vn -0.0223 -0.3965 0.9178
vn 0.2634 -0.3034 0.9158
vn 0.3986 -0.0980 0.9119
vn -0.3878 -0.4366 0.8118
vn 0.0487 -0.3456 0.9371
vn 0.1331 0.1526 0.9793
vn 0.8839 -0.3116 -0.3488
vn 0.9916 0.0234 0.1272
vn 0.9708 0.1457 -0.1907
vn 0.9752 -0.1530 -0.1601
vn 0.9681 -0.2317 -0.0950
vn 0.9865 -0.0230 0.1622
vn 0.9796 -0.1693 0.1087
vn 0.9584 -0.2456 0.1455
vn 0.9350 -0.2321 -0.2681
vn 0.0640 -0.1318 -0.9892
vn -0.1643 -0.2614 -0.9511
vn -0.2165 0.2081 -0.9538
vn -0.0281 -0.2319 -0.9723
vn -0.0457 -0.2108 -0.9765
vn 0.0056 0.2281 -0.9736
vn 0.2704 -0.2233 -0.9365
vn -0.1826 -0.1532 -0.9712
vn -0.2702 -0.1373 -0.9530
vn -0.9609 0.2702 -0.0609
vn -0.8988 0.3257 0.2933
vn -0.9992 0.0390 0.0120
vn -0.9803 0.0397 -0.1935
vn -0.8607 -0.2339 0.4522
vn -0.9118 -0.0345 0.4093
vn -0.9446 -0.2546 -0.2070
vn -0.9963 -0.0431 0.0749
vn -0.9764 -0.0187 0.2151
vn -0.9012 -0.1508 -0.4063
vn -0.9719 -0.1530 0.1786
vn -0.9089 0.3385 0.2435
vn 0.1267 0.3787 -0.9168
vn -0.3109 0.3068 -0.8996
vn -0.2034 0.2400 -0.9492
vn 0.7974 0.3048 0.5208
vn 0.9698 -0.0849 -0.2285
vn 0.8934 0.3612 0.2673
vn -0.3499 0.0327 0.9362
vn -0.0183 -0.0827 0.9964
vn 0.0667 0.2313 0.9706
vn 0.3552 -0.8917 0.2805
vn 0.4203 -0.8880 -0.1865
vn -0.0255 -0.9973 0.0689
vn 0.1607 0.9430 0.2914
vn 0.0201 0.9579 -0.2865
vn -0.3987 0.9009 -0.1714
vn 0.7178 -0.0537 0.6942
vn 0.6903 -0.1693 -0.7034
vn -0.0036 0.8932 -0.4496
vn -0.3925 0.9197 -0.0032
vn 0.4169 -0.5462 -0.7266
vn -0.1295 0.9074 0.3998
vn 0.0329 -0.8642 -0.5021
vn -0.0059 0.9531 0.3026
vn 0.9264 -0.1208 -0.3566
vn -0.5869 0.3896 -0.7097
vn -0.5776 0.4650 0.6709
vn 0.9077 0.0074 0.4196
vn 0.2944 0.6064 -0.7387
vn 0.6080 0.7556 0.2439
vn 0.6758 -0.4369 -0.5937
vn -0.7242 0.6531 -0.2214
vn -0.2881 0.4570 0.8415
vn -0.9530 -0.1561 -0.2598
vn 0.1092 -0.9542 -0.2785
vn 0.7384 0.4008 0.5424
vn -0.9953 0.0443 0.0862
vn 0.0101 -0.3694 -0.9292
vn 0.4169 0.4089 -0.8118
vn 0.3270 0.5144 0.7927
vn 0.8936 0.2822 0.3492
vn -0.7553 0.0006 -0.6553
vn -0.3362 -0.8373 0.4311
vn 0.9029 -0.0412 -0.4279
vn -0.6676 0.2979 -0.6824
vn 0.9908 -0.0030 -0.1354
vn 0.9353 -0.1110 0.3361
vn 0.4974 0.8663 0.0459
vn -0.3400 0.5761 -0.7433
vn -0.2114 -0.4670 -0.8586
vn -0.8343 -0.4951 -0.2426
vn -0.6352 -0.6384 0.4346
vn -0.2763 0.9574 0.0842
vn -0.5674 -0.7895 -0.2340
vn -0.2188 -0.6498 -0.7279
vn 0.2808 -0.1926 0.9402
vn 0.1676 0.7012 0.6930
vn -0.8524 -0.1758 0.4924
vn 0.9210 -0.3508 -0.1695
vn 0.0840 -0.1842 0.9793
vn -0.8963 -0.2447 -0.3698
vn -0.8539 -0.4432 -0.2728
vn 0.3567 -0.1102 -0.9277
vn 0.6047 -0.3678 -0.7064
vn 0.7180 -0.2123 0.6628
vn -0.1649 0.6836 -0.7110
vn 0.5378 0.0375 -0.8422
vn 0.0278 -0.4634 -0.8857
vn 0.4957 0.2255 0.8387
vn 0.6865 -0.5139 -0.5144
vn 0.4614 0.1648 -0.8718
vn -0.0965 -0.8083 -0.5808
vn 0.1777 -0.3279 -0.9279
vn -0.3254 -0.4452 -0.8342
vn -0.7570 -0.0015 -0.6534
vn 0.7904 0.4783 -0.3827
vn 0.7229 0.6304 0.2827
vn -0.0790 0.3232 0.9430
vn -0.1806 0.9654 0.1881
vn -0.6218 0.5361 -0.5709
vn -0.8009 0.5948 -0.0690
vn -0.8662 -0.4167 -0.2758
vn -0.2424 -0.9170 0.3169
vn -0.6757 0.3650 -0.6405
vn 0.5667 -0.7266 0.3885
vn 0.9837 0.0468 -0.1737
vn -0.0341 -0.9353 -0.3523
vn 0.6227 0.5837 0.5211
vn 0.8021 0.5958 0.0404
vn -0.1783 -0.5858 0.7906
vn -0.5676 0.1054 0.8166
vn -0.8692 -0.2846 -0.4043
vn -0.0786 0.7489 -0.6580
vn -0.4019 0.8323 -0.3819
vn -0.3771 0.5830 0.7196
vn -0.3912 -0.7668 0.5089
vn 0.8814 0.2401 0.4068
vn -0.3732 0.6767 -0.6347
vn 0.1503 -0.7624 -0.6294
vn 0.0524 -0.1406 0.9887
vn 0.8987 -0.4012 0.1772
vn 0.0862 0.9812 -0.1726
vn 0.3612 0.4250 0.8300
vn -0.7017 -0.6617 0.2643
vn 0.3821 0.6017 -0.7014
vn 0.2553 0.8831 -0.3936
vn 0.7634 0.2016 0.6137
vn 0.9662 0.1172 -0.2295
vn 0.4406 -0.6154 -0.6536
vn 0.8530 -0.5053 -0.1310
vn -0.0747 -0.8419 0.5345
vn -0.9912 0.1315 0.0178
vn -0.5829 -0.3206 0.7466
vn 0.8695 -0.4807 0.1136
vn -0.5555 0.7219 -0.4126
vn 0.7520 -0.5774 0.3180
vn 0.0536 -0.1285 -0.9903
vn 0.7765 0.4952 -0.3897
vn 0.6327 0.3826 -0.6733
vn -0.3953 0.2236 0.8909
vn 0.2218 0.5987 0.7697
vn -0.9617 0.2729 0.0269
vn 0.6056 -0.0245 0.7954
vn -0.0115 -0.3996 0.9166
vn 0.8500 0.4900 -0.1934
vn -0.8941 -0.0596 0.4439
vn -0.6999 0.6363 0.3243
vn 0.1229 0.1163 0.9856
vn 0.1051 0.9161 -0.3870
vn 0.7090 0.7046 -0.0307
vn 0.7972 -0.1226 -0.5912
vn 0.3413 0.7215 0.6024
vn -0.2625 0.9330 0.2461
vn 0.2325 0.1646 -0.9586
vn -0.7513 0.5266 -0.3979
vn 0.2609 0.9571 0.1259
vn 0.2853 0.7772 -0.5608
vn -0.9454 -0.1693 -0.2783
vn -0.3968 -0.0866 -0.9138
vn -0.0169 0.2914 -0.9565
vn 0.0097 -0.4382 -0.8988
vn -0.6620 -0.4396 -0.6071
vn -0.6886 0.2900 -0.6647
vn 0.9835 -0.0284 -0.1788
vn 0.9351 0.0460 0.3514
vn 0.8396 -0.5371 -0.0812
vn 0.7476 -0.0946 -0.6574
vn 0.8431 0.4885 -0.2248
vn 0.0968 0.0394 0.9945
vn -0.4237 -0.0599 0.9038
vn 0.1781 -0.4751 0.8617
vn 0.5894 0.1274 0.7978
vn -0.0124 0.5426 0.8399
vn -0.9843 0.0547 0.1678
vn -0.9316 -0.0094 -0.3634
vn -0.8603 -0.4672 0.2038
vn -0.7525 0.1030 0.6505
vn -0.8238 0.5607 0.0833
vn 0.7776 0.5294 0.3391
vn 0.6004 0.7214 -0.3450
vn 0.8092 0.0616 -0.5843
vn 0.9864 -0.1305 0.0998
vn 0.9275 0.3454 -0.1433
vn 0.4222 0.4637 -0.7789
vn -0.2609 0.2492 -0.9326
vn -0.0504 -0.4510 -0.8911
vn 0.6327 -0.2365 -0.7374
vn 0.2173 0.0074 -0.9761
vn -0.4267 0.8954 0.1274
vn -0.4206 0.6676 0.6143
vn 0.1000 0.9746 0.2006
vn -0.3095 0.8643 -0.3964
vn -0.8301 0.5574 0.0173
g Cube.023_Cube.037_Material.014
usemtl Material.014
s off
f 98/1/1 48/2/1 7/3/1 27/4/1
f 97/5/2 43/6/2 4/7/2 28/8/2
f 96/9/3 27/10/3 7/3/3 37/11/3
f 95/12/4 30/13/4 3/14/4 41/15/4
f 94/16/5 33/17/5 1/18/5 44/19/5
f 93/20/6 36/21/6 5/22/6 47/23/6
f 92/24/7 51/25/7 17/26/7 35/27/7
f 91/28/8 52/29/8 21/30/8 53/31/8
f 90/32/9 48/33/9 18/34/9 54/35/9
f 89/36/10 55/37/10 14/38/10 32/39/10
f 88/40/11 56/41/11 22/42/11 57/43/11
f 87/44/12 45/45/12 15/46/12 58/47/12
f 86/48/13 59/49/13 11/50/13 29/51/13
f 85/52/14 60/53/14 23/54/14 61/55/14
f 84/56/15 42/57/15 12/58/15 62/59/15
f 83/60/16 63/61/16 19/62/16 49/63/16
f 82/64/17 64/65/17 24/66/17 65/67/17
f 81/68/18 39/69/18 9/70/18 66/71/18
f 80/72/19 67/73/19 10/74/19 40/75/19
f 79/76/20 68/77/20 25/78/20 69/79/20
f 78/80/21 31/81/21 13/82/21 70/83/21
f 77/84/22 71/85/22 9/86/22 39/87/22
f 76/88/23 72/89/23 26/90/23 73/91/23
f 75/92/24 36/93/24 18/34/24 74/94/24
f 72/89/25 75/92/25 74/94/25 26/90/25
f 15/95/26 45/96/26 75/92/26 72/89/26
f 45/96/27 5/97/27 36/93/27 75/92/27
f 42/98/28 76/88/28 73/91/28 12/99/28
f 1/100/29 33/101/29 76/88/29 42/98/29
f 33/101/30 15/95/30 72/89/30 76/88/30
f 30/102/31 77/84/31 39/87/31 3/103/31
f 12/99/32 73/91/32 77/84/32 30/102/32
f 73/91/33 26/90/33 71/85/33 77/84/33
f 68/77/34 78/80/34 70/83/34 25/78/34
f 16/104/35 46/105/35 78/80/35 68/77/35
f 46/105/36 2/106/36 31/81/36 78/80/36
f 50/107/37 79/76/37 69/79/37 20/108/37
f 6/109/38 34/110/38 79/76/38 50/107/38
f 34/110/39 16/104/39 68/77/39 79/76/39
f 38/111/40 80/72/40 40/75/40 8/112/40
f 20/108/41 69/79/41 80/72/41 38/111/41
f 69/79/42 25/78/42 67/73/42 80/72/42
f 64/65/43 81/68/43 66/71/43 24/66/43
f 11/113/44 41/114/44 81/68/44 64/65/44
f 41/114/45 3/115/45 39/69/45 81/68/45
f 28/116/46 82/64/46 65/67/46 10/117/46
f 4/118/47 29/119/47 82/64/47 28/116/47
f 29/119/48 11/113/48 64/65/48 82/64/48
f 40/120/49 83/60/49 49/63/49 8/112/49
f 10/117/50 65/67/50 83/60/50 40/120/50
f 65/67/51 24/66/51 63/61/51 83/60/51
f 60/53/52 84/56/52 62/59/52 23/54/52
f 14/121/53 44/122/53 84/56/53 60/53/53
f 44/122/54 1/123/54 42/57/54 84/56/54
f 31/124/55 85/52/55 61/55/55 13/125/55
f 2/126/56 32/127/56 85/52/56 31/124/56
f 32/127/57 14/121/57 60/53/57 85/52/57
f 43/128/58 86/48/58 29/51/58 4/129/58
f 13/125/59 61/55/59 86/48/59 43/128/59
f 61/55/60 23/54/60 59/49/60 86/48/60
f 56/41/61 87/44/61 58/47/61 22/42/61
f 17/130/62 47/131/62 87/44/62 56/41/62
f 47/131/63 5/97/63 45/45/63 87/44/63
f 34/132/64 88/40/64 57/43/64 16/133/64
f 6/109/65 35/134/65 88/40/65 34/132/65
f 35/134/66 17/130/66 56/41/66 88/40/66
f 46/135/67 89/36/67 32/39/67 2/136/67
f 16/133/68 57/43/68 89/36/68 46/135/68
f 57/43/69 22/42/69 55/37/69 89/36/69
f 52/29/70 90/32/70 54/35/70 21/30/70
f 19/137/71 37/138/71 90/32/71 52/29/71
f 37/138/72 7/139/72 48/33/72 90/32/72
f 38/140/73 91/28/73 53/31/73 20/108/73
f 8/141/74 49/142/74 91/28/74 38/140/74
f 49/142/75 19/137/75 52/29/75 91/28/75
f 50/143/76 92/24/76 35/27/76 6/144/76
f 20/108/77 53/31/77 92/24/77 50/143/77
f 53/31/78 21/30/78 51/25/78 92/24/78
f 51/25/79 93/20/79 47/23/79 17/26/79
f 21/30/80 54/35/80 93/20/80 51/25/80
f 54/35/81 18/34/81 36/21/81 93/20/81
f 55/37/82 94/16/82 44/19/82 14/38/82
f 22/42/83 58/47/83 94/16/83 55/37/83
f 58/47/84 15/46/84 33/17/84 94/16/84
f 59/49/85 95/12/85 41/15/85 11/50/85
f 23/54/86 62/59/86 95/12/86 59/49/86
f 62/59/87 12/58/87 30/13/87 95/12/87
f 63/61/88 96/9/88 37/11/88 19/62/88
f 24/66/89 66/71/89 96/9/89 63/61/89
f 66/71/90 9/70/90 27/10/90 96/9/90
f 67/73/91 97/5/91 28/8/91 10/74/91
f 25/78/92 70/83/92 97/5/92 67/73/92
f 70/83/93 13/82/93 43/6/93 97/5/93
f 71/85/94 98/1/94 27/4/94 9/86/94
f 26/90/95 74/94/95 98/1/95 71/85/95
f 74/94/96 18/34/96 48/2/96 98/1/96
g Cube.023_Cube.037_Material.038
usemtl Material.038
f 99/145/97 100/146/97 102/147/97 101/148/97
f 103/149/98 104/150/98 106/151/98 105/152/98
f 107/153/99 109/154/99 110/155/99 108/156/99
f 112/157/100 111/158/100 113/159/100 114/160/100
f 117/161/101 118/162/101 116/163/101 115/164/101
f 122/165/102 120/166/102 119/167/102 121/168/102
f 124/169/103 126/170/103 125/171/103 123/172/103
f 128/173/104 130/174/104 129/175/104 127/176/104
f 132/177/105 134/178/105 133/179/105 131/180/105
f 135/181/106 136/182/106 138/183/106 137/184/106
f 139/185/107 140/186/107 142/187/107 141/188/107
f 143/189/108 144/190/108 146/191/108 145/192/108
f 149/193/109 147/194/109 148/195/109 150/196/109
f 153/197/110 151/198/110 152/199/110 154/200/110
f 157/201/111 155/202/111 156/203/111 158/204/111
f 162/205/112 161/206/112 159/207/112 160/208/112
f 166/209/113 165/210/113 163/211/113 164/212/113
f 170/213/114 169/214/114 167/215/114 168/216/114
f 172/217/115 174/218/115 173/219/115 171/220/115
f 178/221/116 177/222/116 175/223/116 176/224/116
f 180/225/117 182/226/117 181/227/117 179/228/117
f 186/229/118 185/230/118 183/231/118 184/232/118
f 190/233/119 189/234/119 187/235/119 188/236/119
f 192/237/120 194/238/120 193/239/120 191/240/120
f 198/241/121 197/242/121 195/243/121 196/244/121
f 202/245/122 201/246/122 199/247/122 200/248/122
f 206/249/123 205/250/123 203/251/123 204/252/123
f 207/253/124 209/254/124 210/255/124 208/256/124
f 212/257/125 211/258/125 213/259/125 214/260/125
f 217/261/126 218/262/126 216/263/126 215/264/126
f 222/265/127 220/266/127 219/267/127 221/268/127
f 224/269/128 226/270/128 225/271/128 223/272/128
f 228/273/129 230/274/129 229/275/129 227/276/129
f 232/277/130 234/278/130 233/279/130 231/280/130
f 235/281/131 236/282/131 238/283/131 237/284/131
f 239/285/132 240/286/132 242/287/132 241/288/132
f 243/289/133 244/290/133 246/291/133 245/292/133
f 249/293/134 247/294/134 248/295/134 250/296/134
f 253/297/135 251/298/135 252/299/135 254/300/135
f 257/301/136 255/302/136 256/303/136 258/304/136
f 262/305/137 261/306/137 259/307/137 260/308/137
f 266/309/138 265/310/138 263/311/138 264/312/138
f 270/313/139 269/314/139 267/315/139 268/316/139
f 272/317/140 274/318/140 273/319/140 271/320/140
f 278/321/141 277/322/141 275/323/141 276/324/141
f 280/325/142 282/326/142 281/327/142 279/328/142
f 286/329/143 285/330/143 283/331/143 284/332/143
f 290/333/144 289/334/144 287/335/144 288/336/144
f 292/337/145 294/338/145 293/339/145 291/340/145
f 298/341/146 297/342/146 295/343/146 296/344/146
f 302/345/147 301/346/147 299/347/147 300/348/147
f 306/349/148 305/350/148 303/351/148 304/352/148
f 307/353/149 309/354/149 310/355/149 308/356/149
f 312/357/150 311/358/150 313/359/150 314/360/150
f 317/361/151 318/362/151 316/363/151 315/364/151
f 322/365/152 320/366/152 319/367/152 321/368/152
f 324/369/153 326/370/153 325/371/153 323/372/153
f 328/373/154 330/374/154 329/375/154 327/376/154
f 332/377/155 334/378/155 333/379/155 331/380/155
f 335/381/156 336/382/156 338/383/156 337/384/156
f 339/385/157 340/386/157 342/387/157 341/388/157
f 343/389/158 344/390/158 346/391/158 345/392/158
f 349/393/159 347/394/159 348/395/159 350/396/159
f 353/397/160 351/398/160 352/399/160 354/400/160
f 357/401/161 355/402/161 356/403/161 358/404/161
f 362/405/162 361/406/162 359/407/162 360/408/162
f 366/409/163 365/410/163 363/411/163 364/412/163
f 370/413/164 369/414/164 367/415/164 368/416/164
f 372/417/165 374/418/165 373/419/165 371/420/165
f 378/421/166 377/422/166 375/423/166 376/424/166
f 380/425/167 382/426/167 381/427/167 379/428/167
f 386/429/168 385/430/168 383/431/168 384/432/168
f 390/433/169 389/434/169 387/435/169 388/436/169
f 392/437/170 394/438/170 393/439/170 391/440/170
f 398/441/171 397/442/171 395/443/171 396/444/171
f 402/445/172 401/446/172 399/447/172 400/448/172
f 406/449/173 405/450/173 403/451/173 404/452/173
f 407/453/174 409/454/174 410/455/174 408/456/174
f 412/457/175 411/458/175 413/459/175 414/460/175
f 417/461/176 418/462/176 416/463/176 415/464/176
f 422/465/177 420/466/177 419/467/177 421/468/177
f 424/469/178 426/470/178 425/471/178 423/472/178
f 428/473/179 430/474/179 429/475/179 427/476/179
f 432/477/180 434/478/180 433/479/180 431/480/180
f 435/481/181 436/482/181 438/483/181 437/484/181
f 439/485/182 440/486/182 442/487/182 441/488/182
f 443/489/183 444/490/183 446/491/183 445/492/183
f 449/493/184 447/494/184 448/495/184 450/496/184
f 453/497/185 451/498/185 452/499/185 454/500/185
f 457/501/186 455/502/186 456/503/186 458/504/186
f 462/505/187 461/506/187 459/507/187 460/508/187
f 466/509/188 465/510/188 463/511/188 464/512/188
f 470/513/189 469/514/189 467/515/189 468/516/189
f 472/517/190 474/518/190 473/519/190 471/520/190
f 478/521/191 477/522/191 475/523/191 476/524/191
f 480/525/192 482/526/192 481/527/192 479/528/192
f 486/529/193 485/530/193 483/531/193 484/532/193
f 490/533/194 489/534/194 487/535/194 488/536/194
f 492/537/195 494/538/195 493/539/195 491/540/195
f 498/541/196 497/542/196 495/543/196 496/544/196
f 502/545/197 501/546/197 499/547/197 500/548/197
f 506/549/198 505/550/198 503/551/198 504/552/198
g Cube.023_Cube.037_Material.039
usemtl Material.039
f 537/553/199 527/554/199 528/555/199 535/556/199
f 513/557/200 507/558/200 516/559/200 517/560/200
f 507/558/201 508/561/201 521/562/201 516/559/201
f 531/563/202 538/564/202 529/565/202 530/566/202
f 508/561/203 512/567/203 522/568/203 521/562/203
f 512/567/204 513/557/204 517/560/204 522/568/204
f 528/555/205 527/554/205 518/569/205 510/570/205
f 530/566/206 529/565/206 514/571/206 509/572/206
f 531/563/207 530/566/207 509/572/207 511/573/207
f 508/561/208 507/558/208 513/557/208 512/567/208
f 526/574/209 523/575/209 532/576/209 534/577/209
f 523/575/210 524/578/210 533/579/210 532/576/210
f 535/556/211 528/555/211 510/570/211 519/580/211
f 524/578/212 525/581/212 536/582/212 533/579/212
f 525/581/213 526/574/213 534/577/213 536/582/213
f 537/553/214 535/556/214 519/580/214 520/583/214
f 538/564/215 531/563/215 511/573/215 515/584/215
f 523/575/216 526/574/216 525/581/216 524/578/216
f 527/554/217 537/553/217 520/583/217 518/569/217
f 529/565/218 538/564/218 515/584/218 514/571/218
f 546/585/219 543/586/219 544/587/219 545/588/219
f 544/587/220 543/586/220 540/589/220 539/590/220
f 545/588/221 544/587/221 539/590/221 541/591/221
f 546/585/222 545/588/222 541/591/222 542/592/222
f 543/586/223 546/585/223 542/592/223 540/589/223
f 554/593/224 551/594/224 552/595/224 553/596/224
f 552/595/225 551/594/225 548/597/225 547/598/225
f 553/596/226 552/595/226 547/598/226 549/599/226
f 554/593/227 553/596/227 549/599/227 550/600/227
f 551/594/228 554/593/228 550/600/228 548/597/228
f 562/601/229 559/602/229 560/603/229 561/604/229
f 560/603/230 559/602/230 556/605/230 555/606/230
f 561/604/231 560/603/231 555/606/231 557/607/231
f 562/601/232 561/604/232 557/607/232 558/608/232
f 559/602/233 562/601/233 558/608/233 556/605/233
f 570/609/234 567/610/234 568/611/234 569/612/234
f 568/611/235 567/610/235 564/613/235 563/614/235
f 569/612/236 568/611/236 563/614/236 565/615/236
f 570/609/237 569/612/237 565/615/237 566/616/237
f 567/610/238 570/609/238 566/616/238 564/613/238
f 574/617/239 571/618/239 575/619/239 576/620/239
f 571/618/240 572/621/240 577/622/240 575/619/240
f 572/621/241 573/623/241 578/624/241 577/622/241
f 573/623/242 574/617/242 576/620/242 578/624/242
f 572/621/243 571/618/243 574/617/243 573/623/243
f 582/625/244 579/626/244 583/627/244 584/628/244
f 579/626/245 580/629/245 585/630/245 583/627/245
f 580/629/246 581/631/246 586/632/246 585/630/246
f 581/631/247 582/625/247 584/628/247 586/632/247
f 580/629/248 579/626/248 582/625/248 581/631/248
f 593/633/249 594/634/249 591/635/249 592/636/249
f 592/636/250 591/635/250 589/637/250 587/638/250
f 593/633/251 592/636/251 587/638/251 588/639/251
f 594/634/252 593/633/252 588/639/252 590/640/252
f 591/635/253 594/634/253 590/640/253 589/637/253
