# Blender v3.0.0 OBJ File: 'models.blend'
# www.blender.org
mtllib rubble.mtl
o Cube.020_Cube.032
v -0.223758 -0.500000 0.009877
v -0.223758 -0.261403 0.009877
v -0.003980 -0.500000 -0.322918
v -0.003980 -0.261403 -0.322918
v 0.109037 -0.500000 0.229654
v 0.109037 -0.261403 0.229654
v 0.328815 -0.500000 -0.103140
v 0.328815 -0.261403 -0.103140
v -0.409290 -0.500000 -0.110886
v -0.409290 -0.385802 -0.110886
v -0.304859 -0.500000 -0.350632
v -0.304859 -0.385802 -0.350632
v -0.169544 -0.500000 -0.006455
v -0.169544 -0.385802 -0.006455
v -0.065113 -0.500000 -0.246201
v -0.065113 -0.385802 -0.246201
v -0.121396 -0.500000 0.336637
v -0.121396 -0.419969 0.336637
v -0.005421 -0.500000 0.270850
v -0.005421 -0.419969 0.270850
v -0.055609 -0.500000 0.452612
v -0.055609 -0.419969 0.452612
v 0.060366 -0.500000 0.386824
v 0.060366 -0.419969 0.386824
v 0.167310 -0.500000 -0.290472
v 0.167310 -0.419969 -0.290472
v 0.283285 -0.500000 -0.356260
v 0.283285 -0.419969 -0.356260
v 0.233098 -0.500000 -0.174497
v 0.233098 -0.419969 -0.174497
v 0.349073 -0.500000 -0.240285
v 0.349073 -0.419969 -0.240285
vt 0.142904 0.142904
vt 0.475491 0.142904
vt 0.475491 0.857096
vt 0.142904 0.857096
vt 0.142904 0.142904
vt 0.476469 0.142904
vt 0.476469 0.857096
vt 0.142904 0.857096
vt 0.142904 0.142904
vt 0.476469 0.142904
vt 0.476469 0.857096
vt 0.142904 0.857096
vt 0.142904 0.142904
vt 0.476469 0.142904
vt 0.476469 0.857096
vt 0.142904 0.857096
vt 0.857096 0.142904
vt 0.857096 0.857096
vt 0.142904 0.142904
vt 0.857096 0.142904
vt 0.857096 0.857096
vt 0.142904 0.857096
vt 0.221201 0.221201
vt 0.480865 0.221201
vt 0.480865 0.778799
vt 0.221201 0.778799
vt 0.221201 0.221201
vt 0.481629 0.221201
vt 0.481629 0.778799
vt 0.221201 0.778799
vt 0.221201 0.221201
vt 0.481629 0.221201
vt 0.481629 0.778799
vt 0.221201 0.778799
vt 0.221201 0.221201
vt 0.481629 0.221201
vt 0.481629 0.778799
vt 0.221201 0.778799
vt 0.778799 0.221201
vt 0.778799 0.778799
vt 0.221201 0.221201
vt 0.778799 0.221201
vt 0.778799 0.778799
vt 0.221201 0.778799
vt 0.316416 0.316416
vt 0.487400 0.316416
vt 0.487400 0.683584
vt 0.316416 0.683584
vt 0.316416 0.316416
vt 0.487903 0.316416
vt 0.487903 0.683584
vt 0.316416 0.683584
vt 0.316416 0.316416
vt 0.487903 0.316416
vt 0.487903 0.683584
vt 0.316416 0.683584
vt 0.316416 0.316416
vt 0.487903 0.316416
vt 0.487903 0.683584
vt 0.316416 0.683584
vt 0.683584 0.316416
vt 0.683584 0.683584
vt 0.316416 0.316416
vt 0.683584 0.316416
vt 0.683584 0.683584
vt 0.316416 0.683584
vt 0.316416 0.316416
vt 0.487400 0.316416
vt 0.487400 0.683584
vt 0.316416 0.683584
vt 0.316416 0.316416
vt 0.487903 0.316416
vt 0.487903 0.683584
vt 0.316416 0.683584
vt 0.316416 0.316416
vt 0.487903 0.316416
vt 0.487903 0.683584
vt 0.316416 0.683584
vt 0.316416 0.316416
vt 0.487903 0.316416
vt 0.487903 0.683584
vt 0.316416 0.683584
vt 0.683584 0.316416
vt 0.683584 0.683584
vt 0.316416 0.316416
vt 0.683584 0.316416
vt 0.683584 0.683584
vt 0.316416 0.683584
vn -0.8345 0.0000 -0.5511
vn 0.5511 0.0000 -0.8345
vn 0.8345 0.0000 0.5511
vn -0.5511 0.0000 0.8345
vn 0.0000 -1.0000 0.0000
vn 0.0000 1.0000 -0.0000
vn -0.9168 0.0000 -0.3993
vn 0.3993 0.0000 -0.9168
vn 0.9168 0.0000 0.3993
vn -0.3993 0.0000 0.9168
vn -0.4934 0.0000 -0.8698
vn 0.8698 0.0000 -0.4934
vn 0.4934 0.0000 0.8698
vn -0.8698 0.0000 0.4934
g Cube.020_Cube.032_Material.042
usemtl Material.042
s off
f 1/1/1 2/2/1 4/3/1 3/4/1
f 3/5/2 4/6/2 8/7/2 7/8/2
f 7/9/3 8/10/3 6/11/3 5/12/3
f 5/13/4 6/14/4 2/15/4 1/16/4
f 3/5/5 7/17/5 5/18/5 1/16/5
f 8/19/6 4/20/6 2/21/6 6/22/6
f 9/23/7 10/24/7 12/25/7 11/26/7
f 11/27/8 12/28/8 16/29/8 15/30/8
f 15/31/9 16/32/9 14/33/9 13/34/9
f 13/35/10 14/36/10 10/37/10 9/38/10
f 11/27/5 15/39/5 13/40/5 9/38/5
f 16/41/6 12/42/6 10/43/6 14/44/6
f 17/45/11 18/46/11 20/47/11 19/48/11
f 19/49/12 20/50/12 24/51/12 23/52/12
f 23/53/13 24/54/13 22/55/13 21/56/13
f 21/57/14 22/58/14 18/59/14 17/60/14
f 19/49/5 23/61/5 21/62/5 17/60/5
f 24/63/6 20/64/6 18/65/6 22/66/6
f 25/67/11 26/68/11 28/69/11 27/70/11
f 27/71/12 28/72/12 32/73/12 31/74/12
f 31/75/13 32/76/13 30/77/13 29/78/13
f 29/79/14 30/80/14 26/81/14 25/82/14
f 27/71/5 31/83/5 29/84/5 25/82/5
f 32/85/6 28/86/6 26/87/6 30/88/6
