# Blender v3.0.0 OBJ File: 'models.blend'
# www.blender.org
mtllib stick_2.mtl
o Cube.024_Cube.038
v -0.230862 -0.500229 -0.110379
v -0.230862 -0.412174 -0.110379
v -0.179968 -0.500229 -0.169934
v -0.179968 -0.412174 -0.169934
v 0.312137 -0.500229 0.353642
v 0.312137 -0.412174 0.353642
v 0.363030 -0.500229 0.294087
v 0.363030 -0.412174 0.294087
v -0.155339 -0.465271 0.037440
v -0.164388 -0.463602 0.068344
v -0.153732 -0.436649 0.036365
v -0.162781 -0.434981 0.067269
v 0.095276 -0.476563 0.111435
v 0.086227 -0.474894 0.142339
v 0.096883 -0.447941 0.110360
v 0.087834 -0.446272 0.141264
v -0.333668 -0.361003 0.160269
v -0.333668 -0.275811 0.137995
v -0.384444 -0.376092 0.102553
v -0.384444 -0.290901 0.080280
v 0.210245 -0.478105 -0.287625
v 0.210245 -0.392914 -0.309898
v 0.159469 -0.493195 -0.345340
v 0.159469 -0.408004 -0.367614
v -0.175782 -0.340143 0.101849
v -0.146693 -0.335035 0.114791
v -0.176590 -0.312897 0.092909
v -0.147501 -0.307788 0.105852
v -0.063156 -0.410712 -0.123421
v -0.034068 -0.405603 -0.110478
v -0.063964 -0.383465 -0.132360
v -0.034876 -0.378357 -0.119417
vt 0.744041 0.000000
vt 0.867322 0.000000
vt 0.867321 1.000000
vt 0.744041 1.000000
vt 0.744041 0.000000
vt 0.867322 0.000000
vt 0.867321 1.000000
vt 0.744041 1.000000
vt 0.180234 0.000000
vt 0.180234 1.000000
vt 0.070556 1.000000
vt 0.070556 0.000000
vt 0.070556 1.000000
vt 0.070556 0.000000
vt 0.180234 0.000000
vt 0.180234 1.000000
vt 0.675084 0.632795
vt 0.675084 0.685453
vt 0.247946 0.685453
vt 0.247946 0.632795
vt 0.675084 0.632795
vt 0.675084 0.685453
vt 0.247946 0.685453
vt 0.247946 0.632795
vt 0.247946 0.638606
vt 0.675084 0.638605
vt 0.675084 0.685453
vt 0.247946 0.685453
vt 0.675084 0.685453
vt 0.247946 0.685453
vt 0.247946 0.638605
vt 0.675084 0.638605
vt 0.744041 0.000000
vt 0.867322 0.000000
vt 0.867321 1.000000
vt 0.744041 1.000000
vt 0.744041 0.000000
vt 0.867322 0.000000
vt 0.867321 1.000000
vt 0.744041 1.000000
vt 0.180234 0.000000
vt 0.180234 1.000000
vt 0.070556 1.000000
vt 0.070556 0.000000
vt 0.070556 1.000000
vt 0.070556 0.000000
vt 0.180234 0.000000
vt 0.180234 1.000000
vt 0.675084 0.632795
vt 0.675084 0.685453
vt 0.247946 0.685453
vt 0.247946 0.632795
vt 0.675084 0.632795
vt 0.675084 0.685453
vt 0.247946 0.685453
vt 0.247946 0.632795
vt 0.247946 0.638606
vt 0.675084 0.638605
vt 0.675084 0.685453
vt 0.247946 0.685453
vt 0.675084 0.685453
vt 0.247946 0.685453
vt 0.247946 0.638605
vt 0.675084 0.638605
vt 0.244510 0.086924
vt 0.416075 0.086924
vt 0.416075 0.258490
vt 0.244510 0.258490
vt 0.244510 0.086924
vt 0.416075 0.086924
vt 0.416075 0.258490
vt 0.244510 0.258490
vt 0.307487 0.176034
vt 0.380769 0.176034
vt 0.380769 0.249317
vt 0.307487 0.249317
vt 0.307487 0.176034
vt 0.380769 0.176034
vt 0.380769 0.249317
vt 0.307487 0.249317
vt 0.244510 0.086924
vt 0.416075 0.086924
vt 0.416075 0.258490
vt 0.244510 0.258490
vt 0.244510 0.086924
vt 0.416075 0.086924
vt 0.416075 0.258490
vt 0.244510 0.258490
vt 0.307487 0.176034
vt 0.380769 0.176034
vt 0.380769 0.249317
vt 0.307487 0.249317
vt 0.307487 0.176034
vt 0.380769 0.176034
vt 0.380769 0.249317
vt 0.307487 0.249317
vn 0.6497 0.0000 -0.7602
vn -0.6497 0.0000 0.7602
vn 0.0000 -1.0000 0.0000
vn 0.0000 1.0000 0.0000
vn 0.0560 0.9977 -0.0375
vn -0.0560 -0.9977 0.0375
vn 0.2806 -0.0518 -0.9584
vn -0.2806 0.0518 0.9584
vn -0.6482 -0.1926 -0.7367
vn 0.6482 0.1926 0.7367
vn 0.0000 -0.9675 0.2529
vn -0.0000 0.9675 -0.2529
vn -0.0282 0.9498 -0.3116
vn 0.0282 -0.9498 0.3116
vn -0.9021 -0.1584 -0.4014
vn 0.9021 0.1584 0.4014
vn -0.7602 0.0000 -0.6497
vn 0.7602 0.0000 0.6497
vn -0.9582 0.0432 -0.2829
vn 0.9582 -0.0432 0.2829
vn -0.7615 0.1639 0.6271
vn 0.7615 -0.1640 -0.6271
vn -0.4306 0.2698 0.8613
vn 0.4306 -0.2698 -0.8613
g Cube.024_Cube.038_Material.040
usemtl Material.040
s off
f 3/1/1 4/2/1 8/3/1 7/4/1
f 5/5/2 6/6/2 2/7/2 1/8/2
f 3/9/3 7/10/3 5/11/3 1/12/3
f 8/13/4 4/14/4 2/15/4 6/16/4
f 11/17/5 12/18/5 16/19/5 15/20/5
f 13/21/6 14/22/6 10/23/6 9/24/6
f 11/25/7 15/26/7 13/27/7 9/28/7
f 16/29/8 12/30/8 10/31/8 14/32/8
f 19/33/9 20/34/9 24/35/9 23/36/9
f 21/37/10 22/38/10 18/39/10 17/40/10
f 19/41/11 23/42/11 21/43/11 17/44/11
f 24/45/12 20/46/12 18/47/12 22/48/12
f 27/49/13 28/50/13 32/51/13 31/52/13
f 29/53/14 30/54/14 26/55/14 25/56/14
f 27/57/15 31/58/15 29/59/15 25/60/15
f 32/61/16 28/62/16 26/63/16 30/64/16
g Cube.024_Cube.038_Material.043
usemtl Material.043
f 1/65/17 2/66/17 4/67/17 3/68/17
f 7/69/18 8/70/18 6/71/18 5/72/18
f 9/73/19 10/74/19 12/75/19 11/76/19
f 15/77/20 16/78/20 14/79/20 13/80/20
f 17/81/21 18/82/21 20/83/21 19/84/21
f 23/85/22 24/86/22 22/87/22 21/88/22
f 25/89/23 26/90/23 28/91/23 27/92/23
f 31/93/24 32/94/24 30/95/24 29/96/24
