# Blender v3.0.0 OBJ File: 'models.blend'
# www.blender.org
mtllib nbt_palmtree_log.mtl
o Cube.025_Cube.041
v -0.303219 -0.500000 0.303219
v -0.405610 0.500000 0.405610
v -0.303219 -0.500000 -0.303219
v -0.405610 0.500000 -0.405610
v 0.303219 -0.500000 0.303219
v 0.405610 0.500000 0.405610
v 0.303219 -0.500000 -0.303219
v 0.405610 0.500000 -0.405610
vt 0.000000 1.000000
vt 0.000000 0.000000
vt 1.000000 0.000000
vt 1.000000 1.000000
vt 0.000000 1.000000
vt 0.000000 0.000000
vt 1.000000 0.000000
vt 1.000000 1.000000
vt 0.000000 1.000000
vt 0.000000 0.000000
vt 1.000000 0.000000
vt 1.000000 1.000000
vt 0.000000 1.000000
vt 0.000000 0.000000
vt 1.000000 0.000000
vt 1.000000 1.000000
vt 1.000000 1.000000
vt 0.000000 1.000000
vt 0.000000 0.000000
vt 1.000000 0.000000
vn -0.9948 -0.1019 0.0000
vn 0.0000 -0.1019 -0.9948
vn 0.9948 -0.1019 0.0000
vn 0.0000 -0.1019 0.9948
vn 0.0000 1.0000 0.0000
vn 0.0000 -1.0000 0.0000
g Cube.025_Cube.041_Material.039
usemtl Material.039
s off
f 1/1/1 2/2/1 4/3/1 3/4/1
f 3/5/2 4/6/2 8/7/2 7/8/2
f 7/9/3 8/10/3 6/11/3 5/12/3
f 5/13/4 6/14/4 2/15/4 1/16/4
g Cube.025_Cube.041_Material.052
usemtl Material.052
f 8/10/5 4/3/5 2/17/5 6/18/5
g Cube.025_Cube.041_Material.057
usemtl Material.057
f 3/5/6 7/19/6 5/20/6 1/16/6
