# Blender v3.0.0 OBJ File: 'models.blend'
# www.blender.org
mtllib small_log.mtl
o Cube.028_Cube.044
v -0.300000 -0.500000 0.300000
v -0.300000 0.500000 0.300000
v -0.300000 -0.500000 -0.300000
v -0.300000 0.500000 -0.300000
v 0.300000 -0.500000 0.300000
v 0.300000 0.500000 0.300000
v 0.300000 -0.500000 -0.300000
v 0.300000 0.500000 -0.300000
vt 0.004272 1.000000
vt 0.004272 0.000000
vt 0.999634 0.000000
vt 0.999634 1.000000
vt 0.004272 1.000000
vt 0.004272 0.000000
vt 0.999634 0.000000
vt 0.999634 1.000000
vt 0.004272 1.000000
vt 0.004272 0.000000
vt 0.999634 0.000000
vt 0.999634 1.000000
vt 0.004272 1.000000
vt 0.004272 0.000000
vt 0.999634 0.000000
vt 0.999634 1.000000
vt 0.000000 1.000000
vt 0.000000 0.000000
vt 1.000000 0.000000
vt 1.000000 1.000000
vt 0.000000 1.000000
vt 0.000000 0.000000
vt 1.000000 0.000000
vt 1.000000 1.000000
vn -1.0000 0.0000 0.0000
vn 0.0000 0.0000 -1.0000
vn 0.0000 0.0000 1.0000
vn 1.0000 0.0000 0.0000
vn 0.0000 1.0000 0.0000
vn 0.0000 -1.0000 0.0000
g Cube.028_Cube.044_Material.045
usemtl Material.045
s off
f 1/1/1 2/2/1 4/3/1 3/4/1
f 3/5/2 4/6/2 8/7/2 7/8/2
f 5/9/3 6/10/3 2/11/3 1/12/3
f 7/13/4 8/14/4 6/15/4 5/16/4
g Cube.028_Cube.044_Material.046
usemtl Material.046
f 8/17/5 4/18/5 2/19/5 6/20/5
f 3/21/6 7/22/6 5/23/6 1/24/6
