# Blender v3.0.0 OBJ File: 'models.blend'
# www.blender.org
mtllib nbt_bush_blooming.mtl
o Cube.023_Cube.037
v -0.215868 0.579209 0.272064
v -0.396807 0.486557 0.482441
v 0.113934 -0.501081 -0.126394
v 0.485745 -0.481576 -0.061293
v 0.401378 -0.431145 0.485080
v 0.053947 0.359117 -0.456051
v -0.570752 0.235216 -0.223383
v -0.475218 0.371260 -0.487115
v -0.502421 -0.437298 -0.439624
v -0.427382 0.001058 -0.440364
v -0.585610 -0.075402 0.262683
v -0.519944 0.156145 0.032759
v -0.478564 -0.067829 0.482291
v 0.202609 -0.085699 -0.571339
v 0.543936 -0.022292 -0.559822
v -0.277949 0.372635 -0.541402
v 0.573042 -0.124712 0.194918
v 0.662466 0.056543 0.177216
v 0.495686 -0.008321 0.502529
v 0.456864 -0.401795 -0.438431
v 0.477315 0.367811 -0.428459
v 0.568716 0.503924 -0.000198
v -0.170656 -0.232862 0.567872
v 0.227408 -0.086924 0.602328
v 0.292524 0.417777 0.427941
v 0.000173 -0.614883 0.224906
v -0.355806 -0.424277 0.469650
v -0.270708 -0.590330 -0.175353
v 0.239087 -0.600501 -0.235323
v 0.286658 0.527431 0.066689
v -0.104150 0.639845 -0.221126
v -0.437642 0.475846 -0.007148
v 0.157796 -0.477339 -0.476524
v -0.526459 -0.504783 0.103553
v -0.413719 -0.500000 0.293388
v 0.288432 -0.500000 -0.418675
v 0.319594 0.500000 -0.387512
v -0.368866 0.500000 0.338240
v 0.272202 -0.500000 0.434904
v -0.480334 -0.500000 -0.226773
v -0.320070 0.500000 -0.387037
v 0.354873 0.500000 0.352234
v 0.282478 -0.510773 0.425738
v 0.409285 -0.409564 0.625825
v 0.633510 -0.465858 0.512195
v 0.506703 -0.567067 0.312108
v -0.176509 0.457880 0.426171
v -0.409189 0.358407 0.377974
v -0.453836 0.340237 0.631024
v -0.221156 0.439710 0.679220
v 0.424832 0.112871 0.498220
v 0.326708 0.272784 0.321706
v 0.539300 0.417668 0.334784
v 0.637424 0.257755 0.511298
v -0.372435 0.021662 -0.041880
v -0.611561 0.029609 -0.137344
v -0.701361 -0.078363 0.078609
v -0.462235 -0.086311 0.174072
v -0.307041 0.392497 0.136765
v -0.461500 0.284568 0.312410
v -0.667481 0.356348 0.175381
v -0.513022 0.464277 -0.000265
v 0.474312 -0.243713 -0.376968
v 0.668344 -0.191340 -0.538109
v 0.498912 -0.133572 -0.723348
v 0.304881 -0.185945 -0.562207
v 0.522136 0.094757 -0.717336
v 0.615919 0.106487 -0.477701
v 0.591149 -0.148957 -0.455504
v 0.497366 -0.160687 -0.695139
v -0.285405 0.407190 -0.382082
v -0.084808 0.538965 -0.475644
v -0.027732 0.341678 -0.631136
v -0.228330 0.209904 -0.537575
v 0.408242 -0.131169 0.319254
v 0.417144 -0.339111 0.471040
v 0.627245 -0.245471 0.587000
v 0.618343 -0.037530 0.435214
v 0.499578 0.124555 0.601652
v 0.480011 -0.128008 0.648413
v 0.586331 -0.178662 0.419311
v 0.605898 0.073901 0.372550
v 0.447874 -0.006109 0.356275
v 0.685574 -0.000739 0.455408
v 0.749651 -0.205511 0.312858
v 0.511950 -0.210881 0.213725
v 0.504298 0.417989 -0.100097
v 0.559821 0.301374 0.122784
v 0.756668 0.179414 0.009936
v 0.701145 0.296028 -0.212946
v -0.605013 -0.119613 0.415573
v -0.490576 0.108133 0.378242
v -0.339065 0.065426 0.582150
v -0.453502 -0.162321 0.619480
v 0.272691 -0.024634 0.492802
v 0.103065 -0.217899 0.477528
v 0.050296 -0.191402 0.728269
v 0.219921 0.001864 0.743543
v -0.018237 -0.518930 0.519418
v -0.149593 -0.346177 0.380639
v -0.358389 -0.496699 0.390896
v -0.227033 -0.669452 0.529675
v -0.062273 -0.344241 0.516691
v 0.015465 -0.490770 0.319603
v 0.008166 -0.698783 0.471375
v -0.069571 -0.552254 0.668464
v -0.282266 -0.622339 -0.119265
v -0.157581 -0.546154 -0.331414
v 0.066072 -0.557717 -0.204120
v -0.058614 -0.633902 0.008028
v 0.334652 -0.405930 -0.184913
v 0.176156 -0.387634 0.017329
v 0.247289 -0.622929 0.094361
v 0.405785 -0.641225 -0.107881
v 0.009446 0.427559 0.310712
v 0.026134 0.335650 0.550779
v 0.044691 0.576025 0.641516
v 0.028002 0.667934 0.401450
v -0.001802 0.475074 -0.109100
v -0.037004 0.712080 -0.203686
v 0.218167 0.745744 -0.214299
v 0.253368 0.508738 -0.119713
v -0.156052 0.421230 -0.044445
v -0.388955 0.445559 -0.151785
v -0.413093 0.679381 -0.046418
v -0.180190 0.655053 0.060923
v -0.561424 0.392462 0.089224
v -0.318252 0.356671 0.012128
v -0.329536 0.574660 -0.124663
v -0.572709 0.610450 -0.047566
v -0.309874 0.452455 -0.275034
v -0.385364 0.698677 -0.280857
v -0.472979 0.677522 -0.039540
v -0.397490 0.431300 -0.033718
v -0.165760 0.567984 -0.182361
v -0.273063 0.369015 -0.058850
v -0.403385 0.532627 0.091499
v -0.296082 0.731596 -0.032012
v -0.312872 0.470950 -0.235515
v -0.467248 0.610918 -0.084073
v -0.654394 0.595284 -0.260396
v -0.500018 0.455316 -0.411838
v 0.445275 0.511561 -0.009998
v 0.337836 0.427932 -0.228678
v 0.311056 0.671349 -0.308609
v 0.418494 0.754977 -0.089929
v 0.637853 0.665311 -0.128554
v 0.547537 0.424642 -0.145273
v 0.378334 0.475109 0.042294
v 0.468650 0.715778 0.059013
v 0.301518 0.518769 0.155410
v 0.270819 0.391481 -0.066430
v 0.254248 0.615434 -0.192637
v 0.284947 0.742722 0.029203
v 0.280839 0.440151 -0.240616
v 0.353043 0.350606 -0.471107
v 0.408714 0.590444 -0.546844
v 0.336510 0.679990 -0.316353
v 0.353763 0.530227 -0.235992
v 0.253185 0.599979 -0.462656
v 0.053631 0.708119 -0.340829
v 0.154209 0.638367 -0.114166
v 0.441477 0.622527 0.220108
v 0.341071 0.414991 0.105193
v 0.120600 0.450562 0.233588
v 0.221006 0.658097 0.348504
v 0.220544 0.420851 0.125977
v -0.030325 0.465985 0.163198
v -0.008952 0.689259 0.036509
v 0.241916 0.644124 -0.000712
v -0.055493 -0.409577 -0.236879
v 0.053880 -0.485904 -0.457263
v 0.144483 -0.696296 -0.339432
v 0.035110 -0.619968 -0.119047
v 0.350262 -0.665334 -0.149007
v 0.164547 -0.487076 -0.158600
v 0.093203 -0.573879 -0.390403
v 0.278917 -0.752137 -0.380811
v 0.210999 -0.536542 -0.262260
v 0.289159 -0.492735 -0.503776
v 0.054250 -0.552885 -0.590709
v -0.023910 -0.596692 -0.349194
v 0.164719 -0.484940 -0.365380
v 0.371594 -0.605416 -0.460490
v 0.418488 -0.707796 -0.228807
v 0.211613 -0.587320 -0.133697
v -0.284902 -0.468624 -0.138069
v -0.097618 -0.624764 -0.054988
v -0.265263 -0.742913 0.100877
v -0.452547 -0.586772 0.017796
v -0.216132 -0.492626 -0.185673
v -0.453279 -0.435203 -0.103079
v -0.523180 -0.681369 -0.132636
v -0.286034 -0.738793 -0.215230
v -0.318630 -0.620739 -0.213101
v -0.350448 -0.437241 -0.391073
v -0.602402 -0.429460 -0.338006
v -0.570584 -0.612957 -0.160034
v -0.191625 -0.724251 -0.146750
v -0.250563 -0.473801 -0.159359
v -0.371660 -0.513569 -0.383216
v -0.312721 -0.764019 -0.370607
v -0.273869 -0.359260 -0.338067
v -0.339603 -0.583862 -0.230407
v -0.415448 -0.671870 -0.460320
v -0.349714 -0.447268 -0.567980
v -0.283672 -0.482028 -0.282617
v -0.501394 -0.351325 -0.239355
v -0.637360 -0.568171 -0.268490
v -0.419638 -0.698874 -0.311752
v -0.052638 -0.383962 -0.314975
v 0.048024 -0.597759 -0.417522
v -0.005939 -0.726896 -0.201260
v -0.106602 -0.513100 -0.098713
v -0.183751 -0.529428 0.236205
v -0.159369 -0.430703 -0.000473
v -0.027544 -0.639457 -0.073970
v -0.051926 -0.738182 0.162708
v 0.219904 -0.123148 0.582577
v 0.137239 0.113367 0.522699
v 0.363256 0.211411 0.597942
v 0.445921 -0.025103 0.657819
v 0.235822 0.301066 0.573095
v 0.097500 0.421311 0.392081
v 0.249015 0.628492 0.413929
v 0.387336 0.508247 0.594943
v 0.503787 -0.425902 0.386385
v 0.488450 -0.186309 0.479753
v 0.309811 -0.263514 0.648528
v 0.325148 -0.503108 0.555160
v 0.438744 -0.481488 0.430469
v 0.197951 -0.568646 0.402536
v 0.116888 -0.402051 0.581512
v 0.357680 -0.314894 0.609446
v 0.129904 -0.189582 0.527714
v 0.337533 -0.120051 0.663410
v 0.401187 -0.367901 0.693012
v 0.193558 -0.437432 0.557317
v 0.300706 -0.477243 0.583468
v 0.258821 -0.252571 0.464617
v 0.512892 -0.212173 0.451445
v 0.554777 -0.436846 0.570297
v 0.317671 -0.032615 0.551596
v 0.138617 -0.155232 0.690385
v 0.272750 -0.374205 0.669976
v 0.451804 -0.251589 0.531186
v -0.221196 -0.148281 0.485623
v -0.095595 -0.199646 0.704584
v -0.234548 -0.414569 0.733874
v -0.360149 -0.363204 0.514913
v -0.111414 -0.532023 0.511504
v -0.238497 -0.309372 0.486323
v -0.048547 -0.186967 0.609992
v 0.078536 -0.409618 0.635173
v -0.380652 -0.206848 0.643557
v -0.228482 -0.097856 0.466574
v -0.022123 -0.203316 0.579055
v -0.174293 -0.312308 0.756038
v 0.506941 0.322728 -0.190944
v 0.350542 0.504468 -0.285112
v 0.550048 0.666314 -0.304106
v 0.706448 0.484574 -0.209939
v 0.410192 -0.180638 -0.362142
v 0.437321 0.040809 -0.490918
v 0.679383 -0.023731 -0.550907
v 0.652253 -0.245178 -0.422131
v 0.436277 -0.322831 -0.198400
v 0.446568 -0.065740 -0.210904
v 0.614563 -0.081931 -0.405516
v 0.604271 -0.339022 -0.393011
v 0.396147 0.117974 -0.294398
v 0.541613 0.033752 -0.099195
v 0.602745 -0.176211 -0.235342
v 0.457280 -0.091989 -0.430544
v 0.437912 -0.216128 0.221312
v 0.411308 -0.294953 0.465108
v 0.587291 -0.478721 0.424895
v 0.613896 -0.399895 0.181100
v 0.359945 -0.338121 0.138577
v 0.385214 -0.579973 0.223589
v 0.640762 -0.549425 0.234535
v 0.615493 -0.307574 0.149523
v 0.696583 0.008793 0.043574
v 0.498703 -0.057635 0.194534
v 0.656937 -0.067604 0.397562
v 0.854816 -0.001177 0.246603
v 0.490628 -0.058901 0.229105
v 0.692088 0.040591 0.103117
v 0.681350 -0.152768 -0.066749
v 0.479891 -0.252261 0.059239
v -0.117640 -0.037481 -0.374392
v 0.036378 0.165571 -0.411891
v 0.028082 0.124912 -0.666126
v -0.125936 -0.078140 -0.628627
v -0.207189 0.059330 -0.503402
v -0.335425 0.257052 -0.399386
v -0.324244 0.382514 -0.624091
v -0.196008 0.184792 -0.728106
v -0.318924 0.303120 -0.646128
v -0.244704 0.365938 -0.407584
v -0.483348 0.447276 -0.354753
v -0.557567 0.384459 -0.593297
v -0.340969 -0.329733 -0.361297
v -0.158900 -0.310668 -0.542529
v -0.212830 -0.549741 -0.621858
v -0.394900 -0.568806 -0.440626
v 0.495217 -0.175020 -0.364152
v 0.352881 -0.351455 -0.486499
v 0.510320 -0.337417 -0.689904
v 0.652656 -0.160982 -0.567557
v 0.104586 -0.275783 -0.371764
v 0.101448 -0.519477 -0.455197
v 0.055208 -0.436861 -0.694768
v 0.058346 -0.193166 -0.611335
v 0.346013 -0.455905 -0.624319
v 0.275817 -0.541034 -0.391546
v 0.028121 -0.508366 -0.454295
v 0.098317 -0.423237 -0.687068
v 0.224601 -0.404120 -0.424431
v 0.369689 -0.371179 -0.634722
v 0.229781 -0.164623 -0.698894
v 0.084693 -0.197564 -0.488603
v 0.006171 0.003695 -0.689616
v 0.002509 -0.008800 -0.432345
v 0.156291 -0.215312 -0.440185
v 0.159953 -0.202817 -0.697456
v -0.370664 0.042389 0.083839
v -0.570520 0.191255 0.149066
v -0.726421 0.044883 0.005442
v -0.526566 -0.103983 -0.059785
v -0.384598 0.105269 0.354713
v -0.390756 0.360099 0.317547
v -0.602758 0.333977 0.173567
v -0.596600 0.079146 0.210733
v -0.384380 0.257207 0.277828
v -0.485095 0.230228 0.513383
v -0.563037 0.475699 0.508172
v -0.462321 0.502677 0.272617
v -0.305992 0.256380 0.231517
v -0.538538 0.170477 0.161511
v -0.647489 0.317980 0.342426
v -0.414944 0.403884 0.412432
v -0.358590 -0.191982 0.032954
v -0.475264 -0.331889 -0.149174
v -0.680271 -0.360526 0.004155
v -0.563597 -0.220618 0.186283
v -0.401305 -0.387457 0.245321
v -0.509312 -0.236675 0.066555
v -0.722043 -0.381816 0.072662
v -0.614037 -0.532598 0.251428
v -0.364517 -0.509296 -0.117311
v -0.562896 -0.361040 -0.046434
v -0.692691 -0.434264 -0.256551
v -0.494312 -0.582519 -0.327429
v -0.425674 0.217667 -0.636763
v -0.544743 0.376315 -0.472412
v -0.569819 0.183019 -0.303991
v -0.450751 0.024371 -0.468342
v -0.388997 0.191858 -0.365692
v -0.551386 0.014914 -0.458850
v -0.726726 0.083210 -0.282926
v -0.564337 0.260154 -0.189768
v -0.510746 0.161629 -0.322734
v -0.397938 0.027834 -0.133708
v -0.626264 -0.071579 -0.067813
v -0.739071 0.062216 -0.256839
v -0.560220 0.048402 -0.256153
v -0.431686 0.270268 -0.231414
v -0.654520 0.396053 -0.201729
v -0.783054 0.174187 -0.226467
v -0.562249 0.247298 -0.198778
v -0.455122 0.481159 -0.212592
v -0.491025 0.512558 0.040554
v -0.598152 0.278698 0.054368
v 0.335889 0.062539 -0.558232
v 0.545358 0.070474 -0.408506
v 0.693639 0.021407 -0.613355
v 0.484171 0.013472 -0.763080
v 0.358660 0.094441 -0.533514
v 0.336362 0.326671 -0.642737
v 0.097193 0.347618 -0.549371
v 0.119491 0.115388 -0.440148
v 0.199733 0.000925 -0.560263
v 0.135154 0.149435 -0.359933
v -0.036654 0.272928 -0.506866
v 0.027924 0.124417 -0.707196
v 0.495540 -0.071204 0.343164
v 0.397896 0.133391 0.465493
v 0.615000 0.155131 0.602428
v 0.712644 -0.049464 0.480099
v 0.529414 0.117988 0.299774
v 0.316459 0.223734 0.398900
v 0.445621 0.282248 0.613960
v 0.658576 0.176503 0.514835
v 0.703004 0.247584 -0.043954
v 0.537972 0.277218 0.151606
v 0.559218 0.026656 0.207505
v 0.724250 -0.002978 0.011944
v 0.591061 0.195686 0.051017
v 0.572910 0.447303 0.103144
v 0.636768 0.401102 0.348390
v 0.654919 0.149485 0.296263
v -0.216053 0.374149 0.670232
v -0.374512 0.457446 0.485002
v -0.206084 0.642626 0.424191
v -0.047625 0.559329 0.609420
v 0.159918 -0.456824 -0.080131
v 0.229134 -0.402753 0.162033
v 0.113858 -0.618376 0.243126
v 0.044642 -0.672447 0.000962
v 0.090177 -0.520176 0.345788
v -0.131100 -0.576311 0.226442
v -0.000623 -0.703492 0.044348
v 0.220654 -0.647357 0.163694
v -0.221152 0.410590 0.398674
v -0.214399 0.426698 0.655681
v -0.180889 0.681553 0.638828
v -0.187642 0.665445 0.381821
v -0.283022 0.652637 0.255621
v -0.165372 0.423565 0.249122
v 0.007736 0.507614 0.420374
v -0.109914 0.736686 0.426873
v -0.131249 0.363481 0.466901
v -0.029979 0.501124 0.274141
v 0.047050 0.680229 0.442502
v -0.054219 0.542586 0.635262
v -0.360083 0.563553 0.340024
v -0.159601 0.724840 0.352322
v -0.084178 0.648957 0.117992
v -0.284660 0.487670 0.105693
v -0.244210 0.492809 0.213047
v -0.191606 0.427217 -0.030445
v -0.030144 0.627039 -0.049392
v -0.082748 0.692631 0.194100
v -0.120461 0.426782 0.212676
v -0.210514 0.665453 0.176832
v 0.030439 0.756548 0.178042
v 0.120491 0.517877 0.213886
v -0.351497 0.456451 0.361222
v -0.386497 0.334783 0.136879
v -0.545011 0.522616 0.059742
v -0.510011 0.644283 0.284085
v 0.428506 0.551719 -0.369837
v 0.264715 -0.223173 0.663573
v 0.386533 -0.398776 0.740390
v 0.455356 -0.104379 0.697058
v 0.091341 -0.325620 0.768565
v -0.553865 -0.214916 -0.238801
v -0.555235 -0.163150 -0.207054
v -0.548689 -0.131455 -0.258454
v -0.547320 -0.183220 -0.290201
v 0.160164 -0.031223 0.725233
v 0.463146 0.367193 -0.567323
v 0.282041 0.685590 -0.556590
v -0.607688 0.027588 -0.302461
v -0.601183 -0.218272 -0.453240
v -0.632269 -0.368810 -0.209117
v 0.176116 0.619503 0.124345
v 0.068033 0.706173 0.358986
v 0.411777 0.625343 0.261020
v -0.015554 0.775015 0.008894
v 0.500526 0.800739 -0.285859
v 0.328190 0.694185 -0.089072
v 0.681631 0.482343 -0.296592
v -0.638775 -0.122950 -0.058337
v -0.233070 0.018528 -0.486323
v -0.257114 -0.246922 -0.542964
v -0.504182 0.010724 -0.460104
v -0.275917 0.269377 -0.583735
v -0.028849 0.011730 -0.666595
v 0.523546 -0.295196 -0.096423
v 0.572650 -0.503934 -0.264552
v 0.573892 -0.141023 -0.315389
v 0.640237 -0.091248 0.041558
v 0.638995 -0.454159 0.092395
v -0.004071 0.298685 0.584795
v 0.217011 0.155079 0.653717
v 0.149628 0.515204 0.645997
v -0.208827 0.448939 0.683529
v -0.141445 0.088814 0.691249
v -0.581598 -0.128538 0.181012
v -0.639350 -0.285913 0.395832
v -0.626417 0.077827 0.353217
v -0.689781 0.038051 -0.005521
v -0.702714 -0.325689 0.037094
v 0.644099 0.284778 0.232293
v 0.770823 0.114441 0.151648
v 0.656993 0.365680 0.020477
v 0.761516 0.252407 0.423977
v 0.647686 0.503645 0.292805
v 0.212965 -0.051508 -0.611218
v 0.290311 -0.257475 -0.667543
v 0.026776 -0.114238 -0.725129
v 0.429691 0.012270 -0.634449
v 0.166155 0.155506 -0.692035
v -0.336941 0.541726 0.203947
v -0.213410 0.695142 0.090893
v -0.487682 0.572118 0.036822
v -0.520428 0.514114 0.334894
v -0.246156 0.637138 0.388966
v -0.369837 -0.428506 -0.551719
v 0.663572 -0.264714 0.223173
v 0.740390 -0.386533 0.398776
v 0.697058 -0.455356 0.104379
v 0.768565 -0.091341 0.325620
v -0.063057 0.554102 -0.356838
v 0.725233 -0.160164 0.031223
v -0.567323 -0.463146 -0.367193
v -0.556590 -0.282041 -0.685590
v -0.096424 0.564398 -0.581244
v -0.274160 0.636799 -0.343648
v -0.025914 0.678924 -0.170780
v 0.093196 -0.246238 -0.625200
v 0.327837 -0.138154 -0.711870
v 0.229871 -0.481898 -0.631040
v -0.022255 -0.054567 -0.780712
v -0.285859 -0.500526 -0.800739
v -0.120221 -0.398311 -0.699882
v -0.296592 -0.681631 -0.482343
v 0.151823 0.606523 -0.408376
v -0.551565 0.306822 -0.038282
v -0.606706 0.330263 0.204289
v -0.531089 0.555733 -0.030833
v -0.643913 0.347422 -0.266875
v -0.719529 0.121953 -0.031751
v -0.096423 -0.523546 0.295196
v -0.264552 -0.572650 0.503934
v -0.315389 -0.573892 0.141023
v 0.041558 -0.640237 0.091248
v 0.092395 -0.638995 0.454159
v 0.584794 0.004071 -0.298685
v 0.653717 -0.217011 -0.155079
v 0.645997 -0.149628 -0.515204
v 0.683529 0.208827 -0.448939
v 0.691249 0.141445 -0.088814
v -0.181832 -0.177030 0.621688
v -0.013982 -0.309383 0.790682
v -0.020594 0.036982 0.671194
v -0.380724 0.008829 0.609514
v -0.374111 -0.337536 0.729002
v 0.232293 -0.644098 -0.284778
v 0.151648 -0.770823 -0.114441
v 0.020477 -0.656993 -0.365680
v 0.423977 -0.761516 -0.252407
v 0.292805 -0.647686 -0.503645
v -0.611218 -0.212965 0.051508
v -0.667543 -0.290311 0.257475
v -0.725129 -0.026776 0.114238
v -0.634449 -0.429691 -0.012270
v -0.692035 -0.166155 -0.155506
v 0.203946 0.336941 -0.541726
v 0.090893 0.213410 -0.695142
v 0.036822 0.487682 -0.572118
v 0.334894 0.520428 -0.514114
v 0.388966 0.246156 -0.637138
vt 0.393211 0.021889
vt 0.931794 0.607825
vt 0.672102 0.500000
vt 0.858720 0.039614
vt 0.360842 0.564835
vt 0.018557 0.018557
vt 0.991756 0.530428
vt 0.557236 0.692764
vt 1.000000 0.427727
vt 0.591058 0.389545
vt 0.750000 0.250000
vt 0.750000 0.000000
vt 0.607619 0.250000
vt 0.428736 0.000000
vt 0.250000 0.573957
vt 0.133971 1.000000
vt 0.000000 0.530428
vt 0.672910 0.000000
vt 0.054841 0.082290
vt 0.250000 0.312852
vt 0.000000 0.381326
vt 0.978557 0.151984
vt 0.406468 0.250991
vt 0.487234 0.000000
vt 0.247438 0.690338
vt 0.007626 0.902139
vt 0.000000 0.063026
vt 0.912768 0.000000
vt 0.931794 0.410049
vt 0.474662 0.000000
vt 0.432744 0.676263
vt 0.000000 0.672910
vt 0.500000 0.022046
vt 0.065716 0.917710
vt 0.743632 0.750000
vt 0.912768 1.000000
vt 0.500000 1.000000
vt 0.994118 0.923398
vt 0.371322 1.000000
vt 0.728147 0.750000
vt 0.936974 1.000000
vt 0.889255 0.571264
vt 0.487234 1.000000
vt 0.500000 0.750000
vt 0.097861 0.992374
vt 0.000000 0.000000
vt 1.000000 0.000000
vt 0.000000 1.000000
vt 0.000000 0.427727
vt 0.000000 1.000000
vt 0.474662 1.000000
vt 0.878101 0.250000
vt 0.418389 0.250000
vt 0.000000 0.000000
vt 0.990949 0.000000
vt 1.000000 0.472327
vt 0.874644 1.000000
vt 0.991249 1.000000
vt 1.000000 1.000000
vt 0.000000 1.000000
vt 0.000000 0.000000
vt 1.000000 0.000000
vt 0.917120 1.000000
vt 1.000000 1.000000
vt 0.000000 1.000000
vt 0.000000 0.000000
vt 1.000000 0.000000
vt 0.200000 0.200000
vt 0.000000 0.200000
vt 0.000000 0.000000
vt 0.200000 0.000000
vt 1.000000 0.200000
vt 0.800000 0.200000
vt 0.800000 0.000000
vt 1.000000 0.000000
vt 0.000000 1.000000
vt 0.000000 0.800000
vt 0.200000 0.800000
vt 0.200000 1.000000
vt 1.000000 1.000000
vt 0.800000 1.000000
vt 0.800000 0.800000
vt 1.000000 0.800000
vt 0.200000 0.800000
vt 0.000000 0.800000
vt 0.000000 0.600000
vt 0.200000 0.600000
vt 0.000000 0.600000
vt 0.000000 0.400000
vt 0.200000 0.400000
vt 0.200000 0.600000
vt 0.200000 0.400000
vt 0.000000 0.400000
vt 0.000000 0.200000
vt 0.200000 0.200000
vt 0.200000 0.200000
vt 0.200000 0.000000
vt 0.400000 0.000000
vt 0.400000 0.200000
vt 0.600000 0.200000
vt 0.400000 0.200000
vt 0.400000 0.000000
vt 0.600000 0.000000
vt 0.800000 0.200000
vt 0.600000 0.200000
vt 0.600000 0.000000
vt 0.800000 0.000000
vt 1.000000 0.400000
vt 0.800000 0.400000
vt 0.800000 0.200000
vt 1.000000 0.200000
vt 0.800000 0.600000
vt 0.800000 0.400000
vt 1.000000 0.400000
vt 1.000000 0.600000
vt 0.800000 0.800000
vt 0.800000 0.600000
vt 1.000000 0.600000
vt 1.000000 0.800000
vt 0.600000 1.000000
vt 0.600000 0.800000
vt 0.800000 0.800000
vt 0.800000 1.000000
vt 0.400000 1.000000
vt 0.400000 0.800000
vt 0.600000 0.800000
vt 0.600000 1.000000
vt 0.400000 1.000000
vt 0.200000 1.000000
vt 0.200000 0.800000
vt 0.400000 0.800000
vt 0.200000 0.600000
vt 0.200000 0.400000
vt 0.400000 0.400000
vt 0.400000 0.600000
vt 0.400000 0.400000
vt 0.200000 0.400000
vt 0.200000 0.200000
vt 0.400000 0.200000
vt 0.400000 0.600000
vt 0.400000 0.400000
vt 0.600000 0.400000
vt 0.600000 0.600000
vt 0.200000 0.800000
vt 0.200000 0.600000
vt 0.400000 0.600000
vt 0.400000 0.800000
vt 0.400000 0.400000
vt 0.400000 0.200000
vt 0.600000 0.200000
vt 0.600000 0.400000
vt 0.600000 0.600000
vt 0.600000 0.400000
vt 0.800000 0.400000
vt 0.800000 0.600000
vt 0.400000 0.800000
vt 0.400000 0.600000
vt 0.600000 0.600000
vt 0.600000 0.800000
vt 0.600000 0.400000
vt 0.600000 0.200000
vt 0.800000 0.200000
vt 0.800000 0.400000
vt 0.800000 0.800000
vt 0.600000 0.800000
vt 0.600000 0.600000
vt 0.800000 0.600000
vt 0.000000 0.200000
vt 0.000000 0.000000
vt 0.200000 0.000000
vt 0.200000 0.200000
vt 1.000000 0.200000
vt 0.800000 0.200000
vt 0.800000 0.000000
vt 1.000000 0.000000
vt 0.200000 1.000000
vt 0.000000 1.000000
vt 0.000000 0.800000
vt 0.200000 0.800000
vt 1.000000 1.000000
vt 0.800000 1.000000
vt 0.800000 0.800000
vt 1.000000 0.800000
vt 0.000000 0.800000
vt 0.000000 0.600000
vt 0.200000 0.600000
vt 0.200000 0.800000
vt 0.200000 0.600000
vt 0.000000 0.600000
vt 0.000000 0.400000
vt 0.200000 0.400000
vt 0.000000 0.400000
vt 0.000000 0.200000
vt 0.200000 0.200000
vt 0.200000 0.400000
vt 0.400000 0.200000
vt 0.200000 0.200000
vt 0.200000 0.000000
vt 0.400000 0.000000
vt 0.600000 0.200000
vt 0.400000 0.200000
vt 0.400000 0.000000
vt 0.600000 0.000000
vt 0.600000 0.200000
vt 0.600000 0.000000
vt 0.800000 0.000000
vt 0.800000 0.200000
vt 0.800000 0.400000
vt 0.800000 0.200000
vt 1.000000 0.200000
vt 1.000000 0.400000
vt 1.000000 0.600000
vt 0.800000 0.600000
vt 0.800000 0.400000
vt 1.000000 0.400000
vt 1.000000 0.800000
vt 0.800000 0.800000
vt 0.800000 0.600000
vt 1.000000 0.600000
vt 0.600000 1.000000
vt 0.600000 0.800000
vt 0.800000 0.800000
vt 0.800000 1.000000
vt 0.600000 1.000000
vt 0.400000 1.000000
vt 0.400000 0.800000
vt 0.600000 0.800000
vt 0.400000 1.000000
vt 0.200000 1.000000
vt 0.200000 0.800000
vt 0.400000 0.800000
vt 0.400000 0.600000
vt 0.200000 0.600000
vt 0.200000 0.400000
vt 0.400000 0.400000
vt 0.200000 0.400000
vt 0.200000 0.200000
vt 0.400000 0.200000
vt 0.400000 0.400000
vt 0.400000 0.600000
vt 0.400000 0.400000
vt 0.600000 0.400000
vt 0.600000 0.600000
vt 0.400000 0.800000
vt 0.200000 0.800000
vt 0.200000 0.600000
vt 0.400000 0.600000
vt 0.600000 0.400000
vt 0.400000 0.400000
vt 0.400000 0.200000
vt 0.600000 0.200000
vt 0.600000 0.600000
vt 0.600000 0.400000
vt 0.800000 0.400000
vt 0.800000 0.600000
vt 0.400000 0.800000
vt 0.400000 0.600000
vt 0.600000 0.600000
vt 0.600000 0.800000
vt 0.600000 0.400000
vt 0.600000 0.200000
vt 0.800000 0.200000
vt 0.800000 0.400000
vt 0.800000 0.800000
vt 0.600000 0.800000
vt 0.600000 0.600000
vt 0.800000 0.600000
vt 0.000000 0.200000
vt 0.000000 0.000000
vt 0.200000 0.000000
vt 0.200000 0.200000
vt 0.800000 0.200000
vt 0.800000 0.000000
vt 1.000000 0.000000
vt 1.000000 0.200000
vt 0.000000 1.000000
vt 0.000000 0.800000
vt 0.200000 0.800000
vt 0.200000 1.000000
vt 0.800000 1.000000
vt 0.800000 0.800000
vt 1.000000 0.800000
vt 1.000000 1.000000
vt 0.200000 0.800000
vt 0.000000 0.800000
vt 0.000000 0.600000
vt 0.200000 0.600000
vt 0.200000 0.600000
vt 0.000000 0.600000
vt 0.000000 0.400000
vt 0.200000 0.400000
vt 0.200000 0.400000
vt 0.000000 0.400000
vt 0.000000 0.200000
vt 0.200000 0.200000
vt 0.200000 0.200000
vt 0.200000 0.000000
vt 0.400000 0.000000
vt 0.400000 0.200000
vt 0.600000 0.200000
vt 0.400000 0.200000
vt 0.400000 0.000000
vt 0.600000 0.000000
vt 0.600000 0.200000
vt 0.600000 0.000000
vt 0.800000 0.000000
vt 0.800000 0.200000
vt 0.800000 0.400000
vt 0.800000 0.200000
vt 1.000000 0.200000
vt 1.000000 0.400000
vt 0.800000 0.600000
vt 0.800000 0.400000
vt 1.000000 0.400000
vt 1.000000 0.600000
vt 1.000000 0.800000
vt 0.800000 0.800000
vt 0.800000 0.600000
vt 1.000000 0.600000
vt 0.600000 1.000000
vt 0.600000 0.800000
vt 0.800000 0.800000
vt 0.800000 1.000000
vt 0.400000 1.000000
vt 0.400000 0.800000
vt 0.600000 0.800000
vt 0.600000 1.000000
vt 0.400000 1.000000
vt 0.200000 1.000000
vt 0.200000 0.800000
vt 0.400000 0.800000
vt 0.400000 0.600000
vt 0.200000 0.600000
vt 0.200000 0.400000
vt 0.400000 0.400000
vt 0.200000 0.400000
vt 0.200000 0.200000
vt 0.400000 0.200000
vt 0.400000 0.400000
vt 0.400000 0.600000
vt 0.400000 0.400000
vt 0.600000 0.400000
vt 0.600000 0.600000
vt 0.200000 0.800000
vt 0.200000 0.600000
vt 0.400000 0.600000
vt 0.400000 0.800000
vt 0.400000 0.400000
vt 0.400000 0.200000
vt 0.600000 0.200000
vt 0.600000 0.400000
vt 0.800000 0.600000
vt 0.600000 0.600000
vt 0.600000 0.400000
vt 0.800000 0.400000
vt 0.600000 0.800000
vt 0.400000 0.800000
vt 0.400000 0.600000
vt 0.600000 0.600000
vt 0.600000 0.400000
vt 0.600000 0.200000
vt 0.800000 0.200000
vt 0.800000 0.400000
vt 0.600000 0.800000
vt 0.600000 0.600000
vt 0.800000 0.600000
vt 0.800000 0.800000
vt 0.200000 0.200000
vt 0.000000 0.200000
vt 0.000000 0.000000
vt 0.200000 0.000000
vt 0.800000 0.200000
vt 0.800000 0.000000
vt 1.000000 0.000000
vt 1.000000 0.200000
vt 0.000000 1.000000
vt 0.000000 0.800000
vt 0.200000 0.800000
vt 0.200000 1.000000
vt 1.000000 1.000000
vt 0.800000 1.000000
vt 0.800000 0.800000
vt 1.000000 0.800000
vt 0.000000 0.800000
vt 0.000000 0.600000
vt 0.200000 0.600000
vt 0.200000 0.800000
vt 0.000000 0.600000
vt 0.000000 0.400000
vt 0.200000 0.400000
vt 0.200000 0.600000
vt 0.000000 0.400000
vt 0.000000 0.200000
vt 0.200000 0.200000
vt 0.200000 0.400000
vt 0.400000 0.200000
vt 0.200000 0.200000
vt 0.200000 0.000000
vt 0.400000 0.000000
vt 0.600000 0.200000
vt 0.400000 0.200000
vt 0.400000 0.000000
vt 0.600000 0.000000
vt 0.800000 0.200000
vt 0.600000 0.200000
vt 0.600000 0.000000
vt 0.800000 0.000000
vt 1.000000 0.400000
vt 0.800000 0.400000
vt 0.800000 0.200000
vt 1.000000 0.200000
vt 0.800000 0.600000
vt 0.800000 0.400000
vt 1.000000 0.400000
vt 1.000000 0.600000
vt 1.000000 0.800000
vt 0.800000 0.800000
vt 0.800000 0.600000
vt 1.000000 0.600000
vt 0.600000 1.000000
vt 0.600000 0.800000
vt 0.800000 0.800000
vt 0.800000 1.000000
vt 0.600000 1.000000
vt 0.400000 1.000000
vt 0.400000 0.800000
vt 0.600000 0.800000
vt 0.200000 1.000000
vt 0.200000 0.800000
vt 0.400000 0.800000
vt 0.400000 1.000000
vt 0.400000 0.600000
vt 0.200000 0.600000
vt 0.200000 0.400000
vt 0.400000 0.400000
vt 0.400000 0.400000
vt 0.200000 0.400000
vt 0.200000 0.200000
vt 0.400000 0.200000
vt 0.400000 0.600000
vt 0.400000 0.400000
vt 0.600000 0.400000
vt 0.600000 0.600000
vt 0.400000 0.800000
vt 0.200000 0.800000
vt 0.200000 0.600000
vt 0.400000 0.600000
vt 0.400000 0.400000
vt 0.400000 0.200000
vt 0.600000 0.200000
vt 0.600000 0.400000
vt 0.600000 0.600000
vt 0.600000 0.400000
vt 0.800000 0.400000
vt 0.800000 0.600000
vt 0.400000 0.800000
vt 0.400000 0.600000
vt 0.600000 0.600000
vt 0.600000 0.800000
vt 0.800000 0.400000
vt 0.600000 0.400000
vt 0.600000 0.200000
vt 0.800000 0.200000
vt 0.600000 0.800000
vt 0.600000 0.600000
vt 0.800000 0.600000
vt 0.800000 0.800000
vt 0.280467 0.719533
vt 0.540427 0.469755
vt 0.540427 0.989518
vt 0.020664 0.469755
vt 0.220467 0.659533
vt 0.340467 0.659533
vt 0.340467 0.779533
vt 0.220467 0.779533
vt 0.020664 0.989518
vt 0.750000 0.750000
vt 1.000000 0.500000
vt 1.000000 1.000000
vt 0.525455 0.979636
vt 0.025455 0.979636
vt 0.025455 0.479636
vt 0.750000 0.750000
vt 0.500000 0.500000
vt 1.000000 0.500000
vt 0.500000 1.000000
vt 0.500000 1.000000
vt 1.000000 1.000000
vt 0.500000 0.500000
vt 0.525455 0.479636
vt 0.750000 0.750000
vt 1.000000 0.500000
vt 1.000000 1.000000
vt 0.500000 1.000000
vt 0.500000 0.500000
vt 0.750000 0.750000
vt 1.000000 0.500000
vt 1.000000 1.000000
vt 0.500000 1.000000
vt 0.500000 0.500000
vt 0.750000 0.750000
vt 1.000000 0.500000
vt 1.000000 1.000000
vt 0.500000 1.000000
vt 0.500000 0.500000
vt 0.750000 0.750000
vt 1.000000 0.500000
vt 1.000000 1.000000
vt 0.500000 1.000000
vt 0.500000 0.500000
vt 0.280467 0.719533
vt 0.540427 0.469755
vt 0.540427 0.989518
vt 0.020664 0.469755
vt 0.020664 0.989518
vt 0.280467 0.719533
vt 0.540427 0.469755
vt 0.540427 0.989518
vt 0.020664 0.469755
vt 0.020664 0.989518
vt 0.280467 0.719533
vt 0.525455 0.979636
vt 0.025455 0.979636
vt 0.025455 0.479636
vt 0.525455 0.479636
vt 0.280467 0.719533
vt 0.540427 0.469755
vt 0.540427 0.989518
vt 0.020664 0.469755
vt 0.020664 0.989518
vt 0.750000 0.750000
vt 1.000000 0.500000
vt 1.000000 1.000000
vt 0.280467 0.719533
vt 0.525455 0.979636
vt 0.025455 0.979636
vt 0.025455 0.479636
vt 0.750000 0.750000
vt 0.500000 0.500000
vt 1.000000 0.500000
vt 0.500000 1.000000
vt 0.500000 1.000000
vt 1.000000 1.000000
vt 0.500000 0.500000
vt 0.525455 0.479636
vt 0.750000 0.750000
vt 1.000000 0.500000
vt 1.000000 1.000000
vt 0.500000 1.000000
vt 0.500000 0.500000
vt 0.750000 0.750000
vt 1.000000 0.500000
vt 1.000000 1.000000
vt 0.500000 1.000000
vt 0.500000 0.500000
vt 0.750000 0.750000
vt 1.000000 0.500000
vt 1.000000 1.000000
vt 0.500000 1.000000
vt 0.500000 0.500000
vt 0.750000 0.750000
vt 1.000000 0.500000
vt 1.000000 1.000000
vt 0.500000 1.000000
vt 0.500000 0.500000
vt 0.280467 0.719533
vt 0.540427 0.469755
vt 0.540427 0.989518
vt 0.020664 0.469755
vt 0.020664 0.989518
vt 0.280467 0.719533
vt 0.540427 0.469755
vt 0.540427 0.989518
vt 0.020664 0.469755
vt 0.020664 0.989518
vt 0.280467 0.719533
vt 0.525455 0.979636
vt 0.025455 0.979636
vt 0.025455 0.479636
vt 0.525455 0.479636
vn -0.5594 0.0504 0.8274
vn -0.9702 0.1982 0.1391
vn -0.9376 0.2689 0.2203
vn 0.9657 -0.1099 -0.2351
vn 0.9207 -0.2248 -0.3190
vn 0.9851 -0.0240 -0.1702
vn 0.7980 0.5787 0.1684
vn 0.8691 0.3526 0.3470
vn 0.9649 0.1070 -0.2399
vn 0.0091 -0.9711 0.2387
vn 0.1418 -0.9591 0.2449
vn -0.0693 -0.7752 0.6279
vn -0.0976 0.3371 -0.9364
vn -0.0655 0.9883 -0.1376
vn 0.1106 0.4963 -0.8611
vn 0.1163 0.9661 0.2306
vn 0.3678 0.6391 0.6755
vn 0.1485 -0.9608 -0.2341
vn -0.0685 -0.9481 -0.3105
vn -0.1237 -0.9914 -0.0417
vn -0.2501 -0.9167 -0.3116
vn -0.2667 -0.9169 -0.2971
vn -0.4390 -0.8890 -0.1299
vn -0.0134 -0.9999 0.0060
vn 0.1378 0.0039 0.9904
vn 0.3173 0.1126 0.9416
vn -0.1351 -0.1836 0.9737
vn -0.2058 -0.2818 0.9371
vn 0.1596 -0.2674 0.9503
vn -0.6943 0.3838 -0.6088
vn -0.3303 0.9439 0.0005
vn 0.8485 0.0168 -0.5289
vn 0.2306 0.6324 -0.7396
vn 0.8535 -0.0294 0.5202
vn -0.2993 -0.0208 -0.9539
vn -0.0140 -0.0068 -0.9999
vn 0.0206 -0.2555 -0.9666
vn -0.4220 0.0611 -0.9045
vn -0.9873 0.0501 0.1507
vn -0.9993 -0.0353 0.0073
vn -0.9990 0.0052 -0.0436
vn -0.9898 0.1425 -0.0086
vn -0.7233 -0.1777 -0.6672
vn -0.9121 0.3893 0.1283
vn -0.8335 0.1393 0.5347
vn -0.0942 0.8446 0.5270
vn -0.0750 0.9923 0.0983
vn -0.2203 0.9587 -0.1799
vn 0.1733 -0.9600 0.2202
vn -0.7579 0.1287 -0.6396
vn 0.9195 -0.3138 0.2367
vn 0.8504 -0.3844 0.3593
vn 0.9048 -0.3260 0.2740
vn 0.0969 -0.9802 0.1729
vn -0.0807 -0.9467 0.3119
vn 0.2116 0.8369 -0.5048
vn 0.4322 -0.8312 -0.3498
vn -0.0790 -0.8912 -0.4468
vn -0.5343 -0.7930 0.2928
vn -0.0608 -0.9685 0.2413
vn -0.7294 -0.5211 0.4431
vn 0.9257 -0.2976 0.2334
vn 0.9782 -0.2076 -0.0010
vn 0.7785 -0.4288 -0.4584
vn 0.9808 -0.1615 -0.1093
vn 0.1361 -0.2890 -0.9476
vn -0.9751 0.1144 0.1898
vn -0.8884 -0.0709 0.4535
vn -0.9737 0.2212 -0.0553
vn 0.7501 0.4057 0.5223
vn 0.7178 -0.0537 0.6942
vn 0.6903 -0.1693 -0.7034
vn -0.0036 0.8932 -0.4496
vn -0.3925 0.9197 -0.0032
vn 0.4169 -0.5462 -0.7266
vn -0.1295 0.9074 0.3998
vn 0.0329 -0.8642 -0.5021
vn -0.0059 0.9531 0.3026
vn 0.9264 -0.1208 -0.3566
vn -0.5869 0.3896 -0.7097
vn -0.5776 0.4650 0.6709
vn 0.9077 0.0074 0.4196
vn 0.2944 0.6064 -0.7387
vn 0.6080 0.7556 0.2439
vn 0.6758 -0.4369 -0.5937
vn -0.7242 0.6531 -0.2214
vn -0.2881 0.4570 0.8415
vn -0.9530 -0.1561 -0.2598
vn 0.1092 -0.9542 -0.2785
vn 0.7384 0.4008 0.5424
vn -0.9953 0.0443 0.0862
vn 0.0101 -0.3693 -0.9292
vn 0.4169 0.4089 -0.8118
vn 0.3270 0.5144 0.7927
vn 0.8936 0.2822 0.3492
vn -0.7553 0.0006 -0.6553
vn -0.3362 -0.8373 0.4311
vn 0.9029 -0.0412 -0.4279
vn -0.6676 0.2979 -0.6824
vn 0.9908 -0.0030 -0.1354
vn 0.9353 -0.1110 0.3361
vn 0.4974 0.8663 0.0459
vn -0.3400 0.5761 -0.7433
vn -0.2114 -0.4670 -0.8586
vn -0.8343 -0.4951 -0.2426
vn -0.6352 -0.6384 0.4346
vn -0.2763 0.9574 0.0842
vn -0.5674 -0.7895 -0.2340
vn -0.2188 -0.6498 -0.7279
vn 0.2808 -0.1926 0.9402
vn 0.1676 0.7012 0.6930
vn -0.8524 -0.1758 0.4924
vn 0.9210 -0.3508 -0.1695
vn 0.0840 -0.1842 0.9793
vn -0.8963 -0.2447 -0.3698
vn -0.8539 -0.4432 -0.2728
vn 0.3567 -0.1102 -0.9277
vn 0.6047 -0.3678 -0.7064
vn 0.7180 -0.2123 0.6628
vn -0.1649 0.6836 -0.7110
vn 0.5378 0.0375 -0.8422
vn 0.0278 -0.4634 -0.8857
vn 0.4957 0.2255 0.8387
vn 0.6865 -0.5139 -0.5144
vn 0.4614 0.1648 -0.8718
vn -0.0965 -0.8083 -0.5808
vn 0.1777 -0.3279 -0.9279
vn -0.3254 -0.4452 -0.8342
vn -0.7570 -0.0015 -0.6534
vn 0.7904 0.4783 -0.3827
vn 0.7229 0.6304 0.2827
vn -0.0790 0.3232 0.9430
vn -0.1806 0.9654 0.1881
vn -0.6218 0.5361 -0.5709
vn -0.8009 0.5948 -0.0690
vn -0.8662 -0.4167 -0.2758
vn -0.2424 -0.9170 0.3169
vn -0.6757 0.3650 -0.6405
vn 0.5667 -0.7266 0.3885
vn 0.9837 0.0468 -0.1737
vn -0.0341 -0.9353 -0.3523
vn 0.6227 0.5837 0.5211
vn 0.8021 0.5958 0.0404
vn -0.1783 -0.5858 0.7906
vn -0.5676 0.1054 0.8166
vn -0.8692 -0.2846 -0.4043
vn -0.0786 0.7489 -0.6580
vn -0.4019 0.8323 -0.3819
vn -0.3771 0.5830 0.7196
vn -0.3912 -0.7668 0.5089
vn 0.8814 0.2401 0.4068
vn -0.3732 0.6767 -0.6347
vn 0.1503 -0.7624 -0.6294
vn 0.0524 -0.1406 0.9887
vn 0.8987 -0.4012 0.1772
vn 0.0862 0.9812 -0.1726
vn 0.3612 0.4250 0.8300
vn -0.7017 -0.6617 0.2643
vn 0.3821 0.6017 -0.7014
vn 0.2553 0.8831 -0.3936
vn 0.7634 0.2016 0.6137
vn 0.9662 0.1172 -0.2295
vn 0.4406 -0.6154 -0.6536
vn 0.8530 -0.5053 -0.1310
vn -0.0747 -0.8419 0.5345
vn -0.9912 0.1315 0.0178
vn -0.5829 -0.3206 0.7466
vn 0.8695 -0.4807 0.1136
vn -0.5555 0.7219 -0.4126
vn 0.7520 -0.5774 0.3180
vn 0.0536 -0.1285 -0.9903
vn 0.7765 0.4952 -0.3897
vn -0.3953 0.2235 0.8909
vn -0.3953 0.2236 0.8909
vn 0.2218 0.5986 0.7697
vn -0.9939 0.0372 -0.1036
vn 0.6056 -0.0245 0.7954
vn -0.0116 -0.3996 0.9166
vn -0.0115 -0.3996 0.9166
vn 0.8500 0.4900 -0.1935
vn -0.9056 -0.2389 0.3505
vn -0.8613 0.4741 0.1826
vn 0.1051 0.9161 -0.3870
vn 0.7090 0.7046 -0.0307
vn 0.7972 -0.1226 -0.5912
vn 0.3414 0.7215 0.6024
vn 0.3413 0.7215 0.6024
vn -0.2625 0.9330 0.2461
vn 0.2325 0.1646 -0.9586
vn -0.7937 0.3026 -0.5277
vn 0.2854 0.7772 -0.5608
vn 0.2853 0.7772 -0.5608
vn -0.8379 -0.4104 -0.3598
vn -0.0169 0.2914 -0.9565
vn 0.0097 -0.4382 -0.8988
vn -0.6620 -0.4396 -0.6071
vn -0.6886 0.2900 -0.6647
vn 0.9351 0.0460 0.3514
vn 0.8396 -0.5371 -0.0811
vn 0.8396 -0.5371 -0.0812
vn 0.7476 -0.0947 -0.6574
vn 0.7476 -0.0946 -0.6574
vn 0.8431 0.4885 -0.2248
vn -0.4237 -0.0599 0.9038
vn 0.1781 -0.4751 0.8617
vn 0.5894 0.1274 0.7978
vn -0.0124 0.5426 0.8399
vn -0.9316 -0.0094 -0.3634
vn -0.8603 -0.4672 0.2038
vn -0.7525 0.1030 0.6505
vn -0.8238 0.5607 0.0833
vn 0.7777 0.5294 0.3391
vn 0.7776 0.5294 0.3391
vn 0.6004 0.7214 -0.3450
vn 0.8092 0.0616 -0.5843
vn 0.9864 -0.1305 0.0998
vn 0.4222 0.4637 -0.7789
vn -0.2609 0.2492 -0.9326
vn -0.0504 -0.4510 -0.8911
vn 0.6327 -0.2365 -0.7374
vn -0.4206 0.6676 0.6143
vn 0.0999 0.9746 0.2006
vn -0.3095 0.8643 -0.3964
vn -0.8301 0.5574 0.0173
vn 0.8909 0.3953 -0.2235
vn 0.8909 0.3953 -0.2236
vn 0.7697 -0.2218 -0.5986
vn 0.7954 -0.6056 0.0245
vn 0.9166 0.0116 0.3996
vn 0.9166 0.0115 0.3996
vn -0.1935 -0.8500 -0.4900
vn 0.4439 0.8941 0.0596
vn 0.3243 0.6999 -0.6363
vn -0.3870 -0.1051 -0.9161
vn -0.0307 -0.7090 -0.7046
vn -0.5912 -0.7972 0.1226
vn 0.6024 -0.3414 -0.7215
vn 0.6024 -0.3413 -0.7215
vn 0.2461 0.2625 -0.9330
vn -0.9586 -0.2325 -0.1646
vn -0.3979 0.7513 -0.5266
vn -0.5608 -0.2854 -0.7772
vn -0.5608 -0.2853 -0.7772
vn -0.2783 0.9454 0.1693
vn -0.9529 0.0032 -0.3033
vn -0.9530 0.0030 -0.3030
vn -0.9528 0.0035 -0.3036
vn -0.8935 -0.0241 0.4484
vn -0.8934 -0.0239 0.4487
vn -0.8937 -0.0244 0.4481
vn -0.5929 0.6679 0.4498
vn -0.5928 0.6682 0.4495
vn -0.5930 0.6677 0.4501
vn -0.6522 0.6953 -0.3019
vn -0.6524 0.6950 -0.3022
vn -0.6521 0.6956 -0.3016
vn 0.3514 -0.9351 -0.0460
vn -0.0811 -0.8396 0.5371
vn -0.0812 -0.8396 0.5371
vn -0.6574 -0.7476 0.0947
vn -0.6574 -0.7476 0.0946
vn -0.2248 -0.8431 -0.4885
vn 0.9038 0.4237 0.0599
vn 0.8617 -0.1781 0.4751
vn 0.7978 -0.5894 -0.1274
vn 0.8399 0.0124 -0.5426
vn -0.6664 0.2318 0.7087
vn -0.6664 0.2317 0.7087
vn -0.1482 -0.2179 0.9647
vn 0.3514 0.3113 0.8830
vn -0.1669 0.7610 0.6270
vn 0.3391 -0.7777 -0.5294
vn 0.3391 -0.7776 -0.5294
vn -0.3450 -0.6004 -0.7214
vn -0.5843 -0.8092 -0.0616
vn 0.0998 -0.9864 0.1305
vn -0.7789 -0.4222 -0.4637
vn -0.9326 0.2609 -0.2492
vn -0.8911 0.0504 0.4510
vn -0.7374 -0.6327 0.2365
vn 0.6143 0.4206 -0.6676
vn 0.2006 -0.0999 -0.9746
vn -0.3964 0.3095 -0.8643
vn 0.0173 0.8301 -0.5574
g Cube.023_Cube.037_Cube.023_Cube.037_Material.051
usemtl Material.051
s 1
f 13/1/1 32/2/2 12/3/3
f 21/4/4 17/5/5 20/6/6
f 22/7/7 18/8/8 21/4/9
f 4/9/10 3/10/11 29/11/12
f 16/12/13 31/13/14 6/14/15
f 30/15/16 25/16/17 22/17/7
f 33/18/18 29/11/19 3/10/20
f 9/19/21 28/20/22 34/21/23
f 33/18/18 3/10/20 28/20/24
f 25/22/17 24/23/25 19/24/26
f 23/25/27 27/26/28 5/27/29
f 31/13/14 16/12/13 8/28/30 32/29/31
f 15/30/32 21/4/33 20/6/34
f 9/19/35 14/31/36 33/32/37
f 10/33/38 14/31/36 9/19/35
f 12/3/39 9/34/40 34/21/41
f 12/3/39 7/35/42 9/34/40
f 7/35/42 8/36/30 10/37/43
f 32/2/44 7/35/42 12/3/39
f 23/25/27 2/38/45 13/39/1
f 25/22/17 2/38/46 24/23/25
f 1/40/47 32/2/48 2/38/46
f 3/10/11 4/9/10 5/41/49
f 7/35/42 32/2/44 8/36/30
f 9/34/35 7/35/50 10/37/38
f 10/33/38 6/42/15 14/31/36
f 17/5/51 18/8/52 19/43/53
f 26/44/54 5/41/49 27/45/55
f 30/15/16 1/40/47 25/16/17
f 31/13/14 32/2/31 30/15/16
f 31/13/14 22/17/56 21/46/33 6/14/15
f 22/17/7 31/13/14 30/15/16
f 29/11/19 33/18/18 20/47/57 4/9/57
f 30/15/16 32/2/48 1/40/47
f 26/44/54 27/45/55 28/20/24 3/10/20
f 9/19/21 33/18/58 28/20/22
f 34/21/59 28/20/60 27/45/61
f 5/48/62 4/49/63 17/5/51 19/43/53
f 5/27/29 24/23/25 23/25/27
f 5/27/29 19/24/26 24/23/25
f 23/25/27 13/39/1 27/45/28
f 21/4/4 18/8/64 17/5/5
f 4/49/63 20/6/65 17/5/51
f 20/50/66 33/32/37 14/31/36 15/51/32
f 10/33/38 16/52/13 6/42/15
f 8/28/30 16/52/13 10/33/43
f 11/53/67 34/21/59 27/54/61 13/1/68
f 11/53/67 13/1/68 12/3/69
f 2/55/45 32/56/2 13/1/1
f 11/53/67 12/3/69 34/21/59
f 21/57/33 15/51/32 14/31/36 6/42/15
f 19/43/70 18/8/8 22/7/7 25/58/17
f 37/59/71 38/60/71 35/61/71 36/62/71
f 24/23/25 2/38/45 23/25/27
f 26/44/54 3/10/11 5/41/49
f 1/40/47 2/63/46 25/16/17
f 41/64/72 42/65/72 39/66/72 40/67/72
f 45/68/73 46/69/73 43/70/73 44/71/73
f 49/72/74 50/73/74 47/74/74 48/75/74
f 54/76/75 51/77/75 52/78/75 53/79/75
f 57/80/76 58/81/76 55/82/76 56/83/76
f 61/84/77 62/85/77 59/86/77 60/87/77
f 66/88/78 63/89/78 64/90/78 65/91/78
f 69/92/79 70/93/79 67/94/79 68/95/79
f 74/96/80 71/97/80 72/98/80 73/99/80
f 77/100/81 78/101/81 75/102/81 76/103/81
f 81/104/82 82/105/82 79/106/82 80/107/82
f 85/108/83 86/109/83 83/110/83 84/111/83
f 90/112/84 87/113/84 88/114/84 89/115/84
f 94/116/85 91/117/85 92/118/85 93/119/85
f 98/120/86 95/121/86 96/122/86 97/123/86
f 102/124/87 99/125/87 100/126/87 101/127/87
f 105/128/88 106/129/88 103/130/88 104/131/88
f 110/132/89 107/133/89 108/134/89 109/135/89
f 113/136/90 114/137/90 111/138/90 112/139/90
f 118/140/91 115/141/91 116/142/91 117/143/91
f 122/144/92 119/145/92 120/146/92 121/147/92
f 126/148/93 123/149/93 124/150/93 125/151/93
f 130/152/94 127/153/94 128/154/94 129/155/94
f 134/156/95 131/157/95 132/158/95 133/159/95
f 138/160/96 135/161/96 136/162/96 137/163/96
f 141/164/97 142/165/97 139/166/97 140/167/97
f 146/168/98 143/169/98 144/170/98 145/171/98
f 149/172/99 150/173/99 147/174/99 148/175/99
f 153/176/100 154/177/100 151/178/100 152/179/100
f 157/180/101 158/181/101 155/182/101 156/183/101
f 162/184/102 159/185/102 160/186/102 161/187/102
f 165/188/103 166/189/103 163/190/103 164/191/103
f 170/192/104 167/193/104 168/194/104 169/195/104
f 173/196/105 174/197/105 171/198/105 172/199/105
f 177/200/106 178/201/106 175/202/106 176/203/106
f 182/204/107 179/205/107 180/206/107 181/207/107
f 186/208/108 183/209/108 184/210/108 185/211/108
f 189/212/109 190/213/109 187/214/109 188/215/109
f 193/216/110 194/217/110 191/218/110 192/219/110
f 198/220/111 195/221/111 196/222/111 197/223/111
f 201/224/112 202/225/112 199/226/112 200/227/112
f 205/228/113 206/229/113 203/230/113 204/231/113
f 209/232/114 210/233/114 207/234/114 208/235/114
f 214/236/115 211/237/115 212/238/115 213/239/115
f 218/240/116 215/241/116 216/242/116 217/243/116
f 221/244/117 222/245/117 219/246/117 220/247/117
f 225/248/118 226/249/118 223/250/118 224/251/118
f 230/252/119 227/253/119 228/254/119 229/255/119
f 234/256/120 231/257/120 232/258/120 233/259/120
f 238/260/121 235/261/121 236/262/121 237/263/121
f 241/264/122 242/265/122 239/266/122 240/267/122
f 246/268/123 243/269/123 244/270/123 245/271/123
f 250/272/124 247/273/124 248/274/124 249/275/124
f 254/276/125 251/277/125 252/278/125 253/279/125
f 258/280/126 255/281/126 256/282/126 257/283/126
f 261/284/127 262/285/127 259/286/127 260/287/127
f 265/288/128 266/289/128 263/290/128 264/291/128
f 269/292/129 270/293/129 267/294/129 268/295/129
f 274/296/130 271/297/130 272/298/130 273/299/130
f 277/300/131 278/301/131 275/302/131 276/303/131
f 282/304/132 279/305/132 280/306/132 281/307/132
f 286/308/133 283/309/133 284/310/133 285/311/133
f 290/312/134 287/313/134 288/314/134 289/315/134
f 293/316/135 294/317/135 291/318/135 292/319/135
f 298/320/136 295/321/136 296/322/136 297/323/136
f 302/324/137 299/325/137 300/326/137 301/327/137
f 305/328/138 306/329/138 303/330/138 304/331/138
f 309/332/139 310/333/139 307/334/139 308/335/139
f 314/336/140 311/337/140 312/338/140 313/339/140
f 318/340/141 315/341/141 316/342/141 317/343/141
f 322/344/142 319/345/142 320/346/142 321/347/142
f 326/348/143 323/349/143 324/350/143 325/351/143
f 329/352/144 330/353/144 327/354/144 328/355/144
f 333/356/145 334/357/145 331/358/145 332/359/145
f 338/360/146 335/361/146 336/362/146 337/363/146
f 342/364/147 339/365/147 340/366/147 341/367/147
f 345/368/148 346/369/148 343/370/148 344/371/148
f 350/372/149 347/373/149 348/374/149 349/375/149
f 354/376/150 351/377/150 352/378/150 353/379/150
f 357/380/151 358/381/151 355/382/151 356/383/151
f 362/384/152 359/385/152 360/386/152 361/387/152
f 366/388/153 363/389/153 364/390/153 365/391/153
f 370/392/154 367/393/154 368/394/154 369/395/154
f 373/396/155 374/397/155 371/398/155 372/399/155
f 377/400/156 378/401/156 375/402/156 376/403/156
f 381/404/157 382/405/157 379/406/157 380/407/157
f 385/408/158 386/409/158 383/410/158 384/411/158
f 390/412/159 387/413/159 388/414/159 389/415/159
f 393/416/160 394/417/160 391/418/160 392/419/160
f 398/420/161 395/421/161 396/422/161 397/423/161
f 401/424/162 402/425/162 399/426/162 400/427/162
f 406/428/163 403/429/163 404/430/163 405/431/163
f 409/432/164 410/433/164 407/434/164 408/435/164
f 413/436/165 414/437/165 411/438/165 412/439/165
f 418/440/166 415/441/166 416/442/166 417/443/166
f 421/444/167 422/445/167 419/446/167 420/447/167
f 426/448/168 423/449/168 424/450/168 425/451/168
f 430/452/169 427/453/169 428/454/169 429/455/169
f 434/456/170 431/457/170 432/458/170 433/459/170
f 437/460/171 438/461/171 435/462/171 436/463/171
f 442/464/172 439/465/172 440/466/172 441/467/172
g Cube.023_Cube.037_Cube.023_Cube.037_Material.055
usemtl Material.055
f 444/468/173 445/469/174 446/470/174
f 444/468/175 447/471/175 445/469/175
f 448/472/176 449/473/176 450/474/176 451/475/176
f 444/468/177 452/476/177 447/471/177
f 444/468/178 446/470/179 452/476/179
f 443/477/180 453/478/180 454/479/180
f 451/475/181 450/474/181 455/480/181 456/481/181
f 448/472/182 451/475/182 456/481/182 457/482/182
f 458/483/183 459/484/183 460/485/183
f 458/483/184 461/486/184 459/484/184
f 443/477/185 454/479/185 462/487/185
f 458/483/186 463/488/187 461/486/187
f 458/483/188 460/485/188 463/488/188
f 443/477/189 462/487/189 464/489/189
f 449/473/190 448/472/190 457/482/190 465/490/190
f 443/477/191 464/489/192 453/478/191
f 450/474/193 449/473/193 465/490/193 455/480/193
f 466/491/194 467/492/194 468/493/194
f 466/491/195 468/493/195 469/494/195
f 466/491/196 469/494/196 470/495/196
f 466/491/197 470/495/197 467/492/197
f 471/496/198 472/497/198 473/498/198
f 471/496/199 473/498/200 474/499/200
f 471/496/201 474/499/202 475/500/202
f 471/496/203 475/500/203 472/497/203
f 476/501/204 477/502/204 478/503/204
f 476/501/205 478/503/205 479/504/205
f 476/501/206 479/504/206 480/505/206
f 476/501/207 480/505/207 477/502/207
f 481/506/208 482/507/208 483/508/208
f 481/506/209 483/508/209 484/509/209
f 481/506/210 484/509/210 485/510/210
f 481/506/211 485/510/211 482/507/211
f 486/511/212 487/512/213 488/513/213
f 486/511/214 489/514/214 487/512/214
f 486/511/215 490/515/215 489/514/215
f 486/511/216 488/513/216 490/515/216
f 491/516/217 492/517/217 493/518/217
f 491/516/218 494/519/218 492/517/218
f 491/516/219 495/520/219 494/519/219
f 491/516/220 493/518/220 495/520/220
f 496/521/221 497/522/221 498/523/221
f 496/521/222 498/523/222 499/524/222
f 496/521/223 499/524/223 500/525/223
f 496/521/224 500/525/224 497/522/224
f 502/526/225 503/527/226 504/528/226
f 502/526/227 505/529/227 503/527/227
f 502/526/228 507/530/228 505/529/228
f 502/526/229 504/528/230 507/530/230
f 501/531/231 508/532/231 509/533/231
f 506/534/232 510/535/232 511/536/232
f 506/534/233 511/536/233 512/537/233
f 513/538/234 514/539/234 515/540/234
f 513/538/235 516/541/235 514/539/235
f 501/531/236 509/533/236 517/542/236
f 513/538/237 518/543/238 516/541/238
f 513/538/239 515/540/239 518/543/239
f 501/531/240 517/542/240 519/544/240
f 506/534/241 512/537/241 520/545/241
f 501/531/242 519/544/243 508/532/242
f 506/534/244 520/545/244 510/535/244
f 521/546/245 522/547/246 523/548/247
f 521/546/248 523/548/249 524/549/250
f 521/546/251 524/549/252 525/550/253
f 521/546/254 525/550/255 522/547/256
f 526/551/257 527/552/257 528/553/257
f 526/551/258 528/553/259 529/554/259
f 526/551/260 529/554/261 530/555/261
f 526/551/262 530/555/262 527/552/262
f 531/556/263 532/557/263 533/558/263
f 531/556/264 533/558/264 534/559/264
f 531/556/265 534/559/265 535/560/265
f 531/556/266 535/560/266 532/557/266
f 536/561/267 537/562/267 538/563/268
f 536/561/269 538/563/269 539/564/269
f 536/561/270 539/564/270 540/565/270
f 536/561/271 540/565/271 537/562/271
f 541/566/272 542/567/273 543/568/273
f 541/566/274 544/569/274 542/567/274
f 541/566/275 545/570/275 544/569/275
f 541/566/276 543/568/276 545/570/276
f 546/571/277 547/572/277 548/573/277
f 546/571/278 549/574/278 547/572/278
f 546/571/279 550/575/279 549/574/279
f 546/571/280 548/573/280 550/575/280
f 551/576/281 552/577/281 553/578/281
f 551/576/282 553/578/282 554/579/282
f 551/576/283 554/579/283 555/580/283
f 551/576/284 555/580/284 552/577/284
