# Blender v3.0.0 OBJ File: 'models.blend'
# www.blender.org
mtllib stick_3.mtl
o Cube.024_Cube.038
v -0.325903 -0.500229 -0.257705
v -0.325903 -0.412174 -0.257705
v -0.275010 -0.500229 -0.317260
v -0.275010 -0.412174 -0.317260
v 0.217095 -0.500229 0.206317
v 0.217095 -0.412174 0.206317
v 0.267988 -0.500229 0.146762
v 0.267988 -0.412174 0.146762
v -0.250381 -0.465271 -0.109886
v -0.259430 -0.463602 -0.078982
v -0.248774 -0.436649 -0.110961
v -0.257823 -0.434981 -0.080057
v 0.000234 -0.476563 -0.035891
v -0.008815 -0.474894 -0.004987
v 0.001841 -0.447941 -0.036966
v -0.007208 -0.446272 -0.006062
v -0.363685 -0.333880 -0.122260
v -0.345994 -0.250004 -0.142398
v -0.372183 -0.350362 -0.198372
v -0.354492 -0.266487 -0.218510
v 0.331706 -0.491021 -0.165867
v 0.349397 -0.407145 -0.186006
v 0.323208 -0.507503 -0.241979
v 0.340899 -0.423628 -0.262118
v -0.200401 -0.321019 -0.078110
v -0.184031 -0.316153 -0.050760
v -0.194343 -0.294262 -0.086497
v -0.177973 -0.289396 -0.059146
v 0.018065 -0.406688 -0.193627
v 0.034435 -0.401822 -0.166276
v 0.024123 -0.379931 -0.202013
v 0.040493 -0.375065 -0.174662
v 0.257909 -0.348949 -0.147592
v 0.243127 -0.262878 -0.136321
v 0.315184 -0.346101 -0.094222
v 0.300403 -0.260030 -0.082951
v -0.214404 -0.497477 0.367212
v -0.229186 -0.411407 0.378483
v -0.157129 -0.494630 0.420582
v -0.171911 -0.408559 0.431853
v 0.104282 -0.348988 -0.075653
v 0.073800 -0.351169 -0.085938
v 0.100493 -0.321053 -0.070344
v 0.070010 -0.323234 -0.080629
v 0.026312 -0.405768 0.167467
v -0.004170 -0.407949 0.157182
v 0.022522 -0.377832 0.172776
v -0.007960 -0.380013 0.162491
vt 0.744041 0.000000
vt 0.867322 0.000000
vt 0.867321 1.000000
vt 0.744041 1.000000
vt 0.744041 0.000000
vt 0.867322 0.000000
vt 0.867321 1.000000
vt 0.744041 1.000000
vt 0.180234 0.000000
vt 0.180234 1.000000
vt 0.070556 1.000000
vt 0.070556 0.000000
vt 0.070556 1.000000
vt 0.070556 0.000000
vt 0.180234 0.000000
vt 0.180234 1.000000
vt 0.675084 0.632795
vt 0.675084 0.685453
vt 0.247946 0.685453
vt 0.247946 0.632795
vt 0.675084 0.632795
vt 0.675084 0.685453
vt 0.247946 0.685453
vt 0.247946 0.632795
vt 0.247946 0.638606
vt 0.675084 0.638605
vt 0.675084 0.685453
vt 0.247946 0.685453
vt 0.675084 0.685453
vt 0.247946 0.685453
vt 0.247946 0.638605
vt 0.675084 0.638605
vt 0.744041 0.000000
vt 0.867322 0.000000
vt 0.867321 1.000000
vt 0.744041 1.000000
vt 0.744041 0.000000
vt 0.867322 0.000000
vt 0.867321 1.000000
vt 0.744041 1.000000
vt 0.180234 0.000000
vt 0.180234 1.000000
vt 0.070556 1.000000
vt 0.070556 0.000000
vt 0.070556 1.000000
vt 0.070556 0.000000
vt 0.180234 0.000000
vt 0.180234 1.000000
vt 0.675084 0.632795
vt 0.675084 0.685453
vt 0.247946 0.685453
vt 0.247946 0.632795
vt 0.675084 0.632795
vt 0.675084 0.685453
vt 0.247946 0.685453
vt 0.247946 0.632795
vt 0.247946 0.638606
vt 0.675084 0.638605
vt 0.675084 0.685453
vt 0.247946 0.685453
vt 0.675084 0.685453
vt 0.247946 0.685453
vt 0.247946 0.638605
vt 0.675084 0.638605
vt 0.744041 0.000000
vt 0.867322 0.000000
vt 0.867321 1.000000
vt 0.744041 1.000000
vt 0.744041 0.000000
vt 0.867322 0.000000
vt 0.867321 1.000000
vt 0.744041 1.000000
vt 0.180234 0.000000
vt 0.180234 1.000000
vt 0.070556 1.000000
vt 0.070556 0.000000
vt 0.070556 1.000000
vt 0.070556 0.000000
vt 0.180234 0.000000
vt 0.180234 1.000000
vt 0.675084 0.632795
vt 0.675084 0.685453
vt 0.247946 0.685453
vt 0.247946 0.632795
vt 0.675084 0.632795
vt 0.675084 0.685453
vt 0.247946 0.685453
vt 0.247946 0.632795
vt 0.247946 0.638606
vt 0.675084 0.638605
vt 0.675084 0.685453
vt 0.247946 0.685453
vt 0.675084 0.685453
vt 0.247946 0.685453
vt 0.247946 0.638605
vt 0.675084 0.638605
vt 0.244510 0.086924
vt 0.416075 0.086924
vt 0.416075 0.258490
vt 0.244510 0.258490
vt 0.244510 0.086924
vt 0.416075 0.086924
vt 0.416075 0.258490
vt 0.244510 0.258490
vt 0.307487 0.176034
vt 0.380769 0.176034
vt 0.380769 0.249317
vt 0.307487 0.249317
vt 0.307487 0.176034
vt 0.380769 0.176034
vt 0.380769 0.249317
vt 0.307487 0.249317
vt 0.244510 0.086924
vt 0.416075 0.086924
vt 0.416075 0.258490
vt 0.244510 0.258490
vt 0.244510 0.086924
vt 0.416075 0.086924
vt 0.416075 0.258490
vt 0.244510 0.258490
vt 0.307487 0.176034
vt 0.380769 0.176034
vt 0.380769 0.249317
vt 0.307487 0.249317
vt 0.307487 0.176034
vt 0.380769 0.176034
vt 0.380769 0.249317
vt 0.307487 0.249317
vt 0.244510 0.086924
vt 0.416075 0.086924
vt 0.416075 0.258490
vt 0.244510 0.258490
vt 0.244510 0.086924
vt 0.416075 0.086924
vt 0.416075 0.258490
vt 0.244510 0.258490
vt 0.307487 0.176034
vt 0.380769 0.176034
vt 0.380769 0.249317
vt 0.307487 0.249317
vt 0.307487 0.176034
vt 0.380769 0.176034
vt 0.380769 0.249317
vt 0.307487 0.249317
vn 0.6497 0.0000 -0.7602
vn -0.6497 0.0000 0.7602
vn 0.0000 -1.0000 -0.0000
vn 0.0000 1.0000 0.0000
vn 0.0560 0.9977 -0.0375
vn -0.0560 -0.9977 0.0375
vn 0.2806 -0.0518 -0.9584
vn -0.2806 0.0518 0.9584
vn -0.1085 -0.2104 -0.9716
vn 0.1085 0.2104 0.9716
vn -0.2009 -0.9525 0.2287
vn 0.2009 0.9525 -0.2287
vn 0.2112 0.9327 -0.2923
vn -0.2112 -0.9327 0.2923
vn -0.5077 -0.1509 -0.8482
vn 0.5077 0.1509 0.8482
vn 0.7311 0.0363 0.6813
vn -0.7311 -0.0364 -0.6813
vn 0.1679 -0.9775 -0.1280
vn -0.1679 0.9775 0.1280
vn -0.1321 0.9738 0.1851
vn 0.1321 -0.9738 -0.1851
vn 0.9453 0.0676 0.3190
vn -0.9453 -0.0676 -0.3190
vn -0.7602 0.0000 -0.6497
vn 0.7602 0.0000 0.6497
vn -0.9582 0.0432 -0.2829
vn 0.9582 -0.0432 0.2829
vn -0.9736 0.2200 0.0611
vn 0.9736 -0.2200 -0.0611
vn -0.8353 0.3275 0.4417
vn 0.8353 -0.3275 -0.4417
vn 0.6613 0.2079 -0.7208
vn -0.6613 -0.2079 0.7208
vn 0.2981 0.2171 -0.9295
vn -0.2981 -0.2171 0.9295
g Cube.024_Cube.038_Material.040
usemtl Material.040
s off
f 3/1/1 4/2/1 8/3/1 7/4/1
f 5/5/2 6/6/2 2/7/2 1/8/2
f 3/9/3 7/10/3 5/11/3 1/12/3
f 8/13/4 4/14/4 2/15/4 6/16/4
f 11/17/5 12/18/5 16/19/5 15/20/5
f 13/21/6 14/22/6 10/23/6 9/24/6
f 11/25/7 15/26/7 13/27/7 9/28/7
f 16/29/8 12/30/8 10/31/8 14/32/8
f 19/33/9 20/34/9 24/35/9 23/36/9
f 21/37/10 22/38/10 18/39/10 17/40/10
f 19/41/11 23/42/11 21/43/11 17/44/11
f 24/45/12 20/46/12 18/47/12 22/48/12
f 27/49/13 28/50/13 32/51/13 31/52/13
f 29/53/14 30/54/14 26/55/14 25/56/14
f 27/57/15 31/58/15 29/59/15 25/60/15
f 32/61/16 28/62/16 26/63/16 30/64/16
f 35/65/17 36/66/17 40/67/17 39/68/17
f 37/69/18 38/70/18 34/71/18 33/72/18
f 35/73/19 39/74/19 37/75/19 33/76/19
f 40/77/20 36/78/20 34/79/20 38/80/20
f 43/81/21 44/82/21 48/83/21 47/84/21
f 45/85/22 46/86/22 42/87/22 41/88/22
f 43/89/23 47/90/23 45/91/23 41/92/23
f 48/93/24 44/94/24 42/95/24 46/96/24
g Cube.024_Cube.038_Material.043
usemtl Material.043
f 1/97/25 2/98/25 4/99/25 3/100/25
f 7/101/26 8/102/26 6/103/26 5/104/26
f 9/105/27 10/106/27 12/107/27 11/108/27
f 15/109/28 16/110/28 14/111/28 13/112/28
f 17/113/29 18/114/29 20/115/29 19/116/29
f 23/117/30 24/118/30 22/119/30 21/120/30
f 25/121/31 26/122/31 28/123/31 27/124/31
f 31/125/32 32/126/32 30/127/32 29/128/32
f 33/129/33 34/130/33 36/131/33 35/132/33
f 39/133/34 40/134/34 38/135/34 37/136/34
f 41/137/35 42/138/35 44/139/35 43/140/35
f 47/141/36 48/142/36 46/143/36 45/144/36
