# Blender v3.0.0 OBJ File: 'models.blend'
# www.blender.org
mtllib nbt_palmtree_leaves.mtl
o Plane.030
v -0.678091 -0.034599 -0.249385
v -0.633659 -0.377574 1.022995
v 0.594289 -0.034599 -0.293818
v 0.638721 -0.377574 0.978563
v -0.724866 -0.365321 -1.588863
v 0.547514 -0.365321 -1.633296
v -0.759491 -1.514145 -2.580425
v 0.512889 -1.514145 -2.624857
v -0.779538 -2.924066 -3.154487
v 0.492842 -2.924066 -3.198919
v 0.591337 -0.555762 -0.493915
v -0.335677 -0.414885 0.433100
v 1.491594 -0.555762 0.406342
v 0.564580 -0.414885 1.333357
v 1.390261 -1.348989 -1.292838
v 2.290518 -1.348989 -0.392581
v 1.750404 -2.778948 -1.652981
v 2.650662 -2.778948 -0.752725
v -0.331431 0.458901 0.075805
v -0.633064 -0.435807 0.708661
v 0.844046 0.458901 0.564866
v 0.267193 -0.435807 1.608918
v 0.183571 0.788033 -1.162021
v 1.359048 0.788033 -0.672960
vt 0.229734 0.996897
vt 0.000000 0.996897
vt 0.000000 0.000000
vt 0.229734 0.000000
vt 0.470262 0.000000
vt 0.470262 0.996897
vt 0.734740 0.000000
vt 0.734740 0.996897
vt 1.000000 -0.000000
vt 1.000000 0.996897
vt 0.485655 0.996897
vt 0.255921 0.996897
vt 0.255921 0.000000
vt 0.485655 0.000000
vt 0.726183 0.000000
vt 0.726183 0.996897
vt 0.990662 0.000000
vt 0.990662 0.996897
vt 0.751420 0.996897
vt 0.521686 0.996897
vt 0.521686 0.000000
vt 0.751420 0.000000
vt 0.991948 0.000000
vt 0.991948 0.996897
vn 0.0091 0.9656 0.2600
vn -0.0084 0.9709 -0.2394
vn -0.0264 0.6536 -0.7564
vn -0.0323 0.3773 -0.9255
vn 0.0755 0.9943 -0.0755
vn 0.4063 0.8184 -0.4063
vn 0.6661 0.3355 -0.6661
vn -0.3832 0.7247 0.5726
vn -0.0916 0.9712 0.2201
g Plane.030_Plane.030_Material.056
usemtl Material.056
s off
f 1/1/1 2/2/1 4/3/1 3/4/1
f 1/1/2 3/4/2 6/5/2 5/6/2
f 5/6/3 6/5/3 8/7/3 7/8/3
f 7/8/4 8/7/4 10/9/4 9/10/4
f 11/11/5 12/12/5 14/13/5 13/14/5
f 11/11/6 13/14/6 16/15/6 15/16/6
f 15/16/7 16/15/7 18/17/7 17/18/7
f 19/19/8 20/20/8 22/21/8 21/22/8
f 19/19/9 21/22/9 24/23/9 23/24/9
