# Blender v3.0.0 OBJ File: 'models.blend'
# www.blender.org
mtllib stick.mtl
o Cube.024_Cube.038
v -0.341465 -0.500229 0.142642
v -0.341465 -0.412174 0.142642
v -0.362641 -0.500229 0.067220
v -0.362641 -0.412174 0.067220
v 0.346203 -0.500229 -0.050427
v 0.346203 -0.412174 -0.050427
v 0.325027 -0.500229 -0.125850
v 0.325027 -0.412174 -0.125850
v -0.176617 -0.465271 0.162120
v -0.155972 -0.463602 0.186832
v -0.176617 -0.436649 0.160186
v -0.155971 -0.434981 0.184899
v 0.024292 -0.476563 -0.004968
v 0.044938 -0.474894 0.019744
v 0.024293 -0.447941 -0.006902
v 0.044939 -0.446272 0.017811
vt 0.744041 0.000000
vt 0.867322 0.000000
vt 0.867321 1.000000
vt 0.744041 1.000000
vt 0.744041 0.000000
vt 0.867322 0.000000
vt 0.867321 1.000000
vt 0.744041 1.000000
vt 0.180234 0.000000
vt 0.180234 1.000000
vt 0.070556 1.000000
vt 0.070556 0.000000
vt 0.070556 1.000000
vt 0.070556 0.000000
vt 0.180234 0.000000
vt 0.180234 1.000000
vt 0.675084 0.632795
vt 0.675084 0.685453
vt 0.247946 0.685453
vt 0.247946 0.632795
vt 0.675084 0.632795
vt 0.675084 0.685453
vt 0.247946 0.685453
vt 0.247946 0.632795
vt 0.247946 0.638606
vt 0.675084 0.638605
vt 0.675084 0.685453
vt 0.247946 0.685453
vt 0.675084 0.685453
vt 0.247946 0.685453
vt 0.247946 0.638605
vt 0.675084 0.638605
vt 0.244510 0.086924
vt 0.416075 0.086924
vt 0.416075 0.258490
vt 0.244510 0.258490
vt 0.244510 0.086924
vt 0.416075 0.086924
vt 0.416075 0.258490
vt 0.244510 0.258490
vt 0.307487 0.176034
vt 0.380769 0.176034
vt 0.380769 0.249317
vt 0.307487 0.249317
vt 0.307487 0.176034
vt 0.380769 0.176034
vt 0.380769 0.249317
vt 0.307487 0.249317
vn -0.2703 0.0000 -0.9628
vn 0.2703 0.0000 0.9628
vn 0.0000 -1.0000 0.0000
vn 0.0000 1.0000 0.0000
vn 0.0000 0.9977 -0.0674
vn -0.0000 -0.9977 0.0674
vn -0.6403 -0.0518 -0.7664
vn 0.6403 0.0518 0.7664
vn -0.9628 0.0000 0.2703
vn 0.9628 0.0000 -0.2703
vn -0.7681 0.0432 0.6388
vn 0.7681 -0.0432 -0.6388
g Cube.024_Cube.038_Material.040
usemtl Material.040
s off
f 3/1/1 4/2/1 8/3/1 7/4/1
f 5/5/2 6/6/2 2/7/2 1/8/2
f 3/9/3 7/10/3 5/11/3 1/12/3
f 8/13/4 4/14/4 2/15/4 6/16/4
f 11/17/5 12/18/5 16/19/5 15/20/5
f 13/21/6 14/22/6 10/23/6 9/24/6
f 11/25/7 15/26/7 13/27/7 9/28/7
f 16/29/8 12/30/8 10/31/8 14/32/8
g Cube.024_Cube.038_Material.043
usemtl Material.043
f 1/33/9 2/34/9 4/35/9 3/36/9
f 7/37/10 8/38/10 6/39/10 5/40/10
f 9/41/11 10/42/11 12/43/11 11/44/11
f 15/45/12 16/46/12 14/47/12 13/48/12
