# Blender v3.0.0 OBJ File: 'models.blend'
# www.blender.org
mtllib cfp_glow_mushroom.mtl
o cfp_glow_mushroom
v 0.061647 -0.075000 0.358355
v 0.330006 -0.075000 -0.040906
v 0.330006 -0.181250 -0.040906
v -0.095916 -0.181250 -0.143398
v -0.095916 0.031250 -0.143398
v 0.258327 -0.075000 -0.018397
v -0.005880 -0.500000 0.143318
v 0.016629 0.137500 0.214997
v 0.016629 0.084375 0.214997
v 0.039138 -0.234375 0.286676
v -0.100068 -0.234375 0.094148
v 0.258327 0.031250 -0.018397
v -0.005880 -0.234375 0.143318
v -0.243426 0.031250 0.139166
v -0.243426 -0.181250 0.139166
v 0.043290 -0.234375 0.049130
v -0.005880 0.190625 0.143318
v -0.005880 0.137500 0.143318
v -0.140935 -0.181250 -0.286756
v 0.061647 0.031250 0.358355
v -0.386784 -0.181250 0.184184
v 0.084156 -0.181250 0.430034
v 0.084156 -0.075000 0.430034
v 0.039138 -0.181250 0.286676
v 0.039138 0.031250 0.286676
v 0.039138 0.084375 0.286676
v -0.140935 -0.075000 -0.286756
v -0.050898 -0.500000 -0.000040
v -0.073407 0.137500 -0.071719
v 0.043290 -0.500000 0.049130
v 0.114969 0.137500 0.026621
v 0.114969 0.084375 0.026621
v 0.186648 -0.234375 0.004112
v 0.186648 -0.181250 0.004112
v 0.186648 0.031250 0.004112
v 0.186648 0.084375 0.004112
v -0.050898 -0.234375 -0.000040
v 0.043290 0.190625 0.049130
v 0.043290 0.137500 0.049130
v -0.243426 -0.234375 0.139166
v -0.243426 0.084375 0.139166
v -0.118425 0.031250 -0.215077
v -0.118425 -0.075000 -0.215077
v -0.386784 -0.075000 0.184184
v -0.100068 -0.500000 0.094148
v -0.315105 0.031250 0.161675
v -0.171747 0.137500 0.116657
v -0.171747 0.084375 0.116657
v -0.315105 -0.075000 0.161675
v -0.073407 0.084375 -0.071719
v -0.095916 -0.234375 -0.143398
v -0.100068 0.190625 0.094148
v -0.100068 0.137500 0.094148
v -0.095916 0.084375 -0.143398
v -0.050898 0.190625 -0.000040
v -0.050898 0.137500 -0.000040
v 0.382019 -0.301123 -0.186510
v 0.289036 -0.301123 -0.439677
v 0.289036 -0.360690 -0.439677
v 0.102400 -0.360690 -0.280029
v 0.102400 -0.241555 -0.280029
v 0.275676 -0.301123 -0.399732
v 0.262182 -0.501163 -0.226590
v 0.302128 -0.181988 -0.213230
v 0.302128 -0.211772 -0.213230
v 0.342073 -0.390474 -0.199870
v 0.208876 -0.390474 -0.200004
v 0.275676 -0.241555 -0.399732
v 0.262182 -0.390474 -0.226590
v 0.182157 -0.241555 -0.120113
v 0.182157 -0.360690 -0.120113
v 0.235596 -0.390474 -0.279895
v 0.262182 -0.152204 -0.226590
v 0.262182 -0.181988 -0.226590
v 0.022509 -0.360690 -0.306749
v 0.382019 -0.241555 -0.186510
v 0.155437 -0.360690 -0.040222
v 0.421964 -0.360690 -0.173150
v 0.421964 -0.301123 -0.173150
v 0.342073 -0.360690 -0.199870
v 0.342073 -0.241555 -0.199870
v 0.342073 -0.211772 -0.199870
v 0.022509 -0.301123 -0.306749
v 0.182291 -0.501163 -0.253310
v 0.142345 -0.181988 -0.266669
v 0.235596 -0.501163 -0.279895
v 0.248956 -0.181988 -0.319841
v 0.248956 -0.211772 -0.319841
v 0.262316 -0.390474 -0.359786
v 0.262316 -0.360690 -0.359786
v 0.262316 -0.241555 -0.359786
v 0.262316 -0.211772 -0.359786
v 0.182291 -0.390474 -0.253310
v 0.235596 -0.152204 -0.279895
v 0.235596 -0.181988 -0.279895
v 0.182157 -0.390474 -0.120113
v 0.182157 -0.211772 -0.120113
v 0.062454 -0.241555 -0.293389
v 0.062454 -0.301123 -0.293389
v 0.155437 -0.301123 -0.040222
v 0.208876 -0.501163 -0.200004
v 0.168797 -0.241555 -0.080167
v 0.195516 -0.181988 -0.160058
v 0.195516 -0.211772 -0.160058
v 0.168797 -0.301123 -0.080167
v 0.142345 -0.211772 -0.266669
v 0.102400 -0.390474 -0.280029
v 0.208876 -0.152204 -0.200004
v 0.208876 -0.181988 -0.200004
v 0.102400 -0.211772 -0.280029
v 0.182291 -0.152204 -0.253309
v 0.182291 -0.181988 -0.253309
vt 0.187500 0.375000
vt 0.812500 0.375000
vt 0.812500 0.500000
vt 0.187500 0.500000
vt 0.922473 0.152942
vt 0.901922 0.132390
vt 0.901922 0.070735
vt 0.922473 0.050183
vt 0.437500 0.750000
vt 0.562500 0.750000
vt 0.562500 0.812500
vt 0.437500 0.812500
vt 0.812500 0.500000
vt 0.187500 0.500000
vt 0.187500 0.375000
vt 0.812500 0.375000
vt 0.312500 0.625000
vt 0.687500 0.625000
vt 0.687500 0.687500
vt 0.312500 0.687500
vt 0.819714 0.050183
vt 0.840266 0.070735
vt 0.840266 0.132390
vt 0.819714 0.152942
vt 0.750000 0.625000
vt 0.250000 0.625000
vt 0.250000 0.500000
vt 0.750000 0.500000
vt 0.312500 0.614258
vt 0.250000 0.619141
vt 0.750000 0.619141
vt 0.812500 0.375000
vt 0.812500 0.500000
vt 0.187500 0.500000
vt 0.187500 0.375000
vt 0.562500 0.257812
vt 0.437500 0.257812
vt 0.437500 0.000000
vt 0.562500 0.000000
vt 0.375000 0.687500
vt 0.625000 0.687500
vt 0.625000 0.750000
vt 0.375000 0.750000
vt 0.687500 0.625000
vt 0.312500 0.619141
vt 0.250000 0.619141
vt 0.065506 0.030350
vt 0.099960 0.064804
vt 0.099960 0.099258
vt 0.065506 0.133713
vt 0.375000 0.687500
vt 0.625000 0.687500
vt 0.625000 0.750000
vt 0.375000 0.750000
vt 0.375000 0.681641
vt 0.312500 0.681641
vt 0.312500 0.681641
vt 0.625000 0.687500
vt 0.437500 0.750000
vt 0.562500 0.750000
vt 0.562500 0.812500
vt 0.437500 0.812500
vt 0.810679 0.500000
vt 0.375000 0.687500
vt 0.625000 0.750000
vt 0.375000 0.750000
vt 0.747539 0.500000
vt 0.812655 0.500000
vt 0.195312 0.500000
vt 0.261719 0.500000
vt 0.625000 0.674316
vt 0.687500 0.681641
vt 0.687500 0.625000
vt 0.687500 0.613770
vt 0.250000 0.619141
vt 0.562500 0.000000
vt 0.562500 0.257812
vt 0.437500 0.257812
vt 0.437500 0.000000
vt 0.687500 0.687500
vt 0.312500 0.687500
vt 0.312500 0.625000
vt 0.437500 0.750000
vt 0.562500 0.750000
vt 0.562500 0.812500
vt 0.437500 0.812500
vt 0.687500 0.625000
vt 0.312500 0.619141
vt 0.687500 0.312500
vt 0.687500 0.375000
vt 0.312500 0.375000
vt 0.312500 0.312500
vt 0.375000 0.744141
vt 0.562500 0.744141
vt 0.625000 0.744141
vt 0.168869 0.133713
vt 0.134415 0.099258
vt 0.134415 0.064804
vt 0.168869 0.030350
vt 0.750000 0.625000
vt 0.250000 0.625000
vt 0.250000 0.500000
vt 0.750000 0.500000
vt 0.250000 0.500000
vt 0.750000 0.500000
vt 0.750000 0.625000
vt 0.250000 0.625000
vt 0.687500 0.687500
vt 0.312500 0.687500
vt 0.312500 0.625000
vt 0.312500 0.312500
vt 0.687500 0.312500
vt 0.687500 0.375000
vt 0.312500 0.375000
vt 0.562500 0.257812
vt 0.437500 0.257812
vt 0.437500 0.000000
vt 0.562500 0.000000
vt 0.312500 0.312500
vt 0.687500 0.312500
vt 0.687500 0.375000
vt 0.312500 0.375000
vt 0.562500 0.739258
vt 0.625000 0.744141
vt 0.625000 0.744141
vt 0.562500 0.750000
vt 0.437500 0.750000
vt 0.562500 0.812500
vt 0.437500 0.812500
vt 0.312500 0.312500
vt 0.687500 0.312500
vt 0.687500 0.375000
vt 0.312500 0.375000
vt 0.562500 0.744141
vt 0.242188 0.500000
vt 0.750000 0.500000
vt 0.812500 0.500000
vt 0.312500 0.681641
vt 0.375000 0.674805
vt 0.437500 0.739258
vt 0.750000 0.625000
vt 0.250000 0.625000
vt 0.250000 0.500000
vt 0.312500 0.625000
vt 0.687500 0.687500
vt 0.312500 0.687500
vt 0.625000 0.687500
vt 0.375000 0.681641
vt 0.562500 0.000000
vt 0.562500 0.257812
vt 0.437500 0.257812
vt 0.437500 0.000000
vt 0.562500 0.806641
vt 0.562500 0.794922
vt 0.437500 0.794922
vt 0.437500 0.806641
vt 0.375000 0.687500
vt 0.625000 0.750000
vt 0.375000 0.750000
vt 0.187500 0.500000
vt 0.187500 0.375000
vt 0.812500 0.375000
vt 0.187500 0.375000
vt 0.812500 0.375000
vt 0.812500 0.500000
vt 0.187500 0.500000
vt 0.922473 0.152942
vt 0.901922 0.132390
vt 0.901922 0.070735
vt 0.922473 0.050183
vt 0.437500 0.750000
vt 0.562500 0.750000
vt 0.562500 0.812500
vt 0.437500 0.812500
vt 0.812500 0.500000
vt 0.187500 0.500000
vt 0.187500 0.375000
vt 0.812500 0.375000
vt 0.312500 0.625000
vt 0.687500 0.625000
vt 0.687500 0.687500
vt 0.312500 0.687500
vt 0.819714 0.050183
vt 0.840266 0.070735
vt 0.840266 0.132390
vt 0.819714 0.152942
vt 0.750000 0.625000
vt 0.250000 0.625000
vt 0.250000 0.500000
vt 0.750000 0.500000
vt 0.312500 0.614258
vt 0.250000 0.619141
vt 0.750000 0.619141
vt 0.812500 0.375000
vt 0.812500 0.500000
vt 0.187500 0.500000
vt 0.187500 0.375000
vt 0.562500 0.152399
vt 0.437500 0.152399
vt 0.437500 0.000000
vt 0.562500 0.000000
vt 0.375000 0.687500
vt 0.625000 0.687500
vt 0.625000 0.750000
vt 0.375000 0.750000
vt 0.687500 0.625000
vt 0.312500 0.619141
vt 0.250000 0.619141
vt 0.065506 0.030350
vt 0.099960 0.064804
vt 0.099960 0.099258
vt 0.065506 0.133713
vt 0.375000 0.687500
vt 0.625000 0.687500
vt 0.625000 0.750000
vt 0.375000 0.750000
vt 0.375000 0.681641
vt 0.312500 0.681641
vt 0.312500 0.681641
vt 0.625000 0.687500
vt 0.437500 0.750000
vt 0.562500 0.750000
vt 0.562500 0.812500
vt 0.437500 0.812500
vt 0.810679 0.500000
vt 0.375000 0.687500
vt 0.625000 0.750000
vt 0.375000 0.750000
vt 0.747539 0.500000
vt 0.812655 0.500000
vt 0.195312 0.500000
vt 0.261719 0.500000
vt 0.625000 0.674316
vt 0.687500 0.681641
vt 0.687500 0.625000
vt 0.687500 0.613770
vt 0.250000 0.619141
vt 0.562500 0.000000
vt 0.562500 0.152399
vt 0.437500 0.152399
vt 0.437500 0.000000
vt 0.687500 0.687500
vt 0.312500 0.687500
vt 0.312500 0.625000
vt 0.437500 0.750000
vt 0.562500 0.750000
vt 0.562500 0.812500
vt 0.437500 0.812500
vt 0.687500 0.625000
vt 0.312500 0.619141
vt 0.687500 0.312500
vt 0.687500 0.375000
vt 0.312500 0.375000
vt 0.312500 0.312500
vt 0.375000 0.744141
vt 0.562500 0.744141
vt 0.625000 0.744141
vt 0.168869 0.133713
vt 0.134415 0.099258
vt 0.134415 0.064804
vt 0.168869 0.030350
vt 0.750000 0.625000
vt 0.250000 0.625000
vt 0.250000 0.500000
vt 0.750000 0.500000
vt 0.250000 0.500000
vt 0.750000 0.500000
vt 0.750000 0.625000
vt 0.250000 0.625000
vt 0.687500 0.687500
vt 0.312500 0.687500
vt 0.312500 0.625000
vt 0.312500 0.312500
vt 0.687500 0.312500
vt 0.687500 0.375000
vt 0.312500 0.375000
vt 0.562500 0.152399
vt 0.437500 0.152399
vt 0.437500 0.000000
vt 0.562500 0.000000
vt 0.312500 0.312500
vt 0.687500 0.312500
vt 0.687500 0.375000
vt 0.312500 0.375000
vt 0.562500 0.739258
vt 0.625000 0.744141
vt 0.625000 0.744141
vt 0.562500 0.750000
vt 0.437500 0.750000
vt 0.562500 0.812500
vt 0.437500 0.812500
vt 0.312500 0.312500
vt 0.687500 0.312500
vt 0.687500 0.375000
vt 0.312500 0.375000
vt 0.562500 0.744141
vt 0.242188 0.500000
vt 0.750000 0.500000
vt 0.812500 0.500000
vt 0.312500 0.681641
vt 0.375000 0.674805
vt 0.437500 0.739258
vt 0.750000 0.625000
vt 0.250000 0.625000
vt 0.250000 0.500000
vt 0.312500 0.625000
vt 0.687500 0.687500
vt 0.312500 0.687500
vt 0.625000 0.687500
vt 0.375000 0.681641
vt 0.562500 0.000000
vt 0.562500 0.152399
vt 0.437500 0.152399
vt 0.437500 0.000000
vt 0.562500 0.806641
vt 0.562500 0.794922
vt 0.437500 0.794922
vt 0.437500 0.806641
vt 0.375000 0.687500
vt 0.625000 0.750000
vt 0.375000 0.750000
vt 0.187500 0.500000
vt 0.187500 0.375000
vt 0.812500 0.375000
vn 0.8865 0.0000 0.4628
vn -0.0000 -1.0000 0.0000
vn 0.4628 -0.0000 -0.8865
vn -0.0000 1.0000 0.0000
vn -0.4628 0.0000 0.8865
vn -0.8865 -0.0000 -0.4628
vn 0.8949 -0.0000 -0.4463
vn -0.4463 0.0000 -0.8949
vn 0.4463 0.0000 0.8949
vn -0.8949 0.0000 0.4463
g cfp_glow_mushroom_cfp_glow_mushroom_cfp_glow_mushroom
usemtl cfp_glow_mushroom
s off
f 22/1/1 3/2/1 2/3/1 23/4/1
f 22/5/2 24/6/2 34/7/2 3/8/2
f 39/9/3 56/10/3 55/11/3 38/12/3
f 27/13/3 2/14/3 3/15/3 19/16/3
f 35/17/3 5/18/3 54/19/3 36/20/3
f 19/21/2 4/22/2 15/23/2 21/24/2
f 12/25/1 20/26/1 1/27/1 6/28/1
f 5/18/4 35/29/4 12/30/4 42/31/4
f 22/32/5 23/33/5 44/34/5 21/35/5
f 13/36/5 11/37/5 45/38/5 7/39/5
f 32/40/3 50/41/3 29/42/3 31/43/3
f 21/24/2 15/23/2 24/6/2 22/5/2
f 35/44/4 25/45/4 20/46/4 12/30/4
f 40/47/2 11/48/2 13/49/2 10/50/2
f 48/51/5 9/52/5 8/53/5 47/54/5
f 9/55/4 26/56/4 36/57/4 32/58/4
f 18/59/1 39/60/1 38/61/1 17/62/1
f 1/27/4 23/4/4 2/63/4 6/28/4
f 9/64/1 32/58/1 31/65/1 8/66/1
f 43/67/4 27/68/4 44/69/4 49/70/4
f 26/56/4 9/52/4 48/71/4 41/72/4
f 14/73/4 5/74/4 42/31/4 46/75/4
f 30/76/1 16/77/1 13/78/1 7/79/1
f 35/44/1 36/80/1 26/81/1 25/82/1
f 53/83/5 18/84/5 17/85/5 52/86/5
f 20/46/4 25/87/4 14/88/4 46/75/4
f 10/89/5 24/90/5 15/91/5 40/92/5
f 31/93/4 39/60/4 18/94/4 8/95/4
f 33/96/2 16/97/2 37/98/2 51/99/2
f 20/100/5 46/101/5 49/102/5 1/103/5
f 6/104/3 43/105/3 42/106/3 12/107/3
f 25/87/5 26/108/5 41/109/5 14/110/5
f 3/8/2 34/7/2 4/22/2 19/21/2
f 10/111/1 33/112/1 34/113/1 24/114/1
f 37/115/3 16/116/3 30/117/3 28/118/3
f 33/119/3 51/120/3 4/121/3 34/122/3
f 56/123/4 29/124/4 47/125/4 53/126/4
f 56/127/6 53/126/6 52/128/6 55/129/6
f 51/130/6 40/131/6 15/132/6 4/133/6
f 8/95/4 18/84/4 53/134/4 47/125/4
f 1/135/4 49/136/4 44/137/4 23/4/4
f 36/57/4 54/138/4 50/41/4 32/139/4
f 11/48/2 40/47/2 51/99/2 37/98/2
f 39/140/4 31/93/4 29/124/4 56/10/4
f 46/141/6 42/142/6 43/143/6 49/136/6
f 5/144/6 14/73/6 41/145/6 54/146/6
f 54/138/4 41/72/4 48/147/4 50/148/4
f 45/149/6 11/150/6 37/151/6 28/152/6
f 55/153/4 52/154/4 17/155/4 38/156/4
f 50/157/6 48/147/6 47/158/6 29/159/6
f 30/76/2 7/79/2 45/38/2 28/152/2
f 6/104/4 2/14/4 27/13/4 43/105/4
f 27/160/6 19/161/6 21/162/6 44/137/6
f 10/50/2 13/49/2 16/97/2 33/96/2
f 78/163/7 59/164/7 58/165/7 79/166/7
f 78/167/2 80/168/2 90/169/2 59/170/2
f 95/171/8 112/172/8 111/173/8 94/174/8
f 83/175/8 58/176/8 59/177/8 75/178/8
f 91/179/8 61/180/8 110/181/8 92/182/8
f 75/183/2 60/184/2 71/185/2 77/186/2
f 68/187/7 76/188/7 57/189/7 62/190/7
f 61/180/4 91/191/4 68/192/4 98/193/4
f 78/194/9 79/195/9 100/196/9 77/197/9
f 69/198/9 67/199/9 101/200/9 63/201/9
f 88/202/8 106/203/8 85/204/8 87/205/8
f 77/186/2 71/185/2 80/168/2 78/167/2
f 91/206/4 81/207/4 76/208/4 68/192/4
f 96/209/2 67/210/2 69/211/2 66/212/2
f 104/213/9 65/214/9 64/215/9 103/216/9
f 65/217/4 82/218/4 92/219/4 88/220/4
f 74/221/7 95/222/7 94/223/7 73/224/7
f 57/189/4 79/166/4 58/225/4 62/190/4
f 65/226/7 88/220/7 87/227/7 64/228/7
f 99/229/4 83/230/4 100/231/4 105/232/4
f 82/218/4 65/214/4 104/233/4 97/234/4
f 70/235/4 61/236/4 98/193/4 102/237/4
f 86/238/7 72/239/7 69/240/7 63/241/7
f 91/206/7 92/242/7 82/243/7 81/244/7
f 109/245/9 74/246/9 73/247/9 108/248/9
f 76/208/4 81/249/4 70/250/4 102/237/4
f 66/251/9 80/252/9 71/253/9 96/254/9
f 87/255/4 95/222/4 74/256/4 64/257/4
f 89/258/2 72/259/2 93/260/2 107/261/2
f 76/262/9 102/263/9 105/264/9 57/265/9
f 62/266/8 99/267/8 98/268/8 68/269/8
f 81/249/9 82/270/9 97/271/9 70/272/9
f 59/170/2 90/169/2 60/184/2 75/183/2
f 66/273/7 89/274/7 90/275/7 80/276/7
f 93/277/8 72/278/8 86/279/8 84/280/8
f 89/281/8 107/282/8 60/283/8 90/284/8
f 112/285/4 85/286/4 103/287/4 109/288/4
f 112/289/10 109/288/10 108/290/10 111/291/10
f 107/292/10 96/293/10 71/294/10 60/295/10
f 64/257/4 74/246/4 109/296/4 103/287/4
f 57/297/4 105/298/4 100/299/4 79/166/4
f 92/219/4 110/300/4 106/203/4 88/301/4
f 67/210/2 96/209/2 107/261/2 93/260/2
f 95/302/4 87/255/4 85/286/4 112/172/4
f 102/303/10 98/304/10 99/305/10 105/298/10
f 61/306/10 70/235/10 97/307/10 110/308/10
f 110/300/4 97/234/4 104/309/4 106/310/4
f 101/311/10 67/312/10 93/313/10 84/314/10
f 111/315/4 108/316/4 73/317/4 94/318/4
f 106/319/10 104/309/10 103/320/10 85/321/10
f 86/238/2 63/241/2 101/200/2 84/314/2
f 62/266/4 58/176/4 83/175/4 99/267/4
f 83/322/10 75/323/10 77/324/10 100/299/10
f 66/212/2 69/211/2 72/259/2 89/258/2
