# Blender v3.0.0 OBJ File: 'models.blend'
# www.blender.org
mtllib nbt_branch.mtl
o Block.002_Cube.012
v 0.180793 -0.418849 -0.100836
v 0.180793 -0.418849 -0.467974
v 0.180793 -0.057264 -0.467974
v 0.180793 -0.057264 -0.100836
v -0.180793 -0.057264 -0.100836
v -0.180793 -0.057264 -0.467974
v -0.180792 -0.418849 -0.467974
v -0.180792 -0.418849 -0.100836
v 0.131838 -0.057264 -0.149791
v 0.131838 -0.057264 -0.419019
v 0.131838 0.495084 -0.419019
v 0.131838 0.495084 -0.149791
v 0.180793 -0.057264 0.505029
v -0.180793 -0.057264 0.505029
v -0.180792 -0.418849 0.505029
v 0.180793 -0.418849 0.505029
v -0.131838 -0.057264 -0.419019
v -0.131838 -0.057264 -0.149791
v -0.131838 0.495084 -0.149791
v -0.131838 0.495084 -0.419019
vt 0.752823 0.622676
vt 0.752823 1.000000
vt 0.247177 1.000000
vt 0.247177 0.622676
vt 0.752823 0.622676
vt 0.752823 1.000000
vt 0.247177 1.000000
vt 0.247177 0.622676
vt 0.247177 0.622676
vt 0.752823 0.622676
vt 0.752823 1.000000
vt 0.247177 1.000000
vt 0.188690 0.000000
vt 0.811310 0.000000
vt 0.811310 1.000000
vt 0.188690 1.000000
vt 0.247177 0.000000
vt 0.752823 0.000000
vt 0.247177 0.000000
vt 0.752823 0.000000
vt 0.752823 1.000000
vt 0.247177 1.000000
vt 0.247177 0.000000
vt 0.752823 0.000000
vt 0.752823 0.622676
vt 0.247177 0.622676
vt 0.247177 0.000000
vt 0.752823 0.000000
vt 0.247177 0.000000
vt 0.752823 0.000000
vt 0.315637 0.949687
vt 0.684363 0.949687
vt 0.752823 1.000000
vt 0.247177 1.000000
vt 0.684363 0.672989
vt 0.315637 0.672989
vt 0.315637 0.672989
vt 0.684363 0.672989
vt 0.684363 0.949687
vt 0.315637 0.949687
vt 0.188690 0.000000
vt 0.811310 0.000000
vt 0.811310 1.000000
vt 0.188690 1.000000
vt 0.188690 0.000000
vt 0.811310 0.000000
vt 0.811310 1.000000
vt 0.188690 1.000000
vt 0.188690 0.000000
vt 0.811310 0.000000
vt 0.811310 1.000000
vt 0.188690 1.000000
vn 1.0000 0.0000 0.0000
vn -1.0000 -0.0000 0.0000
vn 0.0000 -1.0000 0.0000
vn 0.0000 0.0000 -1.0000
vn 0.0000 0.0000 1.0000
vn 0.0000 1.0000 0.0000
g Block.002_Cube.012_Block.002_Cube.012_Material.053
usemtl Material.053
s 1
f 1/1/1 2/2/1 3/3/1 4/4/1
f 5/5/2 6/6/2 7/7/2 8/8/2
f 1/9/3 8/10/3 7/11/3 2/12/3
f 9/13/1 10/14/1 11/15/1 12/16/1
f 2/17/4 7/18/4 6/6/4 3/3/4
f 13/19/5 14/20/5 15/21/5 16/22/5
f 14/23/6 13/24/6 4/25/6 5/26/6
f 16/27/3 15/28/3 8/10/3 1/9/3
f 14/20/2 5/5/2 8/8/2 15/29/2
f 16/30/1 1/1/1 4/4/1 13/19/1
f 17/31/6 10/32/6 3/33/6 6/34/6
f 10/32/6 9/35/6 4/25/6 3/33/6
f 18/36/6 17/31/6 6/34/6 5/26/6
f 9/35/6 18/36/6 5/26/6 4/25/6
f 19/37/6 12/38/6 11/39/6 20/40/6
f 17/41/2 18/42/2 19/43/2 20/44/2
f 10/45/4 17/46/4 20/47/4 11/48/4
f 18/49/5 9/50/5 12/51/5 19/52/5
