# Blender v3.0.0 OBJ File: 'models.blend'
# www.blender.org
mtllib nbt_coconut_hanging.mtl
o Cube.055_Cube.074
v -0.301073 -0.340739 -0.022024
v -0.301073 0.340739 -0.022024
v 0.301073 -0.340739 -0.022024
v 0.301073 0.340739 -0.022024
v -0.301073 -0.340739 0.580122
v -0.301073 0.340739 0.580122
v 0.301073 -0.340739 0.580122
v 0.301073 0.340739 0.580122
vt 0.669130 0.980000
vt 0.669130 0.020000
vt 1.002463 0.020000
vt 1.002463 0.980000
vt 0.669130 0.980000
vt 0.669130 0.020000
vt 1.002463 0.020000
vt 1.002463 0.980000
vt 0.669130 0.980000
vt 0.669130 0.020000
vt 1.002463 0.020000
vt 1.002463 0.980000
vt 0.669130 0.980000
vt 0.669130 0.020000
vt 1.002463 0.020000
vt 1.002463 0.980000
vt 0.005064 0.000000
vt 0.325064 0.000000
vt 0.325064 1.000000
vt 0.005064 1.000000
vt 0.340000 0.000000
vt 0.660000 0.000000
vt 0.660000 1.000000
vt 0.340000 1.000000
vn 0.0000 0.0000 -1.0000
vn 1.0000 0.0000 0.0000
vn 0.0000 0.0000 1.0000
vn -1.0000 0.0000 -0.0000
vn 0.0000 -1.0000 -0.0000
vn 0.0000 1.0000 -0.0000
g Cube.055_Cube.074_Material.058
usemtl Material.058
s off
f 1/1/1 2/2/1 4/3/1 3/4/1
f 3/5/2 4/6/2 8/7/2 7/8/2
f 7/9/3 8/10/3 6/11/3 5/12/3
f 5/13/4 6/14/4 2/15/4 1/16/4
f 3/17/5 7/18/5 5/19/5 1/20/5
f 8/21/6 4/22/6 2/23/6 6/24/6
